<svg width="364" height="276" viewBox="0 0 364 276" fill="none" xmlns="http://www.w3.org/2000/svg">
<path fill-rule="evenodd" clip-rule="evenodd" d="M121 127.242C122.13 138.654 123.261 150.067 124.391 161.48C130.545 157.968 136.699 154.456 142.853 150.945V176.945V183.779C142.853 184.383 142.494 186.461 142.853 186.984C143.158 187.428 145.413 187.441 145.946 187.516C149.425 188.003 152.913 188.437 156.406 188.822C165.611 189.839 175.464 191.295 184.705 190.127C192.737 189.112 200.524 186.255 207.863 182.93C210.44 181.763 212.98 180.514 215.473 179.179C216.002 178.896 217.921 178.228 218.208 177.652C218.443 177.181 217.892 175.528 217.819 175.033C217.509 172.948 217.199 170.862 216.888 168.777L212.557 139.658L220.739 147.828C221.38 148.468 222.597 150.285 223.484 150.569C224.134 150.777 225.745 150.133 226.387 150.009C231.02 149.116 235.653 148.224 240.286 147.331C241.365 147.123 243.797 147.131 244.707 146.479C245.197 146.127 245.22 145.413 245.393 144.736C246.523 140.309 247.653 135.882 248.783 131.456C248.986 130.659 250.122 128.145 249.833 127.342C249.73 127.054 249.229 126.857 248.922 126.669C241.93 122.399 234.937 118.128 227.945 113.857C224.115 111.518 220.285 109.179 216.454 106.839C214.85 105.859 212.879 104.093 211.061 103.545C209.933 103.205 208.291 103.46 207.123 103.426C204.749 103.358 202.376 103.291 200.003 103.223C199.632 103.212 198.33 102.948 198.017 103.167C197.757 103.349 197.865 103.603 197.78 104.037C197.571 105.097 197.569 106.24 197.467 107.317C197.384 108.181 197.548 109.765 197.159 110.547C196.91 111.046 197.225 110.847 196.889 111.089C196.489 111.376 195.21 111.284 194.733 111.339C192.408 111.609 190.082 111.879 187.756 112.149C184.991 112.47 182.196 113.073 179.418 112.795C175.206 112.375 170.666 112.396 166.531 111.509C165.456 111.278 165.069 110.673 164.24 109.845C162.622 108.229 161.02 106.595 159.385 104.996C158.583 104.213 158.926 104.346 158.1 104.643C157.064 105.015 156.014 105.913 155.076 106.485C151.484 108.672 147.893 110.86 144.301 113.048L122.372 126.406C121.915 126.684 121.457 126.963 121 127.242Z" fill="#FF6161"/>
<path fill-rule="evenodd" clip-rule="evenodd" d="M330.74 128.66C326.219 145.821 317.128 164.534 298.812 170.004C294.359 171.334 290.026 172.338 285.401 171.831C284.961 171.783 284.593 171.845 284.174 171.853C283.424 171.867 284.072 172.137 283.23 171.877C282.574 171.675 281.96 171.168 281.277 170.944C279.459 170.349 277.522 170.234 275.675 169.754C271.136 168.573 266.458 167.116 262.061 165.487C259.99 164.721 258.087 163.653 256.139 162.626C254.159 161.582 252.061 160.934 250.058 159.977C248.476 159.22 245.765 158.234 244.652 156.815C243.466 155.301 245.107 152.078 245.577 150.469C247.172 144.993 249.072 139.598 250.271 134.013C254.411 138.812 260.157 141.783 266.106 143.699C269.333 144.739 272.654 145.491 276.011 145.962C279.059 146.388 282.347 146.905 285.402 146.299C287.709 145.841 290.604 144.781 292.251 143.021C292.839 142.392 293.544 141.24 293.215 140.327C292.797 139.168 291.579 139.714 290.919 138.849C290.345 138.096 290.435 136.334 290.252 135.416C289.928 133.793 289.483 132.214 288.94 130.651C287.887 127.617 286.574 124.575 286.259 121.347C285.985 118.545 286.623 115.896 288.021 113.465C288.681 112.316 290.339 109.19 291.958 109.32C293.735 109.462 291.338 116.953 291.26 118.481C290.949 124.539 291.762 130.993 294.87 136.303C296.06 138.336 297.782 140.703 300.323 140.955C303.014 141.221 305.185 139.103 306.466 136.961C309.592 131.733 308.017 124.56 306.433 119.081C304.491 112.359 299.423 107.725 296.217 101.688C301.003 102.169 303.565 105.209 306.021 109.066C308.724 113.312 310.829 118.409 311.867 123.35C312.391 125.846 312.029 128.352 312.033 130.873C312.034 131.71 312.034 134.799 313.399 134.678C314.858 134.548 315.358 131.063 315.573 130.001C316.065 127.563 316.597 125.124 317.024 122.674C317.78 118.34 318.116 113.9 319.021 109.595C319.174 108.868 319.479 106.849 320.568 107.394C321.408 107.814 321.273 110.936 321.304 111.662C321.38 113.451 321.486 115.239 321.5 117.029C321.521 119.683 320.992 122.43 321.252 125.067C321.421 126.791 322.346 128.695 323.493 126.371C324.63 124.066 324.862 121.191 325.496 118.713C326.162 116.11 326.849 113.47 328.263 111.158C328.655 110.517 329.076 109.499 329.948 109.801C330.581 110.02 331.048 111.521 331.244 112.05C332.127 114.444 331.977 117.105 331.921 119.611C331.853 122.681 331.523 125.683 330.74 128.66ZM242.594 133.113C242.352 133.035 241.326 132.938 241.072 132.916C240.773 132.89 241.112 132.34 240.39 132.497C240.529 132.842 240.777 133.072 241.133 133.188C240.047 133.555 239.247 132.649 238.504 132.532C237.795 132.42 237.764 132.532 237.063 133.282C236.304 132.356 236.446 132.933 235.822 132.934C235.595 132.934 235.585 133.277 235.215 133.236C234.893 133.2 234.859 132.71 234.668 132.653C233.632 132.339 232.566 133.916 231.391 132.548C231.106 133.972 227.845 132.189 226.59 132.439C225.274 132.701 225.842 133.172 224.779 132.366C223.766 131.598 224.048 132.108 222.87 132.737C222.897 132.722 222.205 133.19 222.269 133.197C221.454 133.102 221.5 132.259 220.467 132.304C219.374 132.351 218.907 133.208 217.906 132.153C217.688 132.943 217.644 132.603 217.131 132.802C216.849 132.869 216.602 132.795 216.39 132.58C216.326 132.797 216.186 132.93 215.967 132.979C215.409 133.029 214.361 133.107 213.853 132.838C213.092 132.434 213.704 132.279 213.176 131.825C212.94 133.077 212.421 132.811 211.328 132.928C210.493 133.017 210.31 132.761 209.513 132.637C208.728 132.514 207.714 132.819 206.948 132.949C206.632 133.003 206.209 133.223 205.888 133.145C205.598 133.076 205.473 132.851 205.3 132.792C205.09 132.721 205.135 132.537 204.771 132.448C204.521 132.387 204.072 132.622 203.822 132.662C202.037 132.952 200.323 132.955 198.621 132.253C199.459 133.726 196.661 132.931 196.162 132.321C195.538 133.298 194.784 132.608 193.527 132.684C192.317 132.758 190.496 133.128 190.006 131.621C189.91 131.927 189.223 132.817 188.949 132.952C188.156 133.346 188.061 132.764 187.324 132.527C186.32 132.204 186.529 132.817 185.906 132.941C184.855 133.151 184.288 132.411 183.359 132.018C183.319 132.63 183.299 133.006 182.77 133.387C182.302 131.681 180.631 133.526 180.918 131.247C180.281 131.661 179.387 131.979 179.206 132.817C180.269 132.524 179.319 133.219 179.274 133.242C179.134 133.316 178.659 132.649 178.549 132.555C178.519 132.87 178.489 133.184 178.459 133.499C178.035 133.287 177.637 132.908 177.294 132.718C176.984 132.546 177.428 132.19 176.904 132.166C176.628 132.152 176.341 132.75 176.051 132.801C175.608 132.878 175.821 132.243 175.636 132.265C175.353 132.297 174.893 132.71 174.68 132.702C173.98 132.676 174.453 132.35 173.919 132.201C172.965 131.934 173.026 132.558 172.34 132.783C170.77 133.299 170.928 130.927 169.331 132.509C168.949 132.887 168.703 133.472 168.179 133.439C167.095 133.371 167.476 132.086 167.696 131.457C167.924 131.569 163.736 133.72 163.769 133.636C163.795 133.12 164.454 132.722 163.865 132.264C163.384 133.297 162.877 133.315 161.767 133.507C161.228 133.601 161.121 133.726 160.544 133.501C160.176 133.359 159.929 132.772 159.563 132.74C159.613 132.744 158.941 133.255 158.839 133.301C158.233 133.574 157.85 133.265 157.261 133.377C156.759 133.473 156.561 133.9 156.062 133.783C155.395 133.627 155.787 132.831 154.87 133.053C154.556 133.129 154.368 133.733 153.874 133.858C153.104 134.053 152.161 133.689 151.347 133.879C150.701 134.03 150.222 134.093 149.657 134.125C149.201 134.15 149.389 133.795 148.549 134.214L148.193 133.317C147.772 133.695 147.352 134.073 146.931 134.451C146.852 134.112 146.801 133.769 146.78 133.421C146.153 134.049 145.363 134.156 144.52 134.213C143.607 134.274 142.927 134.473 142.039 134.64C141.758 134.692 141.035 134.776 140.804 134.678C140.838 134.693 140.372 134.499 140.513 134.536C140.452 134.413 140.396 134.287 140.344 134.16C140.266 133.806 140.011 133.79 139.58 134.113C139.358 134.079 138.926 133.787 138.703 133.859C138.131 134.044 138.209 134.489 137.638 134.424C137.268 134.381 137.078 133.834 136.693 133.797C136.103 133.74 135.591 134.401 135.06 134.545C136.676 134.106 132.963 134.446 134.117 134.476C133.36 134.457 132.575 134.419 131.875 134.758C131.489 134.494 131.958 133.963 131.567 133.744C131.213 133.546 131.186 134.07 131.144 134.081C131.368 134.018 131.256 134.464 131.032 134.543C130.336 134.79 129.778 134.162 129.742 133.539C129.15 134.43 128.984 134.072 128.114 134.127C127.255 134.181 126.515 134.631 125.656 134.623C123.957 134.607 122.804 134.016 122.237 132.5C124.047 132.72 125.869 131.556 127.639 131.83C128.221 131.92 128.584 132.357 129.094 132.28C129.722 132.184 130.16 131.499 130.965 131.425C132.741 131.263 134.492 131.421 136.28 131.149C138.416 130.824 140.645 130.631 142.801 130.789C144.468 130.912 145.817 130.275 147.507 130.152C149.692 129.993 151.895 129.965 154.083 129.85C156.332 129.732 158.752 129.373 160.994 129.488C161.695 129.524 162.297 129.593 162.992 129.551C163.286 129.533 163.564 129.334 163.872 129.363C164.274 129.402 164.446 129.813 164.863 129.799C165.571 129.775 166.327 129.191 167.169 129.176C168.552 129.15 169.93 129.153 171.317 129.074C172.538 129.004 173.846 128.719 175.062 128.735C175.919 128.745 176.131 129.476 176.631 129.552C177.529 129.687 182.074 127.1 182.467 129.422C184.834 127.802 188.007 129.174 190.641 128.869C194.025 128.479 197.471 128.827 200.877 128.688C204.344 128.546 207.91 128.677 211.363 129.004C212.793 129.139 214.175 129.267 215.609 129.184C216.248 129.148 216.987 128.984 217.627 129.132C217.781 129.168 218.967 129.995 218.82 130.019C219.468 129.438 219.029 129.352 220.169 129.323C221.047 129.3 221.878 129.489 222.751 129.541C224.319 129.634 225.898 129.417 227.463 129.464C228.769 129.504 230.046 129.697 231.358 129.707C232.774 129.717 234.445 129.757 235.469 130.898C235.361 130.539 235.253 130.181 235.145 129.823C236.724 129.947 238.285 130.51 239.882 130.247C239.478 130.634 239.068 130.95 238.914 131.517C239.775 131.408 240.358 130.807 241.265 130.802C242.026 130.798 242.185 131.18 242.989 130.686C243.088 131.291 243.186 131.896 243.285 132.5C244.399 132.238 243.668 131.408 243.75 130.659C244.655 130.931 245.421 130.619 245.064 131.921C244.789 132.924 243.536 133.419 242.594 133.113ZM241.029 144.294C240.641 145.384 237.282 144.761 236.488 144.646C235.462 144.497 234.288 144.262 233.343 144.145C233.23 143.993 233.094 143.865 232.936 143.76C232.817 143.925 232.667 144.043 232.485 144.112C232.051 144.207 232.049 144.655 231.479 144.556C231.453 145.218 231.913 144.842 232.266 145.082C231.377 145.678 231.784 144.992 231.285 145.003C231.161 144.828 230.989 144.759 230.769 144.797C230.488 144.87 230.229 144.99 229.992 145.158C229.77 145.392 229.579 145.404 229.421 145.194C229.269 145.042 229.084 144.947 228.865 144.912C227.989 145.054 227.745 145.442 226.759 145.379C225.35 145.288 223.826 145.66 222.439 145.464C221.58 145.343 220.144 143.993 219.754 145.309C219.16 144.333 218.213 143.669 217.645 142.672C220.294 142.519 222.943 142.337 225.596 142.241C227.918 142.157 230.458 142.419 232.627 142.309C234.66 142.207 236.813 141.982 238.888 141.796C241.088 141.6 241.816 142.083 241.029 144.294ZM171.9 144.455C172.862 144.721 173.778 144.117 174.711 144.308C175.02 144.371 175.659 144.933 175.799 144.944C176.056 144.964 176.811 144.413 177.135 144.339C179.185 143.872 181.668 143.922 183.717 144.209C184.803 144.36 184.969 143.863 185.917 143.622C186.902 143.371 188.302 143.564 189.34 143.495C191.78 143.332 194.22 143.448 196.643 143.27C199.132 143.086 201.608 142.987 204.097 142.859C205.793 142.772 209.868 141.804 211.274 143.063C212.433 144.101 210.94 145.904 209.78 146.315C208.913 146.622 208.498 145.975 207.854 146.037C207.122 146.107 207.377 146.973 206.723 146.17C206.318 146.968 203.77 146.628 203.039 146.681C201.448 146.796 200.102 147.115 199.019 145.631C199.092 146.058 199.166 146.487 199.239 146.915C197.803 146.147 196.262 146.393 195.015 146.661C194.398 146.793 192.503 147.708 191.834 147.314C191.374 147.042 192.185 146.578 191.408 146.346C191.001 146.224 190.299 146.9 189.802 146.866C188.426 146.771 188.816 145.846 187.465 147.024C187.007 146.628 186.855 145.955 186.915 145.378C185.933 146.215 186.015 147.611 184.26 147.355C183.606 147.26 183.486 146.593 183.145 146.47C182.418 146.207 182.336 146.679 181.706 147.052C181.469 147.193 181.179 147.42 180.899 147.448C180.325 147.505 180.234 147.241 180.155 147.25C179.773 147.292 179.291 147.486 178.837 147.348C178.43 147.223 178.311 146.505 177.594 146.672C176.907 146.833 176.902 147.3 177.026 147.998C176.349 147.927 175.94 147.55 175.433 147.142C174.922 148.335 173.846 147.347 173.25 148.353C172.475 147.427 171.977 147.682 171.015 146.777C171.062 147.155 171.109 147.532 171.157 147.91C170.406 147.765 170.072 147.236 169.431 147.936C168.809 146.778 166.924 148.428 165.956 147.309C165.524 148.726 162.669 148.387 161.463 148.412C160.394 148.434 159.603 148.346 158.558 148.594C157.635 148.814 156.356 149.041 155.488 148.941C154.921 148.875 154.301 148.771 153.595 148.848C152.576 148.959 151.697 149.486 150.641 149.237C149.053 148.861 148.079 146.774 149.848 145.858C151.059 145.23 153.241 145.462 154.574 145.347C156.782 145.155 159.258 144.752 161.469 144.935C163.194 145.078 164.767 144.666 166.527 144.493C167.852 144.362 170.024 144.126 170.888 145.439C171.22 145.056 171.186 144.257 171.9 144.455ZM147.721 162.432C147.484 161.25 157.582 160.6 158.584 160.523C160.688 160.361 162.798 160.245 164.908 160.191C166.641 160.147 168.259 160.478 169.994 160.212C171.613 159.964 173.568 159.454 174.978 160.601C175.185 159.033 181.263 159.797 182.42 159.801C187.453 159.819 192.27 159.831 197.14 159.519C199.922 159.341 202.877 159.101 205.66 159.24C206.916 159.303 207.926 159.638 209.175 159.347C209.989 159.158 210.866 158.764 211.645 159.321C212.556 159.973 212.946 162.187 212.318 163.111C211.861 163.785 211.456 163.71 210.725 163.594C209.602 163.415 208.768 163.155 207.623 163.612C207.808 163.537 206.856 163.75 206.935 163.744C205.637 163.841 203.858 164.747 202.741 163.703C203.189 163.781 203.839 162.982 203.275 162.916C202.851 162.867 202.582 163.321 202.251 163.473C201.119 163.994 200.54 163.831 199.864 162.739C198.501 163.919 198.354 163.592 197.756 162.139C197.295 162.494 197.196 163.333 196.834 163.609C196.78 163.65 197.003 164.16 196.741 164.138C196.498 164.119 196.419 163.721 196.232 163.689C196.113 163.669 196.05 163.32 195.936 163.299C195.812 163.276 195.685 163.499 195.545 163.492C195.17 163.474 194.099 164.272 194.483 163.153C193.916 163.875 193.672 163.415 193.467 162.758C192.812 163.256 192.157 163.754 191.501 164.252C191.197 163.405 190.672 163.635 190.013 163.931C190.212 163.343 190.087 162.786 189.588 163.195C189.299 163.432 189.106 164.184 188.81 164.503C187.614 163.292 187.179 163.624 185.526 163.782C184.895 163.842 184.111 163.958 183.548 163.577C183.052 163.242 182.772 162.013 181.925 163.006C182.114 162.785 181.818 164.482 181.766 164.751C181.392 164.499 181.075 164.189 180.813 163.822C180.326 164.787 179.046 163.921 177.997 164.118C176.345 164.429 174.642 164.952 173.184 163.723C173.08 164.12 171.886 164.625 171.884 164.641C171.955 163.938 172.398 164.185 171.493 164.052C171.326 164.027 171.137 164.327 170.98 164.36C170.44 164.471 169.81 164.365 169.266 164.35C167.004 164.285 164.932 164.786 162.698 164.968C161.945 165.029 161.052 165.149 160.344 164.865C159.616 164.572 159.636 164.24 158.899 164.429C159.132 164.369 158.439 165.098 158.476 165.07C158.377 165.142 157.964 164.787 157.817 164.814C157.774 164.969 157.731 165.124 157.688 165.28C157.511 165.258 157.333 165.236 157.156 165.214C156.67 165.279 156.231 164.788 155.775 164.771C155.859 164.774 154.543 165.264 154.603 165.294C153.685 164.836 153.948 164.968 152.783 165.247C151.682 165.511 150.585 165.449 149.455 165.614C146.168 166.091 148.126 164.444 147.721 162.432ZM144.818 178.866C144.2 177.989 145.845 177.686 146.37 177.609C147.234 177.481 148.38 177.735 148.956 177.597C149.833 177.389 150.679 176.891 151.666 176.756C152.911 176.586 154.167 176.558 155.417 176.452C155.834 176.416 156.35 176.273 156.755 176.297C157.359 176.333 157.609 176.652 158.097 176.654C158.927 176.659 159.951 176.135 160.802 176.038C161.891 175.915 162.991 175.857 164.086 175.803C166.393 175.688 168.676 175.736 170.981 175.733C172.032 175.732 174.833 174.64 175.357 175.864C176.086 174.937 177.956 175.063 178.998 175.036C180.834 174.989 182.651 174.812 184.485 174.727C186.056 174.654 187.811 174.99 189.354 174.754C190.204 174.625 190.485 174.352 191.449 174.475C192.166 174.566 193.257 174.188 193.872 174.355C193.84 174.346 194.639 174.841 194.39 174.857C194.665 174.839 194.648 175.031 194.951 174.946C195.349 174.834 195.166 174.334 195.99 174.156C197.275 173.879 198.989 174.2 200.325 174.129C201.62 174.06 202.913 174.03 204.21 174.036C204.807 174.039 205.545 173.896 206.126 174.013C206.411 174.07 207.015 174.441 207.256 174.404C207.94 174.297 208.288 173.822 209.212 173.852C210.259 173.885 211.201 173.87 212.243 173.791C213.251 173.714 213.413 173.57 213.912 174.408C214.408 175.241 214.544 176.324 213.633 176.89C214.225 176.851 214.953 177.644 214.256 178.083C213.824 178.354 212.96 177.742 212.443 177.786C211.807 177.841 211.308 178.177 210.616 178.198C209.888 178.22 209.149 178.403 208.431 178.417C207.684 178.432 207.119 178.098 206.409 178.24C205.785 178.365 205.72 178.877 204.968 178.428C204.595 178.204 204.532 177.377 204.023 177.369C203.34 177.359 203.612 178.241 203.22 178.649C203.114 177.388 202.141 179.475 201.754 177.944C201.397 178.452 200.076 179.163 199.436 178.755C198.853 178.383 199.047 177.541 198.804 176.934C198.399 178.024 197.314 179.156 197.412 177.17C196.885 177.819 195.46 177.717 195.817 178.852C195.388 178.844 195.286 178.231 194.925 178.184C194.613 178.145 194.365 178.384 194.317 178.381C194.488 178.395 193.806 178.622 193.796 178.624C194.258 178.53 192.464 178.37 192.769 178.373C192.353 178.37 191.844 178.71 191.357 178.709C190.914 178.708 190.473 178.534 190.035 178.484C188.901 178.354 189.137 178.603 188.425 178.96C188.161 179.092 188.094 179.315 187.72 179.287C187.443 179.267 187.34 178.906 187.308 178.903C186.92 178.864 187.207 178.733 186.603 178.793C186.534 178.913 186.465 179.031 186.396 179.15C186.178 179.429 185.895 179.499 185.548 179.36C184.654 179.552 181.691 180.382 181.982 178.844C181.528 179.066 181.074 179.288 180.62 179.51C180.425 178.27 177.958 179.914 177.407 179.997C176.701 180.103 176.635 179.832 175.967 179.688C175.846 179.662 175.605 180.059 175.323 180.002C174.589 179.855 174.459 179.782 174.333 178.985C173.81 179.963 173.376 179.526 172.427 179.686C172.218 179.722 172.084 180.135 171.782 180.064C171.565 180.012 171.559 179.616 171.41 179.564C171.275 179.518 171.295 179.205 171.097 179.161C170.87 179.109 170.094 179.745 169.871 179.843C169.369 180.065 168.545 180.431 168.055 180.321C167.449 180.186 167.719 179.737 166.863 179.787C165.512 179.866 164.949 181.016 164.109 179.205C163.73 179.93 163.778 180.127 163.169 180.366C162.719 180.543 161.579 180.358 160.987 180.337C158.456 180.243 155.968 181.105 153.458 180.88C152.355 180.78 151.425 180.56 150.312 180.74C149.142 180.93 147.998 181.209 146.812 181.321C146.208 181.378 144.948 181.552 144.652 180.78C144.391 180.101 145.363 179.638 144.818 178.866ZM149.781 206.708C146.499 208.903 143.781 211.902 140.767 214.441C137.745 216.987 135.347 219.816 132.63 222.635C130.117 225.241 127.809 227.706 124.772 229.675C122.85 230.922 121.135 232.456 119.161 233.631C117.682 234.511 115.442 235.668 116.163 232.977C116.903 230.218 118.268 227.43 119.453 224.853C121.139 221.191 122.837 217.563 124.66 213.97C125.346 212.621 125.729 211.277 126.816 210.202C127.998 209.031 128.826 207.503 130.122 206.398C135.569 201.747 143.778 205.34 149.781 206.708ZM160.078 208.284C158.589 209.065 156.922 209.258 155.345 209.774C154 210.214 152.75 210.996 151.303 211.054C152.62 210.065 153.751 208.722 155.235 207.972C156.904 207.128 158.42 207.743 160.078 208.284ZM225.429 214.789C219.952 212.941 214.854 210.218 209.519 208.026C208.599 207.648 201.397 205.276 201.543 204.147C206.59 203.223 211.787 201.636 216.846 203.366C221.448 204.94 225.191 208.715 228.753 211.874C229.683 212.698 235.431 216.452 234.917 217.647C234.56 218.476 231.791 218.25 231.137 218.08C230.292 217.86 229.805 217.347 229.142 216.784C228.034 215.842 226.809 215.254 225.429 214.789ZM215.319 183.915C216.151 183.15 216.649 181.989 217.443 181.282C218.464 180.374 220.112 180.817 221.228 181.288C224.577 182.703 227.439 185.082 230.767 186.559C234.455 188.195 237.648 190.382 240.975 192.635C244.016 194.695 247.304 196.401 250.408 198.366C253.571 200.37 257.111 201.672 260.318 203.605C263.581 205.572 266.831 207.546 269.967 209.714C275.558 213.579 281.38 217.547 285.517 223.042C287.643 225.867 289.633 229.07 291.193 232.242C292.612 235.125 294.15 239.127 292.312 242.127C290.547 245.007 287.539 247.276 284.992 249.425C284.028 250.238 283.111 251.227 281.861 251.58C280.34 252.009 278.566 251.89 277.003 252.017C268.643 252.695 260.854 252.055 252.615 250.56C244.671 249.118 236.694 248.311 228.689 247.309C224.173 246.744 219.658 246.085 215.203 245.144C213.299 244.742 211.362 244.278 209.498 243.729C207.871 243.25 206.502 242.196 204.829 241.779C197.729 240.005 189.604 239.327 182.574 236.345C188.795 233.759 195.406 232.198 201.782 230.049C208.493 227.788 215.047 225.891 222.12 225.249C225.76 224.918 229.017 223.989 232.518 223.016C235.855 222.089 239.338 221.804 242.765 221.389C244.289 221.204 248.639 221.481 249.144 219.489C249.896 216.523 245.623 216.18 243.801 216.446C241.216 216.823 239.085 217.468 237.107 215.348C235.088 213.182 233.125 210.966 231.069 208.828C227.257 204.864 223.327 200.28 217.938 198.501C211.363 196.332 203.739 198.391 197.179 199.625C190.25 200.928 183.332 202.176 176.533 204.07C173.717 204.854 170.086 206.582 167.164 206.304C164.284 206.03 161.022 205.559 158.239 204.729C156.979 204.353 155.944 203.657 154.817 203.007C153.352 202.163 151.747 201.622 150.192 200.965C147.047 199.638 143.982 198.416 140.59 197.894C137.733 197.455 134.699 197.194 131.931 198.196C129.215 199.178 126.808 201.179 124.913 203.316C122.855 205.638 121.153 208.239 119.466 210.833C118.656 212.078 117.668 213.165 116.829 214.382C116.124 215.404 115.713 216.54 114.968 217.533C113.3 219.756 112.168 222.599 111.157 225.185C110.034 228.057 108.786 231.472 109.054 234.596C109.156 235.777 109.262 237.341 109.718 238.436C110.299 239.829 111.128 239.793 112.322 240.319C114.374 241.221 114.949 243.715 117.6 243.229C120.087 242.773 122.244 240.724 124.058 239.09C126.423 236.962 128.686 234.717 130.949 232.481C133.271 230.186 135.56 227.641 137.407 224.941C138.134 223.878 138.701 222.678 139.56 221.71C140.655 220.477 141.883 220.329 143.37 219.838C156.365 215.544 169.423 211.402 182.825 208.567C186.035 207.888 189.272 207.012 192.426 206.108C195.771 205.149 197.503 206.162 200.264 207.987C206.032 211.801 212.849 214.487 219.272 216.975C221.294 217.758 224.513 217.808 226.094 219.353C216.724 220.781 207.794 223.53 198.756 226.267C194.3 227.616 189.792 228.786 185.319 230.076C180.845 231.367 176.54 233.04 172.127 234.495C167.735 235.943 163.094 236.534 158.659 237.87C154.132 239.234 149.624 240.172 144.977 241C140.285 241.838 135.626 242.804 130.918 243.553C128.762 243.896 126.607 244.252 124.475 244.724C122.39 245.187 120.374 246.293 118.278 246.549C108.916 247.695 99.7381 250.247 90.4128 251.689C83.4498 252.766 71.3363 254.269 66.8211 247.283C62.2807 240.258 67.8511 232.063 72.8212 227.04C75.9099 223.918 79.3809 221.171 83.0224 218.726C86.9197 216.11 90.6693 213.286 94.5673 210.674C103.389 204.762 112.954 199.941 122.432 195.191C126.981 192.911 131.376 190.466 135.801 187.964C137.997 186.722 139.213 188.726 140.949 190.088C142.314 191.16 144.822 193.801 146.733 192.58C146.806 193.019 146.88 193.459 146.953 193.899C147.513 193.644 148.073 193.389 148.632 193.134C149.008 194.119 148.964 194.732 150.014 195.249C150.659 195.568 152.035 195.95 152.65 195.39C152.776 195.78 152.901 196.169 153.026 196.558C153.564 196.517 153.668 194.979 153.769 194.619C154.69 195.964 155.964 197.089 157.583 197.469C157.591 197.381 157.32 196.276 157.331 196.269C157.844 195.955 158.49 197.298 158.761 197.586C159.662 198.539 160.199 198.391 161.193 197.622C161.266 197.7 161.602 198.579 161.651 198.563C161.867 198.495 162.275 197.716 162.32 197.645C162.258 198.669 164.235 198.875 164.933 198.656C164.776 198.355 164.619 198.056 164.463 197.756C166.895 197.431 167.849 200.014 170.183 199.883C171.909 199.786 170.525 199.409 171.501 198.67C172.354 198.024 172.507 199.436 172.59 199.392C172.753 199.221 172.879 199.025 172.969 198.804C173.284 200.014 175.798 201.099 175.538 199.11C176.527 199.505 177.229 200.162 178.323 200.301C179.653 200.469 181.074 200.187 182.401 200.077C185.26 199.839 187.955 199.255 190.533 197.946C192.061 197.169 193.687 196.464 195.124 195.527C196.326 194.743 198.606 192.363 200.207 193.388C199.797 192.179 201.727 193.299 201.788 191.742C202.098 191.975 202.408 192.209 202.718 192.442C202.904 192.035 202.852 191.393 203.101 191.038C203.443 190.55 203.61 190.837 203.901 190.563C204.227 190.256 204.512 189.433 204.903 189.199C205.306 188.958 205.78 189.246 206.213 189.035C206.873 188.714 209.713 185.583 209.232 188.266C210.453 187.851 209.512 187.472 209.664 186.658C209.97 185.028 210.716 186.201 211.459 186.344C212.675 186.577 212.65 185.571 213.328 184.841C213.948 184.173 215.112 183.875 214.71 182.716C215.168 182.963 215.266 183.446 215.319 183.915ZM142.017 149.093C141.059 150.16 140.342 149.704 139.277 149.548C139.162 149.166 138.968 149.113 138.693 149.389C138.377 149.57 138.038 149.69 137.674 149.747C136.801 149.962 135.894 149.87 135.039 150.196C135.064 149.91 135.364 149.402 135.172 149.111C134.273 149.732 133.716 150.128 132.613 150.14C131.719 150.149 130.15 149.466 129.408 150.282C129.385 149.965 129.362 149.647 129.339 149.329C128.976 149.51 128.659 149.753 128.39 150.057C128.339 149.586 128.311 149.23 127.999 148.849C127.409 150.064 126.762 150.092 125.615 149.628C125.775 149.693 124.466 148.926 124.516 149.138C124.102 147.394 130.637 147.538 131.323 147.469C133.036 147.296 134.749 147.196 136.465 147.038C138.092 146.888 139.306 146.635 140.433 147.992C139.931 146.031 144.679 146.129 142.017 149.093ZM67.096 118.682C67.276 121.647 67.9358 124.798 66.7831 127.651C65.8563 129.945 64.0077 132.535 62.0163 134.032C57.9387 137.096 54.4824 133.346 53.9149 129.225C53.3233 124.926 54.496 119.674 58.1974 117.023C60.4091 115.44 62.5507 115.55 65.0971 116.07C65.6951 116.193 66.666 116.146 67.0079 116.74C67.0881 116.879 67.0162 118.679 67.096 118.682ZM121.253 158.181C120.549 158.537 119.812 158.745 119.191 159.229C118.975 159.397 118.902 159.78 118.673 159.921C118.256 160.178 117.661 160.008 117.227 160.22C116.508 160.571 115.993 161.074 115.139 161.397C113.87 161.878 112.758 162.537 111.56 163.162C109.562 164.204 107.419 165.098 105.331 165.946C104.277 166.374 101.362 167.208 101.463 168.751C101.227 168.814 100.986 168.299 100.494 168.34C99.8176 168.396 98.9247 169.178 98.2232 169.37C96.9108 169.729 95.8947 169.761 95.8947 171.434C95.4771 171.15 95.3709 170.456 94.8151 170.364C94.1896 170.26 93.9264 170.935 93.4259 171.145C92.8365 171.392 92.1037 171.155 91.52 171.418C91.2647 171.688 90.9811 171.924 90.6689 172.125C90.3515 172.161 90.0355 172.152 89.7211 172.095C88.4821 172.358 87.3418 172.824 86.0998 173.066C84.8895 173.303 84.0607 173.389 84.5694 174.82C83.2747 175.073 82.9584 173.699 81.4976 174.202C79.707 174.817 78.0335 175.261 76.1641 175.637C75.211 175.828 74.2149 176.256 73.2546 176.356C72.5696 176.428 71.9302 176.183 71.2557 176.259C70.4427 176.35 69.7893 176.727 68.9481 176.741C68.1501 176.755 67.3122 176.612 66.5285 176.471C66.6392 176.786 66.7778 177.089 66.9443 177.379C66.4024 177.266 66.1523 176.614 65.6929 176.518C65.2109 176.417 64.7789 176.914 64.3775 176.804C64.2065 176.757 64.3202 176.23 64.0145 176.129C63.7358 176.038 63.6183 176.145 63.3419 176.102C63.2496 176.088 62.0935 176.025 61.9094 176.122C61.5874 176.293 61.9131 176.613 61.8491 176.661C60.7619 177.465 60.7487 177.031 60.2641 176.19C59.5523 174.957 58.6941 175.735 57.4005 175.519C55.959 175.279 54.8232 175.915 53.4043 175.824C51.8738 175.727 50.0753 174.582 48.7222 173.913C45.8003 172.469 42.9511 171.102 40.4973 168.915C35.7004 164.639 31.7979 159.381 29.497 153.361C27.0247 146.894 26.5562 140.15 26.7547 133.289C26.8741 129.162 27.2043 125.039 27.8547 120.961C28.3024 118.156 28.3962 113.171 31.5588 111.894C32.1025 118.461 30.3868 125.154 31.4687 131.68C31.7945 133.645 32.5891 136.264 34.0928 137.72C36.3191 139.874 36.8399 136.76 37.0414 135.039C37.4161 131.844 38.1124 128.666 38.6054 125.485C39.0979 122.306 39.4459 119.091 40.1309 115.946C40.3806 114.799 42.3945 106.4 43.8726 106.798C43.5736 112.908 42.7794 118.913 42.7481 125.046C42.7357 127.505 42.5154 130.104 42.8705 132.547C43.0532 133.804 44.1983 137.495 46.1679 137.187C47.9905 136.902 45.9867 134.303 45.8165 133.301C45.3657 130.648 45.9404 127.347 46.3607 124.713C47.156 119.729 48.9305 114.625 51.8309 110.46C54.4286 106.731 58.4282 103.181 63.2466 103.839C65.3054 104.12 66.9115 104.631 67.946 106.511C68.7575 107.986 71.9547 109.663 70.1019 111.51C68.4152 113.191 65.6872 111.845 63.8122 111.444C61.5166 110.954 59.0564 111.544 57.1366 112.889C53.8426 115.197 51.9653 119.322 51.3526 123.191C50.5268 128.408 52.7343 142.064 60.8651 139.003C66.2664 136.97 70.3346 129.656 69.8812 124.057C69.6993 121.816 68.823 117.56 71.9242 116.955C75.8971 116.18 76.4582 120.56 76.056 123.406C75.4712 127.545 73.2833 131.395 70.7801 134.668C68.5986 137.521 66.0612 139.304 63.436 141.66C62.6588 142.358 60.6764 143.926 61.0093 145.223C61.3742 146.645 64.4897 147.049 65.7373 147.283C71.9087 148.438 78.8684 147.375 85.0292 146.569C97.6918 144.911 110.188 140.827 120.571 133.318C120.991 137.964 121.519 142.594 121.714 147.257C121.808 149.52 121.833 151.817 122.091 154.067C122.251 155.452 122.826 157.387 121.253 158.181ZM86.142 174.37C85.6449 174.629 86.1823 173.057 86.0441 173.577C86.7867 173.843 86.8195 174.108 86.142 174.37ZM138.67 118.146C139.459 117.276 141.615 115.207 142.299 117.17C142.554 116.333 142.587 115.094 143.57 116.224C143.961 114.835 148.278 114.966 149.347 114.904C152.771 114.708 156.208 114.604 159.62 114.264C166.63 113.565 173.762 113.925 180.798 113.902C182.321 113.897 183.841 113.815 185.353 114.036C186.813 114.249 188.347 114.848 189.834 114.629C191.157 114.434 192.024 114.07 193.385 114.226C195.014 114.412 196.596 114.545 198.239 114.539C205.508 114.513 212.774 114.807 220.044 114.819C221.461 114.821 223.159 114.544 224.488 115.146C224.981 115.369 225.519 116.111 225.895 116.193C226.327 116.286 226.07 115.613 226.647 115.917C227.42 116.324 226.822 117.574 226.311 117.772C226.617 117.653 225.759 117.537 225.845 117.532C225.438 117.554 225.091 117.866 224.654 117.846C223.988 117.817 223.431 117.411 222.894 117.054C222.885 117.2 223.18 118.173 222.843 118.222C222.554 118.265 222.282 117.305 222.253 117.082C220.627 118.516 218.903 117.717 216.885 117.899C215.453 118.027 212.468 118.983 211.47 117.488C211.428 117.806 211.3 118.084 211.087 118.323C210.802 118.757 210.555 118.72 210.347 118.211C210.276 118.214 209.581 118.365 209.567 118.364C209.078 118.325 208.443 118.15 207.945 118.107C207.175 118.041 207.317 118.602 206.703 118.611C206.368 118.616 205.513 118.132 204.928 118.102C203.916 118.049 202.882 118.478 201.883 118.348C201.196 118.259 200.574 117.699 199.9 117.678C199.059 117.65 198.787 118.291 198.121 117.39C197.984 117.353 197.9 117.883 197.846 117.892C197.859 117.89 197.212 117.986 197.135 118.015C197.002 118.066 196.485 118.303 196.328 118.306C195.988 118.312 195.803 118.069 195.443 118.063C194.847 118.053 192.944 118.578 192.997 117.475C190.869 118.263 189.054 117.956 186.87 118.142C185.868 118.228 185.239 118.094 184.286 117.91C183.092 117.679 182.299 117.969 181.108 118.027C179.964 118.084 179.604 117.6 178.638 117.163C178.257 116.99 178.005 116.763 177.538 116.859C177.272 116.913 177.461 117.362 177.383 117.393C176.972 117.551 176.685 117.383 176.123 117.422C175.084 117.492 174.67 118.361 173.602 117.546C173.957 117.503 174.312 117.459 174.667 117.416C173.646 116.983 172.298 116.762 172.546 118.339C171.675 118.216 172.429 117.623 172 117.411C171.572 117.199 171.093 117.554 170.554 117.729C169.13 118.191 167.942 117.962 166.458 117.879C164.77 117.785 160.823 119.161 159.615 117.374C159.579 117.751 159.175 118.8 158.637 118.751C158.461 118.734 158.95 117.621 159.006 117.503C158.729 118.093 157.464 118.205 156.841 118.511C156.911 118.194 156.98 117.877 157.05 117.56C156.472 118.176 156.19 117.8 155.51 118.006C155.212 118.096 154.781 118.71 154.527 118.747C154.23 118.403 153.857 118.255 153.409 118.303C153.11 118.228 152.811 118.214 152.513 118.259C151.318 118.346 150.229 119.01 149.04 118.558C148.011 118.166 147.613 117.158 147 118.762C146.838 118.477 146.677 118.191 146.516 117.906C146.317 118.216 146.118 118.525 145.918 118.834C145.14 118.325 145.092 118.029 144.196 118.217C143.986 118.3 143.77 118.289 143.55 118.181C143.497 118.339 143.444 118.495 143.392 118.652C143.37 119.047 143.253 119.177 143.04 119.043C142.861 118.979 142.699 118.881 142.555 118.75C141.962 118.795 141.205 118.951 140.569 118.865C140.323 118.832 138.784 118.02 138.67 118.146ZM156.806 107.532C156.876 107.639 156.946 107.746 157.015 107.853C156.053 108.361 155.827 108.07 155.728 107.049C156.198 107.058 156.278 107.885 156.806 107.532ZM157.402 106.933C157.865 107.138 158.397 107.539 158.833 107.001C159.127 107.855 156.945 109.02 157.402 106.933ZM160.395 107.31C161.367 107.968 159.034 107.439 159.038 107.44C159.457 107.053 159.909 107.01 160.395 107.31ZM168.761 103.644C169.095 105.327 170.015 105.28 171.5 104.497C173.666 103.356 174.031 101.487 174.182 99.2553C174.327 97.1156 174.589 96.2873 176.795 96.7341C178.336 97.0459 179.638 96.7838 181.191 96.7409C182.848 96.6952 183.432 96.9482 183.565 98.6532C183.699 100.36 184.002 101.657 185.241 102.956C186.501 104.277 188.18 105.065 189.817 105.804C190.659 106.184 191.449 106.593 192.38 106.675C192.741 106.707 194.619 106.469 194.658 107.064C194.688 107.51 192.087 108.771 191.811 108.921C190.605 109.577 189.402 110.165 188.084 110.563C185.053 111.477 181.839 111.531 178.699 111.476C173.637 111.387 166.641 109.246 163.614 104.754C165.33 104.384 167.045 104.014 168.761 103.644ZM168.307 89.0678C167.506 88.3956 166.987 87.3802 166.322 86.5843C165.986 86.1828 165.741 86.0549 165.421 85.854C165.085 85.6425 164.895 85.9418 164.615 85.4445C163.89 84.1592 166.127 82.3506 163.754 81.8559C162.952 81.6881 161.02 82.3242 160.786 81.1742C160.454 79.5481 163.558 79.4417 164.288 78.6164C165.741 76.9756 164.755 74.1938 165.639 72.3007C166.476 70.5075 168.638 70.1889 170.343 69.6502C172.72 68.8999 175.125 68.4648 177.538 67.8641C179.226 67.4445 182.029 65.758 183.593 67.2481C181.179 67.7842 182.582 68.6258 184.192 69.1008C186.015 69.6392 187.947 69.8492 189.836 69.9993C191.781 70.1535 193.762 70.1829 195.684 69.7953C197.46 69.4368 199.445 67.8924 201.308 68.2879C200.274 70.0853 197.195 71.0671 195.324 71.538C194.37 71.7778 193.76 71.7027 193.888 72.8915C194.012 74.0437 195.013 75.199 195.24 76.3991C195.539 77.9875 195.277 79.447 194.712 80.9408C194.156 82.4105 194.026 82.6024 194.512 84.0069C195.269 86.1937 193.641 88.6105 192.137 90.1985C186.053 96.6194 174.408 94.1872 168.307 89.0678ZM183.768 50.6925C183.772 50.7332 183.792 50.7581 183.768 50.6925V50.6925ZM185.663 66.8967C185.411 67.0852 183.958 67.4803 184.018 66.9125C184.1 66.1516 185.409 66.4265 185.663 66.8967ZM188.974 51.5269C188.634 51.2727 187.679 51.3772 188.377 50.4138C188.604 50.8376 188.79 51.1822 188.974 51.5269ZM166.058 45.4374C166.493 44.3081 166.974 43.2577 167.17 42.0557C167.291 41.3152 167.05 40.4696 168.085 40.3534C166.766 39.7781 166.753 37.5072 166.675 36.3301C166.568 34.7088 166.056 32.5383 166.768 31.0294C167.5 29.4794 168.486 29.505 168.784 31.351C168.901 32.0737 168.455 32.3075 168.371 32.8109C168.205 33.8066 168.535 33.5883 169.177 32.8297C169.442 33.6007 169.544 34.7594 170.623 34.7104C170.551 34.5019 170.138 34.0419 170.276 33.7828C170.488 33.3851 171.525 33.9929 171.656 34.0849C172.603 34.7469 172.808 35.3513 172.133 36.1864C173.068 36.2871 172.283 37.1053 172.887 37.3187C173.807 37.6441 173.19 36.1024 173.09 35.8313C173.65 36.05 173.838 36.2996 174.193 36.7422C174.401 37.0476 174.591 37.3647 174.762 37.6927C174.952 38.2914 175.345 38.4415 175.94 38.1429C177.132 38.5169 178.778 38.4585 179.847 39.1122C180.335 39.4108 180.511 40.0642 180.919 40.3123C181.377 40.5917 181.992 40.465 182.485 40.6404C182.304 41.0498 182.451 41.2715 182.922 41.3062C183.288 41.3398 183.643 41.4223 183.986 41.5535C184.243 41.3601 184.522 41.2074 184.823 41.0962C185.026 41.4532 185.312 41.5415 185.683 41.3616C186.782 41.5675 187.31 41.9834 188.009 42.6051C188.636 43.1631 188.126 43.2083 188.813 43.1589C189.089 43.139 189.573 42.6707 190.204 42.7619C190.568 42.8328 190.918 42.9448 191.256 43.0979C191.621 43.41 192.008 43.4493 192.418 43.2159C193.084 43.5413 193.149 44.1177 193.961 44.1965C194.859 44.284 194.57 43.165 195.186 44.7432C196.016 43.07 196.32 45.7356 197.178 45.9509C198.065 46.1741 198.161 45.4543 198.921 46.2408C199.149 46.4765 199.136 46.866 199.392 47.1159C199.811 47.525 200.378 47.4432 200.742 48.0012C200.539 47.6898 200.79 49.1048 200.786 49.058C200.842 49.6824 200.287 50.3818 201.424 50.3286C201.411 50.3942 200.865 51.1902 200.759 51.1C200.733 51.0092 200.711 50.9172 200.693 50.8241C200.571 50.8765 200.517 51.6347 200.54 51.7685C200.636 51.7836 200.676 51.712 200.658 51.5536C200.471 52.1384 200.753 52.5098 200.394 53.0648C200.164 53.4196 199.536 53.6861 199.201 53.9052C198.395 54.4338 197.606 54.9639 196.82 55.5264C194.987 56.8385 192.933 58.4206 190.624 58.6943C191.784 57.5556 198.456 53.2465 195.11 52.0095C194.489 51.7802 193.359 51.563 192.71 51.5148C191.902 51.4548 191.068 51.9171 190.177 51.6287C189.103 51.281 189.507 50.271 188.851 49.9086C187.457 49.1398 187.786 50.9477 187.348 51.4213C186.887 50.9375 186.985 50.7023 186.258 50.6585C185.519 50.614 185.343 51.2969 184.481 50.8716C183.293 50.2853 183.922 49.1176 182.237 49.0901C182.265 48.8337 182.51 48.1173 182.188 47.9175C181.755 48.4797 182.09 49.1082 181.688 49.6492C181.487 49.9207 181.05 50.1371 180.731 50.225C179.984 50.4301 179.877 50.8229 179.999 49.6982C179.445 50.6955 177.748 50.2853 176.738 50.185C175.097 50.0217 173.352 49.7111 171.778 49.1847C170.323 48.6976 169.545 47.8609 168.345 47.0997C167.891 46.8117 167.675 46.9217 167.024 46.743C166.381 46.5666 165.756 46.2246 166.058 45.4374ZM169.522 27.7797C169.77 27.6304 169.948 29.8583 169.647 30.2745C169.097 29.4047 168.122 28.1288 169.522 27.7797ZM170.313 26.891C171.11 26.1698 170.557 28.0327 170.41 28.3453C170.115 28.156 169.82 27.9667 169.525 27.7774C169.901 27.5463 169.996 27.1787 170.313 26.891ZM200.38 23.8887C207.743 25.4338 215.039 28.3219 220.944 33.0748C226.323 37.4039 230.119 43.5462 232.248 50.0798C234.457 56.8615 233.715 64.3856 228.459 69.5759C225.69 72.3098 222.033 73.9593 218.548 75.5688C216.878 76.3399 215.159 76.9823 213.483 77.7357C212.279 78.2767 210.809 79.1424 209.435 78.9923C210.136 78.2548 211.153 78.2398 212.001 77.7888C213.026 77.2436 213.863 76.1974 214.747 75.4501C215.624 74.7081 217.569 72.3716 218.917 72.9371C218.73 71.6926 220.148 71.1146 220.787 70.2938C221.463 69.4254 221.512 68.4101 222.757 68.1258C221.419 67.0792 221.829 65.105 222.12 63.6802C222.492 61.858 222.664 60.1851 222.811 58.3308C223.075 54.9877 223.289 50.729 221.441 47.7901C220.842 46.8358 220.079 45.9588 219.544 44.9676C218.9 43.7731 219.042 42.7216 219.042 41.4121C217.864 42.2039 217.615 40.5895 217.117 39.8026C216.744 39.2121 216.253 38.8822 216.132 38.1395C216.045 37.5988 216.631 37.5076 216.31 36.9409C215.916 37.2387 215.758 37.7002 215.559 38.1285C215.194 37.983 215.624 37.4763 215.415 37.3115C215.409 37.307 214.707 37.002 214.742 37.0461C214.29 36.4734 214.144 35.5229 213.923 34.8412C213.095 35.2604 213.25 35.2111 212.327 34.5105C212.164 34.3872 211.351 33.8209 211.275 33.6358C210.918 32.7701 211.544 33.2829 211.369 32.7456C210.866 31.2024 208.044 31.4942 207.821 29.1819C206.444 30.0555 205.92 28.8177 205.106 27.9373C204.273 27.0354 202.874 26.6886 202.949 25.2581C202.516 25.4063 202.083 25.5541 201.651 25.7015C201.875 24.3815 199.915 24.4656 199.204 23.796C199.599 23.8009 199.991 23.8318 200.38 23.8887ZM201.502 105.645C202.184 105.034 201.977 105.846 202.416 105.753C202.792 105.674 202.866 105.39 203.226 105.303C204.71 104.944 206.927 105.395 208.487 105.318C210.294 105.228 213.392 105.603 214.253 107.717C214.771 108.991 213.98 108.557 213.108 108.463C212.431 108.39 211.83 108.527 211.161 108.52C210.83 108.571 210.501 108.566 210.172 108.504C210.012 108.399 209.917 108.25 209.888 108.059C208.957 107.918 207.968 108.469 206.937 108.496C205.561 108.533 204.338 108.269 203.292 107.34C202.877 107.959 202.594 108.266 201.846 108.336C201.826 108.338 201.096 108.044 200.983 108.014C200.834 107.975 200.455 108.289 200.167 108.2C200.679 107.385 200.753 106.314 201.502 105.645ZM295.485 113.002C295.728 112.157 295.931 111.301 296.153 110.45C299.549 114.317 302.522 119.493 303.859 124.453C304.728 127.675 306.081 133.514 301.938 135.176C298.564 136.53 296.683 131.677 295.829 129.286C293.944 124.01 293.944 118.371 295.485 113.002ZM143.516 52.4114C143.559 52.4027 141.317 53.7069 142.056 52.6508C142.353 52.2263 143.478 51.9276 143.977 51.9276L143.516 52.4114ZM141.359 52.9641C141.099 53.1824 140.837 53.3981 140.573 53.6107C140.319 53.2096 140.065 52.8084 139.811 52.4072C140.311 52.1961 142.436 52.0377 141.359 52.9641ZM139.778 93.5134C139.309 93.1956 138.937 93.3645 138.796 93.898C138.796 93.3671 139.072 92.1339 139.497 91.9902C139.772 91.8971 138.585 90.4926 138.918 90.125C139.767 90.611 139.259 91.0767 139.507 91.704C139.62 91.9872 139.957 92.2549 140.031 92.4724C140.156 92.8416 140.662 94.111 139.778 93.5134ZM137.48 90.3531C136.999 90.476 137.84 91.2693 137.84 91.62C137.839 91.885 137.521 92.0886 137.389 92.4513C137.104 93.2374 137.594 93.7683 136.788 94.3682C136.788 92.6459 135.632 88.0823 137.853 87.243C136.77 86.3897 137.66 85.4049 138.509 86.4259C139.325 87.4077 138.805 90.0138 137.48 90.3531ZM136.322 83.5567C135.886 82.0086 134.572 81.4672 133.07 81.5588C133.127 80.7663 133.728 79.6235 134.161 81.0521C134.34 80.6298 134.464 80.0789 134.87 79.7992C135.555 81.9468 138.97 83.1333 136.844 85.4604C136.67 84.8258 136.501 84.1901 136.322 83.5567ZM132.354 81.6742C124.446 82.2476 113.343 83.8885 107.015 77.8269C102.889 73.8745 103.109 67.7194 106.444 63.328C108.346 60.8223 110.944 59.0577 113.553 57.3769C114.56 56.728 115.413 56.2997 116.518 55.9268C116.697 55.9076 116.865 55.9476 117.022 56.0467C117.085 55.7798 117.235 55.5822 117.474 55.4533C117.901 55.2248 118.509 55.1434 118.755 54.6691C118.493 55.5596 118.358 56.4766 118.261 57.398C118.048 57.1499 117.836 56.9019 117.623 56.6538C117.445 58.332 115.697 57.3162 114.653 57.5259C115.34 58.4775 115.832 58.8232 115.891 60.081C115.379 59.1354 114.308 58.5137 113.312 58.209C113.853 59.8084 114.235 60.7578 113.691 62.5118C113.033 62.1362 112.989 61.2344 112.191 61.0183C111.981 62.0642 111.944 63.2247 111.674 64.2397C109.631 63.3081 109.831 65.8172 110.651 67.0588C111.087 67.7194 111.301 68.484 111.69 69.1182C112.645 70.6734 111.919 68.3475 112.981 68.458C112.742 70.0984 112.659 70.2617 113.86 71.4629C115.032 72.6344 115.639 74.2598 116.893 75.3603C117.255 74.8966 116.685 74.4113 116.635 73.9676C117.801 74.1633 118.347 75.3324 119.468 74.2967C119.957 75.2495 120.486 76.2988 121.657 76.4945C120.883 75.0233 123.143 76.0209 123.723 76.2298C124.162 76.3881 124.95 76.5141 125.12 76.5751C126.075 76.9201 125.42 76.301 125.999 77.4318C126.851 77.175 127.172 76.4688 128.19 77.0653C129.017 77.5505 129.019 78.3815 129.208 79.2329C129.406 78.676 129.605 78.1195 129.823 77.5701C130.045 77.6637 130.977 78.6892 130.875 78.6941C133.057 78.587 132.979 79.9413 132.354 81.6742ZM121.25 53.9112C121.688 53.6039 122.223 54.013 122.715 53.9029C123.396 53.751 123.783 53.1677 124.543 53.1051C124.332 53.7815 123.934 53.7182 123.598 54.2494C123.484 54.4304 123.543 54.8647 123.442 54.9688C122.589 55.842 122.295 55.1294 121.424 54.4685C121.5 55.2655 121.653 55.5174 120.902 55.7312C120.223 55.925 119.101 55.2112 118.758 54.6638C119.047 54.0854 120.726 54.2792 121.25 53.9112ZM126.677 52.6655C127.415 52.736 126.526 54.9145 125.467 52.8012C125.866 52.7145 126.269 52.6693 126.677 52.6655ZM130.474 52.2444C131.638 52.0068 135.522 50.8998 135.955 52.7126C136.032 52.6674 136.321 51.6441 136.456 51.7689C136.993 52.2692 137.054 52.9324 137.013 53.6273C136.362 52.273 136.593 53.4625 136.153 53.3698C136.038 53.3453 135.862 53.5602 135.571 53.4716C135.189 53.3551 134.915 52.5426 134.674 52.2673C134.273 52.8404 133.775 53.5783 132.971 53.5285C132.402 53.4935 131.485 52.0283 132.222 53.6322C131.789 53.4893 131.289 53.1658 130.807 53.2307C130.267 53.3034 129.986 53.8362 129.481 53.9222C128.359 54.1122 128.19 53.0331 127.462 52.4472C128.466 52.3888 129.482 52.4464 130.474 52.2444ZM137.519 52.227C137.601 51.8553 138.62 51.7052 138.88 51.8232C139.513 52.1109 139.279 52.4906 139.162 53.1225C138.693 52.9 138.223 52.6779 137.753 52.4555C138.454 53.5851 137.183 53.7491 137.519 52.227ZM334.777 118.394C334.694 115.686 334.615 112.933 333.929 110.297C333.449 108.453 332.269 105.145 330.037 104.825C326.672 104.342 324.808 110.994 323.865 113.277C323.676 110.589 323.841 107.728 322.826 105.176C322.013 103.132 319.959 101.195 318.19 103.491C316.616 105.535 316.314 108.551 315.9 111.01C315.362 114.196 315.04 117.406 314.648 120.612C313.111 117.641 312.842 114.241 311.627 111.153C310.481 108.24 308.677 105.457 306.939 102.866C305.52 100.749 303.793 98.7591 301.57 97.4651C299.635 96.3389 296.251 95.1207 294.406 96.9912C292.867 98.5518 293.108 100.64 293.188 102.609C293.224 103.486 293.361 104.088 292.59 104.53C292.211 104.747 291.619 104.634 291.203 104.751C290.531 104.938 290.017 105.255 289.449 105.677C285.469 108.636 283.634 113.966 283.067 118.719C282.348 124.741 284.695 129.904 286.716 135.414C287.038 136.292 288.06 138.155 287.919 139.135C287.764 140.209 286.416 140.237 285.506 140.259C282.758 140.327 279.887 140.122 277.153 139.866C270.644 139.258 264.141 136.124 258.313 133.326C257.25 132.816 255.745 132.524 254.877 131.72C254.061 130.964 253.846 129.753 253.142 128.886C251.414 126.76 250.312 124.945 247.767 123.66C245.176 122.351 242.531 121.142 240.002 119.709C236.875 117.936 233.986 115.691 230.989 113.706C225.42 110.017 219.888 105.974 213.984 102.838C211.241 101.38 208.174 101.144 205.326 99.9509C202.552 98.7889 199.147 98.7874 196.252 99.5211C194.842 99.8789 193.883 100.726 192.586 101.28C191.066 101.928 189.826 101.212 188.489 100.438C186.446 99.2561 184.42 97.3294 187.33 96.0539C188.317 95.6211 189.554 95.457 190.416 94.7765C191.335 94.0515 192.073 92.7137 192.821 91.8055C194.482 89.7864 195.474 87.462 197.906 86.2065C200.595 84.8179 203.783 84.4401 206.65 83.5326C209.757 82.5496 212.799 81.3808 215.848 80.2331C221.341 78.1655 227.052 75.9331 230.999 71.3815C234.404 67.4547 235.888 62.3862 235.75 57.2382C235.47 46.714 229.832 36.0334 221.743 29.4534C211.825 21.3848 199.207 18.6943 186.679 18.8353C180.799 18.9017 173.782 19.6712 168.876 23.2436C164.638 26.3292 163.933 31.7261 164.564 36.5978C164.819 38.575 165.694 41.184 164.299 42.9263C163.519 43.9009 162.118 44.1423 161.067 44.75C159.746 45.5135 158.581 46.2453 157.085 46.6492C150.73 48.3654 144.036 47.7678 137.538 47.6728C126.713 47.5144 115.618 50.4451 107.543 58.0726C101.022 64.2314 99.0667 75.8452 107.02 81.8495C113.445 86.7 123.524 86.1665 131.101 85.3205C133.45 85.0577 135.066 84.6761 135.071 87.5506C135.077 90.6906 134.557 93.9723 135.358 97.0549C136.62 101.91 141.285 102.025 145.409 100.98C147.585 100.428 149.689 99.5988 151.755 98.7301C154.786 97.4561 157.565 95.5826 160.558 94.3109C162.588 93.449 164.107 96.2364 165.907 94.3041C166.24 93.947 166.301 93.4146 166.803 93.2318C167.589 92.9456 168.908 93.9493 169.597 94.2668C170.63 94.7422 171.671 95.0917 172.083 96.2364C172.469 97.3072 172.3 99.0098 171.93 100.066C171.127 102.362 168.964 101.908 166.99 101.755C163.546 101.487 160.125 100.919 156.682 100.68C153.593 100.466 150.701 101.389 148.037 102.912C142.441 106.111 137.863 111.2 133.011 115.384C130.514 117.538 128.1 119.864 125.384 121.74C124.204 122.555 122.925 123.305 121.899 124.318C120.881 125.323 120.769 126.237 120.42 127.575C119.8 129.957 116.72 131.121 114.795 132.378C112.072 134.155 109.185 135.408 106.133 136.499C99.6692 138.808 93.1544 140.42 86.3966 141.612C83.0879 142.195 79.8068 142.579 76.4658 142.894C73.586 143.166 70.5237 144.052 67.6473 143.344C68.4758 142 69.9437 141.193 71.087 140.155C72.561 138.816 73.8146 137.229 74.9301 135.585C77.1014 132.384 78.6243 128.949 78.9742 125.067C79.2894 121.572 78.9278 117.392 76.8194 114.44C76.0911 113.42 74.6503 113.143 73.9984 112.225C73.3503 111.311 73.5973 109.74 73.2426 108.675C72.3392 105.967 69.6583 102.611 67.299 101.039C64.7394 99.3318 60.995 98.7048 58.0381 99.5943C52.5603 101.242 49.1956 107.096 46.6891 111.827C45.3198 108.946 47.6128 104.671 44.938 102.312C42.6818 100.322 40.8912 104.177 40.1365 105.827C36.5944 113.57 35.79 121.782 34.3059 130.067C33.7011 129.471 34.0111 127.941 34.0679 127.23C34.1737 125.906 34.1639 124.608 34.1666 123.278C34.1737 119.92 34.7981 116.546 34.5119 113.191C34.3466 111.252 33.7282 107.162 30.9103 107.806C28.5205 108.353 27.0236 111.714 26.2727 113.768C25.1896 116.732 24.9396 119.665 25.007 122.796C25.0815 126.255 24.4225 129.657 24.2629 133.111C23.9526 139.82 24.2591 146.472 26.1842 152.947C29.3365 163.55 36.5846 172.36 46.2582 177.68C51.588 180.612 57.5007 182.466 63.5799 182.865C66.8742 183.081 70.0545 182.689 73.3205 182.349C76.5437 182.013 79.7838 181.857 83.0013 181.463C90.1669 180.584 97.1491 178.315 103.662 175.263C107.091 173.656 110.314 171.683 113.687 169.97C115.04 169.283 115.954 168.423 117.109 167.467C118.254 166.52 118.571 166.446 119.872 166.446C119.491 165.424 120.605 165.109 121.101 164.463C121.073 164.776 121.046 165.09 121.018 165.403C121.396 164.583 121.748 164.591 122.074 165.427C122.396 164.491 122.634 163.528 123.023 162.616C124.509 163.368 124.384 165.156 126.372 163.85C128.009 162.776 129.514 161.508 131.182 160.455C134.984 158.056 138.261 154.934 142.073 152.562C142.073 154.872 142.236 157.202 141.927 159.501C141.634 161.686 140.818 163.729 140.169 165.821C138.972 169.681 138.889 173.806 137.563 177.627C137.014 179.21 135.585 180.533 135.176 182.074C134.758 183.645 135.723 184.904 134.105 185.936C132.965 186.664 131.54 186.971 130.277 187.411C128.351 188.082 126.522 189.03 124.647 189.833C115.852 193.602 107.274 197.44 99.1258 202.507C91.3931 207.315 83.5421 212.281 76.4386 217.991C70.2736 222.948 64.0416 229.356 62.5409 237.44C61.0847 245.282 64.9646 253.7 72.7553 256.282C76.8062 257.625 81.3858 257.459 85.6043 257.517C90.1436 257.58 94.9537 256.486 99.4165 255.694C104.13 254.858 108.762 253.55 113.489 252.803C118.024 252.087 122.184 250.486 126.645 249.499C131.396 248.449 136.27 247.879 141.047 246.933C143.198 246.508 145.305 245.88 147.462 245.486C149.823 245.055 152.21 244.893 154.548 244.322C159.084 243.213 163.426 241.426 167.981 240.395C170.029 239.931 172.046 239.31 174.094 238.877C175.981 238.478 177.45 237.418 179.34 238.289C180.867 238.992 182.086 240.198 183.531 241.038C185.406 242.128 187.382 243.105 189.336 244.042C193.263 245.927 197.336 247.229 201.442 248.644C205.755 250.13 209.99 251.825 214.459 252.806C219.039 253.812 223.712 254.092 228.325 254.888C237.771 256.518 247.137 257.249 256.725 257.308C261.572 257.339 266.418 256.764 271.253 256.832C275.534 256.892 279.255 257.857 283.169 255.581C289.424 251.945 296.678 246.468 296.524 238.513C296.385 231.307 292.062 224.423 288.008 218.74C283.085 211.838 276.065 206.978 269.186 202.217C261.853 197.144 253.617 193.638 245.911 189.21C241.97 186.945 238.335 184.508 234.055 182.899C232.012 182.131 230.02 181.24 228.001 180.413C226.376 179.747 224.03 179.38 222.64 178.275C221.772 177.587 221.689 176.543 221.46 175.519C220.953 173.252 220.155 171.102 219.383 168.916C217.891 164.695 216.899 160.396 216.258 155.968C215.647 151.748 214.29 147.359 214.993 143.07C219.615 147.541 224.364 151.838 229.093 156.191C230.865 157.822 232.605 159.487 234.386 161.109C235.724 162.326 237.396 164.134 239.261 164.495C241.642 164.956 240.772 162.322 242.407 161.914C243.406 161.665 246.419 164.204 247.209 164.705C252.216 167.884 257.761 169.898 263.268 172.062C269.043 174.331 274.982 176.346 281.196 176.917C286.936 177.446 292.805 176.768 298.344 175.204C309.375 172.09 317.492 164.701 323.45 155.122C330.237 144.208 335.177 131.422 334.777 118.394Z" fill="#262526"/>
<path fill-rule="evenodd" clip-rule="evenodd" d="M166.187 94.6006C166.185 94.6038 166.168 94.6398 166.168 94.6398C166.189 94.6254 166.195 94.6125 166.187 94.6006Z" fill="#262526"/>
<path fill-rule="evenodd" clip-rule="evenodd" d="M166.718 94.7401C166.677 94.3924 166.587 94.052 166.451 93.7188C166.085 94.2977 165.759 94.5456 166.238 95.1588C166.398 95.0192 166.558 94.8797 166.718 94.7401Z" fill="#262526"/>
<path fill-rule="evenodd" clip-rule="evenodd" d="M192.155 177.483C192.564 177.049 191.849 176.885 191.578 176.879C191.605 177.345 191.374 178.463 192.012 178.679C191.859 178.257 191.907 177.858 192.155 177.483Z" fill="#262526"/>
<path fill-rule="evenodd" clip-rule="evenodd" d="M181.379 86.5345C180.677 87.8902 182.228 88.3107 183.126 87.6558C183.801 87.1635 184.201 85.9083 184.312 85.1029C184.671 82.4969 182.847 80.0166 181.938 77.7044C181.703 77.1067 181.381 75.0571 180.625 75.0006C179.755 74.9359 179.691 76.8238 179.68 77.311C179.646 78.7798 180.035 80.2758 180.491 81.6623C180.982 83.1571 182.199 84.9513 181.379 86.5345Z" fill="#262526"/>
<path fill-rule="evenodd" clip-rule="evenodd" d="M184.718 81.0975C187.417 83.5001 189.575 79.4984 189.387 77.1312C189.34 76.5447 188.944 74.3824 187.831 75.1694C187.272 75.5647 187.749 76.8494 187.483 77.4134C186.192 80.1482 184.949 75.9064 184.08 75.5732C183.023 75.1675 182.917 76.5569 182.918 77.2995C182.921 78.7736 183.622 80.1212 184.718 81.0975Z" fill="#262526"/>
<path fill-rule="evenodd" clip-rule="evenodd" d="M174.924 81.4704C175.559 80.4695 176.341 79.1272 176.427 77.9282C176.561 76.0644 175.475 76.2199 174.581 77.5203C173.95 78.4389 173.476 79.9969 172.082 79.6097C170.362 79.1321 170.887 76.8183 169.924 75.7188C167.491 78.9862 172.095 85.9238 174.924 81.4704Z" fill="#262526"/>
<path fill-rule="evenodd" clip-rule="evenodd" d="M178.57 91.4703C179.576 91.6877 182.2 91.6075 181.291 90.067C180.144 88.1263 176.333 90.9863 178.57 91.4703Z" fill="#262526"/>
<path fill-rule="evenodd" clip-rule="evenodd" d="M213.817 33.5995C214.002 33.0511 213.749 32.9515 213.309 32.5195C212.893 32.9034 213.426 33.3072 213.817 33.5995Z" fill="#262526"/>
<path fill-rule="evenodd" clip-rule="evenodd" d="M232.584 132.941C233.248 133.046 233.462 132.695 233.225 131.887C232.177 131.819 231.964 132.17 232.584 132.941Z" fill="#262526"/>
<path fill-rule="evenodd" clip-rule="evenodd" d="M196.338 48.1967C197.07 48.5314 196.789 49.2182 196.777 49.7987C197.154 49.3888 197.916 48.6396 197.606 48.0508C197.128 47.1432 195.879 47.9873 196.338 48.1967Z" fill="#262526"/>
<path fill-rule="evenodd" clip-rule="evenodd" d="M171.398 36.7724C171.287 36.5547 171.175 36.3369 171.064 36.1191C170.609 36.484 169.907 37.4489 170.63 37.9191C170.926 37.5596 171.182 37.1774 171.398 36.7724Z" fill="#262526"/>
<path fill-rule="evenodd" clip-rule="evenodd" d="M180.184 43.1769C181.095 43.8913 180.658 41.6986 180.63 41.5195C180.495 41.7767 179.724 42.816 180.184 43.1769Z" fill="#262526"/>
<path fill-rule="evenodd" clip-rule="evenodd" d="M179.679 42.0634C179.609 41.8822 179.539 41.7011 179.47 41.5195C179.101 41.8614 178.648 42.5596 179.258 42.9595C179.425 42.6794 179.566 42.3808 179.679 42.0634Z" fill="#262526"/>
<path fill-rule="evenodd" clip-rule="evenodd" d="M185.464 49.5924C185.538 49.661 185.613 49.7297 185.687 49.7988C185.987 49.1926 185.645 48.7373 185.078 48.7188C185.118 49.0591 185.247 49.3503 185.464 49.5924Z" fill="#262526"/>
<path fill-rule="evenodd" clip-rule="evenodd" d="M161.054 117.78C161.415 117.534 161.743 117.253 162.038 116.938C160.969 116.285 161.61 117.702 160.322 116.831C160.045 117.215 160.498 118.073 161.054 117.78Z" fill="#262526"/>
<path fill-rule="evenodd" clip-rule="evenodd" d="M205.996 177.239C206.403 176.615 206.477 176.633 205.921 176.159C205.458 176.931 205.506 176.732 205.996 177.239Z" fill="#262526"/>
<path fill-rule="evenodd" clip-rule="evenodd" d="M120.998 77.9067C121.219 78.1377 121.441 78.3686 121.662 78.5992C121.766 78.2971 122.329 77.4434 121.946 77.1592C121.63 77.4084 121.314 77.6575 120.998 77.9067Z" fill="#262526"/>
<path fill-rule="evenodd" clip-rule="evenodd" d="M128.873 80.191C128.52 80.132 127.674 79.8741 127.479 80.2027C127.996 80.6265 129.163 80.2396 128.873 80.191Z" fill="#262526"/>
<path fill-rule="evenodd" clip-rule="evenodd" d="M60.2898 49.7324C61.1893 48.2681 61.9262 46.715 62.8187 45.2482C63.6668 43.8549 64.7158 42.5306 65.7302 41.2535C66.762 39.9548 67.9471 38.94 69.2272 37.8997C69.9336 37.326 70.6315 36.7417 71.3301 36.1585C71.7577 35.8004 72.1418 35.399 72.7394 35.5516C73.514 35.7495 74.2854 36.3072 75.0116 36.6478C75.7457 36.9921 76.488 37.3181 77.2393 37.6231C78.8722 38.2856 80.5412 38.8537 82.1832 39.4919C83.7558 40.1033 85.279 40.7704 86.9111 41.2192C87.7511 41.4502 88.5983 41.6511 89.4456 41.8523C90.0805 42.0035 91.0433 42.051 91.5415 42.4764C90.0203 43.7139 88.9269 45.3071 88.0223 47.027C87.6662 47.705 87.4425 47.9425 86.7547 47.5365C85.8962 47.0299 85.0532 46.4846 84.2246 45.9315C82.6613 44.8871 81.169 43.737 79.6679 42.6063C78.9565 42.0704 78.3055 41.493 77.6264 40.9304C77.1441 40.5314 76.8048 40.6297 76.3681 41.0331C76.0523 41.3252 75.9271 41.4654 75.4857 41.4952C75.1254 41.5196 74.7735 41.5375 74.4172 41.6072C73.7828 41.7313 73.1747 41.9595 72.6016 42.2575C71.3309 42.9176 70.2312 43.8953 69.1872 44.8632C66.561 47.2995 64.341 50.276 62.6074 53.4051C61.7263 54.9964 60.6456 56.445 59.7954 58.0589C59.42 58.77 59.13 59.7841 58.266 59.9974C57.4205 60.2067 56.4827 60.1866 55.6169 60.2691C55.8855 58.3393 56.6291 56.5277 57.4955 54.7964C58.3586 53.0701 59.2801 51.3768 60.2898 49.7324ZM88.9123 53.4765C89.5287 54.0327 90.1595 54.5687 90.7936 55.1049C88.0644 57.41 86.4423 60.6769 84.7452 63.756C83.9866 65.1333 83.3047 66.5545 82.7278 68.0173C82.1386 69.5141 81.7609 71.0376 81.3321 72.5816C81.2382 72.9185 81.1325 73.4958 80.788 73.6724C80.4065 73.868 79.5916 73.661 79.2023 73.6415C77.6575 73.5636 76.1075 73.5431 74.5669 73.3939C73.0049 73.2427 71.4981 72.8597 69.9223 72.8066C68.3801 72.7543 66.8463 72.6448 65.3159 72.4437C63.8116 72.2468 62.3218 71.9035 60.802 71.8459C59.3603 71.7915 58.0177 72.0439 56.617 72.3406C56.9738 70.1661 57.7138 68.1472 58.609 66.1355C59.4655 64.2099 60.3121 62.1823 61.4619 60.4125C61.9863 59.6048 62.3934 58.8123 62.8143 57.95C63.1908 57.1784 63.7516 56.52 64.2023 55.7913C65.1956 54.1855 66.0485 52.5103 67.1311 50.9586C69.1794 48.0242 71.7449 45.1221 74.8512 43.2996C75.0492 43.1833 75.2991 42.9601 75.5155 42.9103C75.8801 42.8269 75.7691 42.8207 76.0156 43.1651C76.2458 43.4858 76.4663 43.8146 76.7171 44.1206C77.2431 44.7628 77.9013 45.2644 78.505 45.8279C79.1735 46.4518 79.7088 47.1571 80.4565 47.7001C81.1809 48.226 81.9731 48.6511 82.6963 49.1786C83.0961 49.4703 83.4215 49.819 83.7892 50.1442C84.0887 50.4091 84.4383 50.559 84.7814 50.7832C85.4442 51.217 86.0258 51.7632 86.6959 52.1872C87.4494 52.6642 88.2349 52.8654 88.9123 53.4765ZM56.0283 53.8074C55.2796 55.8629 54.8253 58.0195 54.6574 60.2006C54.6033 60.9019 54.4617 61.8497 55.0716 62.3641C55.6341 62.8386 56.6479 62.7663 57.3337 62.9104C56.3669 65.9547 55.0789 68.9725 54.9966 72.2117C54.9862 72.6205 54.8806 73.3386 55.0953 73.72C55.3144 74.1097 55.8276 74.1026 56.223 74.1465C57.8828 74.333 59.4907 74.7324 61.1157 75.1059C61.9081 75.2879 62.7036 75.4965 63.5099 75.6099C64.1797 75.704 64.8384 75.7424 65.4892 75.9402C66.8491 76.3538 68.2143 76.5398 69.6193 76.7302C72.5686 77.1296 75.4884 77.6191 78.4721 77.4772C79.8959 77.4094 81.3672 77.382 82.7742 77.1399C83.9281 76.9415 85.341 76.4815 85.5161 75.1357C85.5692 74.7286 85.5232 73.9864 85.188 73.682C84.8735 73.3956 84.376 73.5578 84.0029 73.4626C83.4384 73.3188 83.7609 72.9694 83.9181 72.5476C84.042 72.2153 84.1642 71.8821 84.2871 71.5489C84.545 70.85 84.8045 70.1512 85.0846 69.4607C86.2453 66.6002 87.7624 63.925 89.1662 61.1837C89.8689 59.8112 90.8036 58.7716 91.8019 57.6143C92.3314 57.0002 92.8512 56.3775 93.3625 55.7486C93.6464 55.3988 93.9636 55.0175 94.0537 54.5623C94.2556 53.5418 93.1144 52.6454 92.4941 52.0069C91.9608 51.4579 91.4032 50.9326 90.8039 50.4564C90.4751 50.1956 89.4679 49.7507 89.389 49.3219C89.3108 48.8974 90.077 48.0429 90.2864 47.693C90.6726 47.0487 91.0605 46.406 91.4887 45.7882C92.1788 44.7913 92.6723 43.7917 92.2205 42.5719C92.9702 42.4208 93.8097 41.7148 93.2365 40.927C92.5773 40.0205 91.4198 39.3441 90.3586 39.0976C89.198 38.8281 88.0679 38.2523 86.9571 37.8248C85.7753 37.3695 84.5834 36.9418 83.3928 36.5092C81.3445 35.7655 79.358 34.8136 77.2576 34.229C76.206 33.936 75.1775 33.5959 74.1407 33.2553C73.0671 32.9021 72.4 32.728 71.3753 33.2611C69.4329 34.2727 67.5564 35.3678 65.9714 36.899C64.4702 38.3497 63.2425 40.0535 62.1296 41.8124C60.9304 43.7083 59.8727 45.6699 58.8716 47.676C57.8647 49.6934 56.802 51.6837 56.0283 53.8074Z" fill="#262526"/>
<path fill-rule="evenodd" clip-rule="evenodd" d="M39.0638 68.7189C38.8382 72.1609 39.6472 75.4123 40.4767 78.7256C40.9152 80.4789 41.4332 82.1325 42.2185 83.7653C42.9494 85.2847 43.7061 86.7901 44.457 88.2995C42.4464 89.2347 40.3545 89.9599 38.2658 90.7064C36.3364 91.3959 34.3959 92.1171 32.7315 93.3376C33.0496 92.5077 32.7887 91.7603 32.2656 91.0868C31.6123 90.2463 31.0463 89.4066 30.6033 88.4343C29.663 86.371 28.956 84.1247 28.3764 81.9369C27.1975 77.4868 27.4152 72.7624 27.3479 68.2054C31.253 68.3765 35.1586 68.548 39.0638 68.7189ZM25.288 70.6251C25.0831 72.1637 25.1113 73.7605 25.0905 75.3115C25.0703 76.8397 25.0759 78.372 25.1853 79.8981C25.3933 82.7977 25.9768 85.7003 27.2737 88.3251C27.9085 89.6099 28.6187 90.9301 29.4615 92.0931C29.86 92.6427 30.3444 93.1535 30.9753 93.4332C31.3617 93.6045 32.0519 93.5385 32.1908 93.9845C32.3329 94.4414 31.9223 94.9985 32.6995 95.0249C33.3378 95.0462 34.0543 94.7625 34.6396 94.552C36.1297 94.0173 37.6267 93.4784 39.096 92.8894C40.52 92.3185 41.8578 91.5218 43.1951 90.7766C43.9334 90.365 44.6686 89.9486 45.4045 89.5328C45.9312 89.2353 46.5836 89.002 46.8536 88.4215C47.3811 87.2893 46.4057 85.8374 45.9487 84.8228C45.3888 83.579 44.9069 82.3494 44.5641 81.0291C44.1995 79.624 43.5315 78.2614 43.0659 76.8792C42.5602 75.3792 42.1964 73.8428 41.8439 72.3019C41.5642 71.0787 41.3016 69.8373 41.1732 68.5892C41.0731 67.6139 40.8245 66.7773 39.8041 66.425C38.9717 66.2153 38.1627 65.9547 37.3052 65.8602C36.443 65.765 35.5706 65.756 34.7044 65.7192C33.1343 65.6521 31.5864 65.7921 30.0192 65.809C29.664 65.8127 29.3089 65.8229 28.9582 65.8818C28.7647 65.9142 28.5195 66.0425 28.3324 66.0408C28.1939 66.0393 28.1245 65.9877 27.9798 65.9586C27.408 65.8423 27.0765 66.0244 26.6014 66.335C25.8377 66.8345 25.6543 67.2194 25.6507 68.1311C25.6477 68.9644 25.3974 69.801 25.288 70.6251Z" fill="#262526"/>
<path fill-rule="evenodd" clip-rule="evenodd" d="M50.2477 40.1327C50.3706 40.8618 51.2138 41.2981 51.554 40.4969C51.8668 39.7626 52.0049 38.9516 52.1187 38.1669C52.235 37.3661 52.6629 36.6505 53.0144 35.9323C53.8545 34.2175 54.7544 32.6006 55.9315 31.0923C57.0637 29.6404 58.0972 28.1133 59.2768 26.6977C60.4341 25.3083 61.8329 24.1513 63.0243 22.7962C63.3925 22.3777 63.9716 21.4895 63.3241 21.0185C62.7856 20.627 62.0198 21.2702 61.5943 21.5415C60.1786 22.4433 58.7536 23.2177 57.5691 24.4243C56.5018 25.5112 55.4903 26.7323 54.6573 28.0074C53.7842 29.3439 53.0741 30.7823 52.2607 32.1546C51.5574 33.8732 50.5474 35.6566 50.2666 37.5059C50.1406 38.3387 50.1066 39.2956 50.2477 40.1327Z" fill="#262526"/>
<path fill-rule="evenodd" clip-rule="evenodd" d="M6.00622 65.9805C5.83863 66.7149 5.69545 67.4556 5.61303 68.205C5.45476 69.6529 5.45636 71.1231 5.64886 72.5673C5.96629 74.9507 6.71918 77.4462 7.83156 79.5786C8.19832 80.2819 9.01176 82.1389 9.95528 82.1426C11.2459 82.1478 10.5572 80.1174 10.3406 79.5155C9.89463 78.273 9.45673 77.0269 8.99586 75.7897C8.53372 74.5485 8.40912 73.198 8.21129 71.8941C8.0121 70.5806 7.83495 69.2629 7.72386 67.9386C7.66599 67.2537 7.663 66.5645 7.60776 65.8802C7.56004 65.2882 7.30552 64.7682 7.1415 64.2054C6.7702 64.1945 6.81764 64.1875 6.60209 64.4187C6.50952 64.5179 6.39841 64.7596 6.34564 64.8674C6.17129 65.2216 6.09334 65.5975 6.00622 65.9805Z" fill="#262526"/>
<path fill-rule="evenodd" clip-rule="evenodd" d="M361.49 197.388C361.386 197.827 361.131 198.043 360.697 198.147C359.98 198.32 359.194 198.346 358.462 198.435C357.126 198.598 355.744 198.666 354.434 198.983C353.207 199.279 351.98 199.722 350.872 200.33C351.234 198.598 351.645 196.915 351.493 195.131C351.381 193.821 351.35 191.847 350.026 191.09C349.719 190.914 349.234 190.98 348.894 190.962C348.451 190.938 348.007 190.917 347.564 190.893C346.687 190.845 345.815 190.752 344.941 190.667C343.218 190.499 341.507 190.29 339.795 190.038C339.511 189.996 339.003 190.027 338.813 189.782C338.673 189.601 338.74 189.316 338.751 189.113C338.787 188.411 338.758 187.712 338.671 187.015C338.481 185.49 338.06 183.989 337.589 182.529C337.35 181.792 337.095 181.06 336.855 180.322C336.739 179.966 336.47 179.48 336.855 179.225C337.095 179.065 337.515 179.067 337.795 178.997C338.127 178.914 338.451 178.806 338.776 178.699C339.544 178.446 340.311 178.19 341.078 177.935C343.994 176.964 346.935 176.057 349.842 175.067C350.249 174.928 350.653 174.783 351.059 174.644C351.235 174.585 351.541 174.431 351.731 174.514C351.953 174.611 351.91 174.856 352.069 175.001C352.208 175.128 352.523 175.137 352.702 175.24C353.157 175.503 353.442 175.96 353.799 176.33C354.258 176.805 354.771 177.222 355.224 177.706C357.054 179.659 358.407 182.01 359.553 184.415C359.862 185.062 360.062 185.732 360.255 186.421C360.438 187.073 360.671 187.711 360.774 188.382C361.016 189.95 361.025 191.563 361.218 193.14C361.38 194.462 361.802 196.064 361.49 197.388ZM349.869 193.847C349.865 194.892 349.81 195.943 349.582 196.965C349.346 198.018 348.92 199.027 348.541 200.035C348.182 200.985 347.892 201.966 347.477 202.893C347.067 203.809 346.542 204.643 346.213 205.593C345.538 207.542 344.383 209.251 343.565 211.133C342.729 213.056 341.799 214.892 340.761 216.715C340.267 217.582 339.809 218.541 339.185 219.322C338.874 219.71 338.52 220.097 338.162 220.44C337.849 220.739 337.699 220.511 337.322 220.579C336.771 220.677 336.487 221.392 336.13 221.76C335.454 222.456 334.764 223.145 334.024 223.772C333.266 224.415 332.429 224.952 331.651 225.571C330.909 226.162 330.168 226.695 329.32 227.126C327.645 227.977 325.719 229.021 323.786 228.931C322.897 228.89 322.421 228.311 322.048 227.538C321.654 226.721 321.787 225.74 321.853 224.862C321.932 223.81 322.187 222.881 322.748 221.988C323.301 221.108 322.756 220.562 322.205 219.828C320.974 218.19 319.335 216.915 317.839 215.531C317.067 214.816 316.302 214.094 315.537 213.371C315.115 212.972 314.692 212.572 314.271 212.172C313.961 211.879 313.663 211.681 313.551 211.27C314.393 210.816 315.27 210.43 316.045 209.862C317.628 208.705 319.081 207.292 320.573 206.018C321.289 205.406 321.856 204.648 322.431 203.908C322.987 203.194 323.624 202.52 324.104 201.749C325.135 200.092 326.311 198.451 327.129 196.674C327.537 195.789 327.747 194.885 327.961 193.939C328.089 193.37 328.237 192.805 328.381 192.239C328.474 191.874 328.501 191.246 328.735 190.944C329.165 190.39 330.516 191.286 331.011 191.443C331.943 191.74 332.914 191.881 333.877 192.03C335.921 192.346 337.979 192.616 340.01 193.008C341.074 193.213 342.141 193.441 343.22 193.548C344.267 193.652 345.319 193.598 346.368 193.59C346.593 193.589 346.867 193.628 347.018 193.422C347.104 193.304 347.046 193.158 347.184 193.047C347.365 192.904 347.6 192.981 347.807 193.003C348.226 193.048 348.647 193.073 349.067 193.125C349.248 193.148 349.608 193.117 349.763 193.213C349.926 193.313 349.87 193.616 349.869 193.847ZM320.45 221.881C319.961 222.867 319.678 224.246 319.664 225.338C319.656 225.925 319.733 226.51 319.853 227.083C319.958 227.582 320.244 228.158 320.154 228.661C318.913 228.087 317.694 227.47 316.429 226.952C315.336 226.505 314.514 225.726 313.615 224.987C312.648 224.192 311.774 223.307 310.846 222.471C309.85 221.573 308.81 220.724 307.797 219.846C305.994 218.283 304.479 216.527 302.998 214.659C301.697 213.018 299.83 210.924 299.918 208.703C299.959 207.672 300.034 206.5 300.54 205.577C300.96 204.811 301.719 203.951 302.43 203.439C303.112 202.946 303.783 204.184 304.167 204.619C304.994 205.556 305.837 206.477 306.676 207.403C308.271 209.163 309.785 211.012 311.51 212.649C313.249 214.298 315.028 215.911 316.9 217.406C317.838 218.154 318.871 218.852 319.722 219.7C320.034 220.011 320.641 220.354 320.849 220.742C321.073 221.161 320.625 221.528 320.45 221.881ZM363.135 197.569C362.872 197.535 362.884 197.57 362.862 197.312C362.827 196.913 362.962 196.441 363.003 196.041C363.197 194.136 363.104 192.14 362.938 190.235C362.612 186.493 361.841 182.813 359.884 179.567C358.981 178.069 357.96 176.656 356.68 175.455C356.089 174.901 355.513 174.305 354.861 173.825C354.533 173.583 354.056 173.462 353.758 173.215C353.597 173.081 353.526 172.809 353.39 172.638C352.847 171.958 352.234 171.782 351.368 171.855C350.469 171.932 349.527 172.213 348.661 172.454C346.817 172.965 345.048 173.835 343.261 174.521C341.467 175.211 339.693 175.945 337.923 176.695C337.154 177.021 336.225 177.277 335.542 177.768C335.13 178.066 335.008 178.435 335.052 178.929C335.209 180.675 335.857 182.409 336.35 184.079C336.88 185.873 337.311 187.7 337.446 189.57C335.618 189.436 333.801 189.297 331.981 189.067C331.071 188.952 330.156 188.858 329.247 188.733C328.777 188.668 328.558 188.493 328.181 188.249C327.849 188.035 327.678 188.216 327.537 188.542C326.801 190.233 326.511 192.078 325.714 193.756C325.356 194.51 324.909 195.214 324.537 195.961C324.133 196.772 323.644 197.571 323.137 198.322C322.902 198.67 322.599 198.952 322.338 199.279C322.096 199.582 321.922 199.93 321.7 200.247C321.236 200.909 320.673 201.492 320.103 202.063C319.531 202.635 318.977 203.217 318.431 203.814C317.894 204.4 317.253 204.877 316.685 205.431C316.151 205.952 315.686 206.52 315.138 207.031C314.61 207.523 314.363 208.207 313.795 208.649C313.489 208.888 313.149 209.08 312.844 209.321C312.593 209.519 312.33 209.867 311.972 209.8C311.575 209.726 311.256 209.193 311.008 208.918C310.689 208.563 310.367 208.211 310.042 207.86C308.77 206.483 307.465 205.132 306.181 203.763C305.554 203.094 304.864 202.487 304.253 201.803C303.807 201.304 303.078 200.949 302.454 201.29C301.825 201.634 301.068 201.938 300.559 202.455C300.007 203.015 299.566 203.743 299.117 204.385C298.648 205.054 298.462 205.844 298.34 206.64C298.209 207.487 298.073 208.327 298.138 209.187C298.26 210.816 298.563 212.633 299.505 214.005C299.953 214.659 300.568 215.15 301.118 215.712C301.714 216.321 302.139 217.055 302.63 217.747C303.615 219.135 304.825 220.378 306.059 221.546C306.648 222.102 307.314 222.572 307.906 223.131C308.538 223.728 309.177 224.266 309.89 224.762C310.619 225.27 311.221 225.931 311.88 226.52C312.558 227.128 313.253 227.695 313.999 228.215C315.432 229.215 316.889 229.865 318.554 230.368C320.389 230.921 322.165 231.645 323.989 232.224C324.863 232.501 325.729 232.118 326.561 231.837C327.41 231.551 328.243 231.212 329.025 230.772C330.611 229.878 332.134 228.84 333.694 227.899C335.316 226.919 336.671 225.797 337.91 224.364C339.092 222.998 340.342 221.641 341.417 220.191C343.601 217.244 344.921 213.759 346.542 210.496C347.404 208.761 348.277 207.054 348.993 205.252C349.346 204.365 349.661 203.463 350.021 202.579C350.173 202.205 350.299 202.059 350.708 201.996C351.179 201.922 351.662 201.89 352.135 201.833C354.009 201.61 355.839 201.278 357.697 200.957C359.42 200.66 361.155 200.352 362.696 199.476C363.02 199.292 363.409 199.075 363.585 198.731C363.666 198.574 363.863 197.777 363.752 197.649C363.686 197.574 363.247 197.583 363.135 197.569Z" fill="#262526"/>
<path fill-rule="evenodd" clip-rule="evenodd" d="M348.643 229.65C349.251 228.919 349.651 227.864 350.093 227.021C350.567 226.117 351.006 225.281 351.206 224.275C351.303 223.791 351.361 223.296 351.471 222.815C351.575 222.361 351.724 221.96 351.682 221.485C351.637 220.989 351.406 219.496 350.653 219.661C350.215 219.757 350.304 220.225 350.301 220.567C350.298 220.96 350.252 221.35 350.137 221.726C349.864 222.614 349.214 223.397 348.803 224.23C348.405 225.038 347.933 225.773 347.337 226.449C346.763 227.1 346.122 227.717 345.45 228.264C344.859 228.746 344.146 229.109 343.715 229.762C343.458 230.152 343.415 230.269 342.942 230.377C342.561 230.464 342.203 230.603 341.882 230.831C341.518 231.089 341.259 231.398 340.834 231.568C340.463 231.715 340.071 231.803 339.697 231.942C338.832 232.261 338.077 232.8 337.194 233.101C336.737 233.258 336.273 233.391 335.81 233.53C335.44 233.64 335.003 233.716 334.696 233.966C334.182 234.387 333.895 235.459 334.344 236.017C334.828 236.619 335.963 236.243 336.593 236.166C336.601 236.207 336.609 236.248 336.617 236.289C337.678 236.076 338.783 235.95 339.814 235.617C340.359 235.441 340.848 235.189 341.346 234.911C341.768 234.676 342.2 234.593 342.651 234.442C343.054 234.308 343.376 234.105 343.628 233.757C343.95 233.31 344.086 233.443 344.584 233.334C345.382 233.159 346.07 232.253 346.619 231.705C347.289 231.037 348.039 230.377 348.643 229.65Z" fill="#262526"/>
</svg>
