<svg width="295" height="285" viewBox="0 0 295 285" fill="none" xmlns="http://www.w3.org/2000/svg">
<path fill-rule="evenodd" clip-rule="evenodd" d="M202.752 240.443C188.71 243.512 174.667 246.581 160.624 249.65C158.647 250.082 156.67 250.514 154.694 250.946C155.282 232.826 155.87 214.706 156.458 196.586C156.543 193.969 156.628 191.352 156.713 188.735C153.459 191.583 150.044 194.313 146.93 197.313C142.945 201.152 139.113 205.126 135.011 208.851C127.954 215.259 120.541 221.474 112.37 226.421C103.491 231.797 93.249 235.255 82.9394 236.45C79.142 236.89 75.7036 236.782 71.9417 236.39C68.6681 236.049 65.3949 235.708 62.1208 235.367C60.8027 235.23 59.4837 235.092 58.1651 234.955C57.8465 234.922 56.8098 234.997 56.5557 234.782C56.0941 234.393 55.8534 232.627 55.6717 232.065C54.9141 229.73 54.1613 227.393 53.4134 225.054C51.3804 218.698 49.3756 212.333 47.44 205.946C45.7826 200.479 44.0395 194.988 42.8017 189.407C42.6567 188.752 42.3389 187.896 42.3926 187.219C42.4706 186.231 42.0025 186.439 43.3053 186.425C46.3682 186.391 49.6067 187.135 52.6723 187.353C55.8292 187.577 58.9926 187.71 62.1576 187.742C78.9171 187.913 98.2067 186.096 111.784 175.245C116.336 171.607 120.908 167.402 124.436 162.724C129.41 156.129 132.121 147.348 132.781 139.21C133.524 130.066 131.982 120.635 129.736 111.783C129.281 109.992 129.384 109.322 129.774 107.447C130.099 105.891 130.422 104.335 130.747 102.779C130.837 102.347 130.934 100.532 131.291 100.265C131.916 99.8 134.93 100.311 135.662 100.32L144.743 100.434C150.591 100.507 156.439 100.58 162.287 100.653C165.324 100.691 168.358 101.166 171.376 101.48C177.846 102.152 184.315 102.825 190.785 103.497C192.081 103.632 193.378 103.767 194.675 103.901C193.844 111.264 193.013 118.627 192.182 125.99C191.562 131.481 193.723 136.924 194.875 142.291C197.469 154.382 199.996 166.65 200.958 178.998C201.864 190.624 201.854 202.375 202.149 214.029C202.372 222.833 202.575 231.638 202.752 240.443Z" fill="#FF6161"/>
<path fill-rule="evenodd" clip-rule="evenodd" d="M112.466 18.2234C112.466 17.5474 112.668 17.0741 113.047 16.5139C113.924 17.2752 115.296 21.0501 116.756 18.613C117.047 18.1283 117.06 16.323 118.056 16.8863C118.525 17.1508 118.396 18.4249 118.363 18.8567C118.245 20.3941 117.547 22.5389 115.564 22.4513C113.54 22.3621 112.412 19.9051 112.466 18.2234Z" fill="#262526"/>
<path fill-rule="evenodd" clip-rule="evenodd" d="M113.689 14.8453C110.323 15.4661 111.666 12.4381 114.132 12.1868C115.046 12.0936 116.622 12.1425 116.406 13.492C116.214 14.6856 114.579 14.681 113.689 14.8453Z" fill="#262526"/>
<path fill-rule="evenodd" clip-rule="evenodd" d="M104.361 24.8252C103.302 24.9258 101.555 23.4315 103.315 23.2494C104.128 23.1655 105.835 24.6849 104.361 24.8252Z" fill="#262526"/>
<path fill-rule="evenodd" clip-rule="evenodd" d="M289.173 42.531C288.362 43.1517 285.932 41.155 285.137 40.8022C282.043 39.4278 278.487 38.6678 275.163 38.0752C268.581 36.9025 261.835 36.2421 255.153 36.0317C251.077 35.9031 247.218 36.0456 243.187 36.4802C242.183 36.5881 235.393 37.7212 235.227 35.8599C234.935 32.5916 252.897 32.7468 254.607 32.7523C262.384 32.7789 269.407 33.6421 276.961 35.3364C279.004 35.7948 291.57 40.6958 289.173 42.531Z" fill="#262526"/>
<path fill-rule="evenodd" clip-rule="evenodd" d="M74.4415 96.5314C70.3514 97.7413 65.6851 97.5762 61.8476 95.6271C61.1886 95.2922 59.5863 94.5807 60.4352 93.7445C61.3484 92.8451 63.9061 94.3707 64.902 94.5662C69.7358 95.5146 75.8643 93.6352 79.2881 90.1103C80.9876 88.3616 81.9466 86.1512 82.3513 83.7702C82.5818 82.4125 82.7003 80.9762 82.6172 79.5996C82.5296 78.1413 81.9333 76.5736 82.3325 75.1221C84.1155 76.1794 84.1364 78.9634 84.2633 80.7611C84.4235 83.0279 84.4094 85.2073 83.7729 87.4161C82.4626 91.9633 78.9452 95.1992 74.4415 96.5314Z" fill="#262526"/>
<path fill-rule="evenodd" clip-rule="evenodd" d="M1.36442 217.656C1.49438 218.003 1.61667 218.328 1.75955 218.71C2.31087 217.697 2.31087 217.697 1.36442 217.656ZM6.50514 244.114C8.55101 245.059 10.8302 242.519 11.9191 241.105C13.7345 238.747 14.5421 236.03 15.2577 233.191C16.0496 230.05 16.9642 226.945 17.6999 223.79C18.0273 222.383 18.3404 220.972 18.7081 219.574C19.0129 218.418 20.1478 216.358 19.6699 215.157C18.8623 213.127 14.8949 212.568 15.1653 209.845C15.4135 207.343 19.7793 210.015 20.8275 210.546C23.222 211.759 21.9769 210.228 20.8202 209.341C19.9436 208.669 15.8664 205.758 18.0006 204.29C19.3858 203.337 22.3987 206.239 23.5465 206.773C24.7521 207.335 25.1912 207.187 26.1684 206.198C26.8638 205.494 27.8974 204.604 28.4346 203.797C29.7621 201.801 27.9838 197.889 27.7105 195.603C27.6496 195.094 28.0326 192.305 27.677 191.975C27.2097 191.541 25.2086 191.846 24.4732 191.736C21.8361 191.339 19.2344 191.041 16.5932 190.711C14.8485 190.493 9.65891 189.179 8.63173 190.988C7.81645 192.423 8.07758 195.177 8.07718 196.712C8.07597 199.941 8.06588 203.102 7.76035 206.341C7.09279 213.417 6.59191 220.488 5.94857 227.564C5.63618 230.998 4.99 234.393 4.66591 237.827C4.46491 239.955 4.14728 243.024 6.50514 244.114ZM46.2304 191.862C48.1673 196.706 49.7696 201.697 51.4453 206.635C52.2203 208.918 52.935 211.223 53.7213 213.502C54.4744 215.685 55.686 217.651 56.3072 219.883C57.48 224.099 58.4668 228.286 59.8561 232.43C60.0562 233.027 59.9388 234.348 60.2976 234.77C60.7387 235.288 62.6918 235.211 63.3836 235.298C66.2128 235.654 69.0708 235.928 71.9255 235.809C69.2544 232.441 66.2584 229.35 63.1874 226.338C60.4982 223.701 56.8662 220.707 56.4282 216.688C55.8458 211.349 61.4168 212.422 64.883 212.746C69.7181 213.197 75.1987 215.157 80.0379 214.071C76.684 209.535 71.6002 206.153 67.3897 202.461C65.7475 201.021 64.0201 199.438 63.1814 197.367C62.7543 196.311 62.542 195.093 62.8318 193.972C63.1838 192.611 63.9652 192.363 65.0981 191.72C58.3805 191.72 51.5866 191.48 45.1874 189.173C44.9332 190.246 45.8703 190.962 46.2304 191.862ZM76.2634 234.651C77.4367 236.246 79.55 235.812 81.2895 235.711C83.8435 235.563 86.3907 235.253 88.8979 234.741C91.4289 234.224 93.9679 233.532 96.3827 232.605C96.8904 232.41 98.471 231.964 98.657 231.353C98.8257 230.8 97.8506 229.665 97.6383 229.243C96.9611 227.894 96.6253 225.49 98.1549 224.528C99.4178 223.733 101.283 224.529 102.557 224.905C104.444 225.461 106.695 226.584 108.611 225.73C111.056 224.639 113.477 223.072 115.776 221.699C111.623 217.926 107.545 214.078 103.287 210.422C99.3859 207.072 94.6876 203.216 92.2498 198.602C91.3316 196.864 90.7371 194.401 91.8631 192.591C92.8726 190.967 94.9083 190.911 96.6245 191.059C101.722 191.501 106.744 192.767 111.759 193.712C113.447 194.03 124.307 196.549 124.336 193.809C124.342 193.217 123.218 191.871 122.93 191.401C122.278 190.335 121.611 189.281 120.906 188.249C119.263 185.843 117.478 183.541 115.707 181.23C114.813 180.064 113.672 177.635 111.961 177.894C111.181 178.012 110.4 178.88 109.77 179.329C108.686 180.104 107.561 180.82 106.407 181.486C101.742 184.177 96.5898 185.544 91.3986 186.813C90.2217 187.1 84.6003 187.68 84.0481 188.84C83.7725 189.42 84.4073 190.79 84.4239 191.417C84.4485 192.362 84.2403 193.342 83.7216 194.142C82.2154 196.463 78.922 196.341 76.4967 196.273C73.4156 196.185 70.261 196.033 67.1944 196.409C70.2453 199.233 73.4111 201.927 76.596 204.596C78.8404 206.477 81.3416 208.259 83.1053 210.627C84.6152 212.653 85.7388 216.103 83.8104 218.286C81.7464 220.623 77.0936 219.588 74.4758 219.19C71.4238 218.725 68.3988 218.157 65.3733 217.551C64.3482 217.346 63.2895 217.109 62.2418 217.054C60.9886 216.988 60.5293 216.917 61.3974 218.08C63.5543 220.969 66.7985 223.046 69.0695 225.867C70.1391 227.196 71.3862 228.254 72.5107 229.529C73.912 231.118 75.0114 232.949 76.2634 234.651ZM118.247 218.863C119.722 220.363 121.386 218.231 122.581 217.254C124.372 215.789 126.121 214.272 127.939 212.839C131.383 210.126 134.968 207.608 138.206 204.64C139.227 203.704 140.904 202.656 141.214 201.223C141.609 199.394 140.659 197.759 141.63 195.92C143.47 192.437 147.274 195.286 149.755 193.282C151.029 192.252 151.927 190.757 152.931 189.482C154.127 187.965 155.653 186.493 156.341 184.665C157.057 182.764 157.151 181.854 155.819 180.247C154.383 178.516 152.641 176.935 151.488 174.987C150.695 173.645 150.047 171.672 151.294 170.374C152.302 169.324 154.046 169.607 155.35 169.687C157.248 169.805 159.137 169.982 161.003 170.359C162.477 170.657 165.294 171.436 166.709 170.626C170.049 168.717 164.045 163.8 162.715 162.342C159.744 159.082 156.628 155.958 153.538 152.811C150.681 149.902 147.796 146.99 145.113 143.917C143.117 141.629 140.776 138.401 141.847 135.171C142.715 132.554 145.637 132.471 147.963 132.653C151.368 132.92 154.757 133.477 158.148 133.882C160.675 134.184 165.539 135.133 167.695 133.124C169.924 131.048 165.166 124.88 163.936 123.033C161.337 119.128 158.342 115.504 155.239 111.994C153.733 110.289 152.197 108.61 150.66 106.932C149.326 105.474 148.103 103.638 146.57 102.386C144.894 101.018 142.39 101.178 140.336 100.972C138.175 100.755 135.877 100.435 133.705 100.443C131.727 100.45 132.216 102.355 132.132 104.006C132.112 104.402 131.579 107.911 132.18 107.967C132.245 107.185 132.311 106.404 132.377 105.622C134.066 106.316 135.319 107.808 136.629 109.021C137.936 110.231 139.711 111.463 140.262 113.242C141.819 118.266 135.607 116.484 133.004 115.974C133.59 121.679 135.049 127.225 135.853 132.892C136.19 135.267 136.053 137.416 135.79 139.778C135.64 141.124 135.658 142.482 135.494 143.828C135.364 144.895 134.867 146.115 135.065 147.187C135.428 149.151 137.907 151.212 139.008 152.873C140.469 155.076 141.759 157.465 142.434 160.037C143.655 164.681 141.576 168.02 136.717 168.467C134.526 168.669 132.101 168.33 129.93 168.02C128.064 167.754 125.681 166.371 123.979 167.622C123.282 168.134 122.802 169.042 122.191 169.668C121.305 170.575 120.309 171.385 119.33 172.189C118.408 172.948 115.885 174.296 116.134 175.458C116.321 176.335 117.842 177.586 118.357 178.235C119.033 179.085 119.703 179.939 120.355 180.808C122.011 183.014 123.59 185.292 125.019 187.653C126.748 190.509 129.175 195.611 126.251 198.571C124.557 200.285 121.745 199.983 119.585 199.646C116.641 199.186 113.717 198.594 110.825 197.881C107.93 197.167 105.011 196.67 102.082 196.126C99.5797 195.662 96.6697 194.776 94.1681 195.693C101.477 204.203 110.409 210.89 118.247 218.863ZM160.886 179.504C161.826 178.405 162.788 177.184 163.62 175.997C164.386 174.902 164.324 174.425 163.032 174.084C162.228 173.872 161.335 174.079 160.515 173.984C159.661 173.884 158.809 173.609 157.972 173.421C157.033 173.21 155.979 172.888 155.01 172.89C153.918 172.893 153.81 172.794 154.359 173.776C155.112 175.122 156.569 176.299 157.607 177.421C158.26 178.127 159.823 180.747 160.886 179.504ZM159.678 194.934C160.172 196.021 163.735 195.224 164.308 194.476C165.561 192.839 162.356 189.03 161.513 187.651C160.242 188.494 159.802 189.608 159.726 191.079C159.674 192.097 159.256 194.008 159.678 194.934ZM158.336 248.977C160.465 249.188 163.254 247.96 165.204 247.285C167.904 246.352 170.712 245.686 173.497 245.064C179.093 243.815 184.877 243.641 190.488 242.443C186.922 237.803 182.61 233.805 178.987 229.215C177.672 227.55 175.74 225.164 176.35 222.881C176.948 220.643 179.26 221.137 180.977 221.653C183.28 222.346 185.506 223.309 187.758 224.148C188.822 224.545 193.578 226.829 194.458 225.348C195.051 224.348 191.675 220.625 191.183 219.981C189.344 217.576 187.348 215.298 185.337 213.037C181.584 208.819 177.325 204.503 174.422 199.635C172.247 195.986 171.518 190.227 177.393 190.457C179.819 190.553 182.29 191.305 184.657 191.799C186.843 192.256 190.074 193.266 192.305 192.702C194.654 192.108 191.953 188.602 191.213 187.445C189.651 185 187.816 182.717 186.095 180.382C184.243 177.871 182.269 175.414 180.538 172.819C179.461 171.204 177.714 168.386 178.693 166.344C179.816 164.001 183.674 165.45 185.563 165.805C189.141 166.479 192.651 167.6 196.327 167.6C196.29 165.755 194.4 164.133 193.312 162.824C191.68 160.859 189.999 158.956 188.214 157.127C186.959 155.841 185.586 153.746 184.118 152.755C182.615 151.741 181.727 154.946 181.136 156.137C176.83 164.826 172.124 173.344 166.318 181.139C165.149 182.708 163.434 183.975 164.414 185.978C165.435 188.062 166.78 189.885 167.172 192.237C167.462 193.973 167.31 196.388 165.973 197.708C164.677 198.987 162.773 198.697 161.172 199.197C159.472 199.728 159.952 201.235 159.937 202.744C159.911 205.383 159.878 208.02 159.894 210.659C159.909 213.004 159.941 215.349 159.969 217.694C159.998 220.173 160.602 221.931 161.279 224.266C161.632 225.482 161.753 226.739 161.363 227.961C161.028 229.011 160.478 229.212 159.832 229.955C158.575 231.401 158.977 234.15 158.823 235.989C158.712 237.307 156.871 248.833 158.336 248.977ZM163.574 277.173C164.11 277.845 166.031 277.63 166.781 277.679C168.205 277.773 169.631 277.773 171.055 277.85C174.094 278.015 177.094 278.438 180.142 278.492C182.647 278.536 185.242 278.657 187.65 278.828C188.836 278.913 190.17 278.399 191.324 278.64C192.461 278.878 192.895 279.21 194.127 279.111C197.194 278.866 200.331 279.175 203.403 279.25C206.246 279.32 209.112 279.105 211.959 279.067C215.161 279.025 218.371 279.142 221.573 279.175C224.999 279.21 228.497 279.006 231.88 279.657C231.567 278.218 231.588 276.522 230.425 275.445C229.234 274.343 227.26 274.092 225.727 273.912C223.495 273.65 221.282 273.59 219.055 273.495C217.664 273.436 216.324 272.965 214.941 272.807C212.958 272.581 210.822 272.712 208.823 272.68C208.138 272.669 207.682 272.415 207.053 272.319C206.315 272.206 205.593 272.395 204.788 272.199C203.118 271.791 201.416 271.364 199.796 270.82C198.807 270.487 198.848 270.206 198.037 270.977C197.529 271.46 197.217 272.375 196.788 272.944C196.08 273.883 194.813 275.007 193.721 273.876C192.564 272.678 193.804 271.335 193.547 270.092C193.348 269.132 191.525 268.289 190.614 268.651C189.354 269.152 188.981 271.755 187.631 272.05C185.934 272.42 186.392 269.852 186.623 268.896C187.224 266.394 187.009 266.312 185.011 264.646C183.488 263.376 183.063 262.88 181.173 263.83C179.269 264.786 177.189 265.202 175.066 265.431C172.56 265.701 170.221 265.419 167.768 264.917C166.613 264.681 164.363 263.795 163.608 265.007C162.758 266.374 163.633 269.721 163.664 271.302C163.687 272.481 163.758 273.694 163.646 274.87C163.588 275.477 163.142 276.629 163.574 277.173ZM194.328 241.477C196.09 241.324 197.817 240.857 199.574 240.644C200.215 240.567 201.59 240.59 202.119 240.137C202.767 239.582 202.463 239.637 202.331 238.831C201.703 234.998 201.462 231.286 201.555 227.392C201.625 224.477 202.193 219.942 200.457 217.407C198.41 214.42 195.3 212.21 193.224 209.213C192.102 207.592 190.535 203.242 194.089 203.358C195.504 203.404 197.014 204.301 198.387 204.633C200.33 205.103 200.449 204.631 200.277 202.87C199.873 198.737 199.993 194.586 199.572 190.451C199.138 186.201 198.673 181.947 198.196 177.701C197.964 175.637 197.858 173.452 197.457 171.42C197.068 169.444 195.149 170.507 193.47 170.427C189.024 170.213 184.702 167.487 180.234 167.914C183.959 174.904 190.312 180.213 193.927 187.296C195.176 189.743 196.339 193.572 193.259 195.207C189.826 197.028 184.586 194.72 181.054 194.134C179.818 193.929 174.908 192.494 174.68 194.406C174.557 195.436 176.556 197.844 177.055 198.588C178.193 200.283 179.504 201.856 180.736 203.484C183.195 206.733 186.121 209.562 188.672 212.743C190.896 215.518 193.626 218.236 195.42 221.314C197.103 224.203 197.427 229.409 192.695 228.84C187.85 228.257 183.636 224.478 178.698 224.367C181.222 227.693 184.103 230.722 186.904 233.811C188.252 235.297 189.575 236.803 190.853 238.351C191.671 239.341 192.794 241.61 194.328 241.477ZM200.939 211.328C200.832 209.945 201.167 209.172 199.911 208.414C199.101 207.925 197.189 207.166 196.302 207.502C196.637 207.891 200.472 212.476 200.881 212.107C200.983 211.858 201.003 211.598 200.939 211.328ZM194.254 147.697C194.024 145.036 193.488 142.404 193.373 139.734C193.295 137.928 193.552 135.525 192.329 134.019C190.85 136.788 189.855 139.783 188.376 142.554C187.744 143.739 187.038 144.884 186.384 146.057C185.937 146.859 184.626 148.58 184.729 149.536C184.905 151.168 188.149 153.507 189.2 154.673C191.438 157.156 193.63 159.683 195.917 162.123C195.608 157.288 194.672 152.521 194.254 147.697ZM194.318 104.459C193.7 103.591 189.391 104.001 188.461 103.919C185.534 103.66 182.353 103.429 179.52 102.643C184.018 108.208 188.06 114.234 190.702 120.916C191.705 118.186 192.364 115.344 192.977 112.504C193.288 111.06 193.556 109.61 193.788 108.151C193.893 107.491 194.718 105.021 194.318 104.459ZM180.584 145.188C181.789 145.789 185.442 136.795 185.604 135.798C183.871 136.194 176.974 136.517 176.569 138.703C176.379 139.725 177.558 140.957 178.074 141.696C178.704 142.6 179.587 144.691 180.584 145.188ZM169.638 136.033C167.087 139.23 162.325 138.584 158.764 138.13C156.352 137.821 153.963 137.407 151.558 137.052C149.185 136.702 146.307 136.055 144.005 137.032C147.737 142.279 152.542 146.618 157.078 151.143C159.403 153.463 161.649 155.86 163.885 158.266C166.078 160.627 167.826 163.598 170.152 165.785C172.126 162.178 173.995 158.518 175.898 154.874C176.697 153.343 177.726 151.966 178.547 150.453C179.451 148.786 179.589 148.019 178.436 146.509C176.719 144.26 174.305 141.214 174.651 138.194C175.053 134.668 179.242 134.281 181.985 133.52C183.363 133.138 184.945 132.848 186.205 132.152C187.806 131.268 187.878 129.807 188.408 128.222C189.049 126.304 189.636 125.058 188.96 123.04C188.397 121.362 187.554 119.695 186.775 118.108C185.138 114.773 183.092 111.703 180.922 108.696C179.495 106.72 177.813 102.777 175.262 102.249C173.452 101.875 171.168 102.029 169.311 101.926C167.146 101.806 164.979 101.739 162.813 101.645C158.325 101.451 153.518 101.027 149.052 101.619C154.312 107.307 159.629 112.853 164.308 119.047C167.322 123.037 173.75 130.879 169.638 136.033ZM189.768 93.0026C187.329 88.4781 185.064 84.0041 181.761 80.0531C178.904 76.636 176.313 73.0707 173.348 69.734C167.129 62.7334 159.057 57.5599 151.531 52.1207C149.828 50.8897 147.65 50.2189 145.782 49.1454C143.47 47.8175 140.993 46.7093 138.491 45.7913C133.952 44.1266 128.741 43.2769 123.907 43.6149C118.566 43.9881 114.536 45.8757 111.219 50.0428C107.968 54.1271 107.464 58.6358 107.376 63.7693C107.335 66.2087 107.304 68.6621 107.328 71.1019C107.351 73.5166 107.665 75.0428 109.143 76.903C110.361 78.4336 112.925 79.2066 114.675 79.9142C117.055 80.8766 119.283 81.9497 121.504 83.2445C122.464 83.8046 124.746 85.9128 125.931 85.689C127.677 85.3591 128.105 82.2598 128.278 80.8847C128.929 75.7399 128.859 70.4787 128.544 65.3089C128.383 62.6615 127.152 58.6839 127.849 56.0051C128.139 54.892 128.8 54.4974 129.617 55.48C130.627 56.6957 130.876 59.5486 131.137 61.0146C132.057 66.178 131.996 71.3688 132.025 76.59C132.038 78.6646 133.196 79.7405 133.955 81.589C134.925 83.9524 135.72 86.4188 136.198 88.93C136.476 90.3876 136.673 91.8726 136.652 93.3596C136.64 94.1762 136.238 95.4751 136.551 96.2509C137.16 97.7561 140.939 96.9144 142.205 96.8862C147.851 96.7606 153.48 96.4597 159.134 96.387C170.581 96.24 182.11 97.9407 193.32 100.1C192.159 97.7234 191.024 95.3321 189.768 93.0026ZM184.849 68.8475C185.746 68.9941 188.759 70.6415 189.279 69.5971C189.724 68.7046 187.525 65.508 187.196 64.6566C186.433 62.6797 186.249 60.4726 185.799 58.4089C185.516 57.1084 185.489 54.5382 184.786 53.3795C184 52.0839 182.167 52.7346 180.865 52.7733C178.645 52.8396 176.404 52.8384 174.183 52.8307C171.924 52.8226 169.667 52.7636 167.408 52.7705C165.099 52.7774 162.819 52.3941 160.527 52.3941C160.784 53.224 161.859 53.6291 162.534 54.0197C163.573 54.6218 164.448 55.3371 165.359 56.123C167.494 57.9634 169.623 59.4347 171.414 61.6305C173.032 63.6155 175.292 65.7382 177.3 67.3342C178.375 68.1884 179.111 68.1198 180.414 68.1084C181.973 68.0951 183.328 68.5987 184.849 68.8475ZM190.379 64.4248C190.94 66.1432 190.993 66.6481 192.812 66.5261C195.149 66.3686 197.493 66.222 199.834 66.0524C205.176 65.6659 210.523 64.8674 215.866 64.5981C220.421 64.3683 225.34 63.8182 229.866 64.2927C231.979 64.5141 234.231 64.088 236.385 64.1724C238.986 64.2746 241.611 64.2637 244.1 65.0645C246.174 65.7325 247.906 66.0936 249.388 67.8213C250.881 69.5611 251.901 71.7541 252.893 73.8013C254.817 77.7705 256.324 82.9529 259.709 85.9588C260.564 86.7181 262.024 88.0072 263.268 87.8643C265.314 87.6288 264.687 84.9177 264.507 83.5425C263.901 78.9082 262.082 74.9031 260.724 70.4771C260.319 69.1541 259.515 65.6594 261.616 65.1724C263.129 64.8218 265.505 68.1496 266.374 69.0434C268.288 71.0118 270.161 72.9217 272.3 74.6547C274.067 76.0852 275.842 77.6659 278.283 77.3589C277.115 74.2076 275.826 71.1564 273.912 68.3758C272.27 65.989 269.501 63.8408 268.475 61.0954C267.702 59.028 268.386 56.2074 270.791 58.0264C272.879 59.6059 274.687 61.5384 276.822 63.0896C279.623 65.1247 282.803 66.8116 286.123 67.8181C287.222 68.1509 289.171 68.7958 290.224 68.0014C291.795 66.8169 290.193 64.3452 289.312 63.2564C281.044 53.0455 267.296 49.3837 254.751 48.6139C251.481 48.4132 248.08 48.7355 244.797 48.7819C241.682 48.8252 238.791 49.2068 235.713 49.6624C229.323 50.6078 222.919 51.3768 216.556 52.3214C214.852 52.5742 212.832 53.075 211.136 53.0092C210.437 52.9821 210.074 52.7947 209.378 52.9813C208.783 53.1409 208.355 53.4595 207.693 53.5665C203.922 54.1747 200.085 54.4118 196.264 54.4607C194.426 54.4837 192.57 54.449 190.746 54.2083C189.672 54.0665 188.572 53.6198 188.269 54.896C188.041 55.8585 188.802 57.6815 189.064 58.6084C189.598 60.5029 189.781 62.5896 190.379 64.4248ZM122.029 31.4182C122.672 31.4425 123.731 31.539 123.939 30.7357C124.333 29.2224 122.311 30.1461 121.936 29.1933C121.518 28.1328 122.942 27.8582 123.57 27.6869C124.851 27.3372 124.521 27.4119 124.556 26.0824C124.588 24.8558 124.984 23.7388 125.482 22.6277C126.173 21.0842 126.209 21.1621 124.658 20.9848C122.048 20.6868 121.478 18.3811 120.513 16.2717C119.917 14.9701 119.257 13.7003 118.887 12.3098C118.661 11.4661 118.693 10.1253 117.869 9.64997C116.755 9.00783 114.164 9.67178 112.991 9.82606C111.031 10.0837 108.97 10.3761 107.095 11.034C105.487 11.5982 104.875 12.9067 103.426 13.1385C102.489 13.288 96.8509 12.9346 97.5915 14.6627C98.0528 15.7394 100.23 15.1243 101.032 15.092C102.057 15.0512 103.306 14.8986 104.322 15.0989C105.337 15.2996 105.432 15.6797 105.829 16.6905C104.877 16.6433 101.319 16.1114 100.541 16.8113C99.8517 17.432 100.361 18.1125 101.055 18.3407C102.409 18.7862 104.238 17.9219 105.659 18.2935C106.67 18.558 106.6 18.5939 107.016 19.6097C107.233 20.1395 107.481 20.6815 107.573 21.2514C108.095 24.4702 105.144 21.9715 103.917 21.2586C101.672 19.9546 99.239 20.1981 99.6749 23.3313C99.819 24.368 100.378 25.2751 101.095 26.0226C102.107 27.0763 102.369 27.275 102.421 28.867C102.465 30.2369 102.319 31.7026 102.803 33.0179C103.338 34.4666 104.476 35.7012 105.365 36.9378C106.433 38.4232 107.538 39.8905 108.568 41.4025C109.012 42.054 109.646 43.6937 110.501 43.9109C111.306 44.1149 112.555 42.8225 113.222 42.4526C114.838 41.556 116.613 40.9724 118.275 40.17C116.883 38.9317 115.643 37.5271 114.28 36.2832C113.215 35.3119 112.664 35.1269 113.015 33.4868C113.803 29.8076 119.337 31.3173 122.029 31.4182ZM101.094 108.733C96.6939 112.995 90.151 115.659 84.1991 116.732C77.9642 117.855 70.8543 118.688 64.7804 116.515C58.5528 114.287 52.7296 111.083 47.4573 107.097C46.8091 106.607 39.5471 99.5145 38.9622 100.074C41.1195 103.305 43.3833 106.457 45.6702 109.596C46.7938 111.139 50.6789 116.447 48.4449 118.368C46.9653 119.64 44.4484 117.59 43.2336 116.768C40.3091 114.79 37.0512 113.724 33.4966 113.724C35.1389 116.74 37.6356 119.41 38.9711 122.596C39.602 124.101 39.2807 123.992 37.8551 123.583C36.0712 123.071 34.0479 122.479 32.1865 122.395C31.3208 122.356 29.5631 122.737 29.4166 123.868C29.2765 124.949 31.5726 126.99 32.2136 127.765C34.5621 130.606 36.9559 133.301 39.8595 135.591C45.4332 139.987 52.0495 142.822 58.7837 144.927C65.6635 147.078 73.0164 147.725 80.0496 145.994C83.5344 145.137 86.7309 143.973 89.852 142.236C91.265 141.451 92.7511 141.094 94.11 140.17C95.5218 139.211 96.9526 138.253 98.3939 137.34C101.362 135.458 103.201 133.566 105.272 130.739C106.105 129.602 107.248 128.759 108.042 127.64C108.917 126.406 109.816 125.15 110.632 123.852C114.393 117.865 118.078 111.43 120.27 104.681C121.401 101.201 122.168 97.622 123.117 94.0914C123.443 92.8766 124.648 90.5398 124.396 89.306C124.154 88.1159 122.271 87.6328 121.338 87.128C118.617 85.6551 115.886 84.3474 113.23 82.7812C109.561 80.6169 110.211 85.0546 109.973 87.6167C109.267 95.234 106.708 103.295 101.094 108.733ZM132.126 111.645C132.9 112.308 134.859 112.72 135.849 112.417C134.873 110.962 133.368 110.008 132.103 108.838C131.965 109.642 131.353 110.982 132.126 111.645ZM127.402 163.4C129.184 163.53 131.043 164.065 132.81 164.079C134.385 164.092 136.379 164.22 137.91 163.882C142.135 162.947 139.637 159.124 138.167 156.629C137.354 155.25 136.326 154.015 135.478 152.659C135.274 152.333 134.706 150.999 134.252 150.954C133.585 150.888 133.378 151.982 133.056 152.652C132.186 154.465 131.381 156.339 130.394 158.093C129.4 159.857 128.013 161.439 127.402 163.4ZM81.706 190.242C81.3408 188.213 75.4057 190.274 74.063 190.516C73.6779 190.585 69.028 191.152 69.07 191.556C70.6089 191.67 82.1601 192.767 81.706 190.242ZM0.999158 235.542C0.0898362 235.937 0.122125 233.043 0.0801497 232.659C-0.00460732 231.885 -0.111159 230.492 0.281952 229.813C0.57053 229.314 0.655287 229.568 0.810271 229.436C2.07961 228.36 0.546717 227.899 0.261368 227.041C0.173382 226.777 0.16531 226.05 0.296482 225.83C0.671027 225.199 0.775157 225.671 1.22033 225.407C1.519 225.229 2.12481 225.667 1.94965 224.859C1.80516 224.192 1.295 224.601 1.03952 224.392C0.0680416 223.598 0.166925 222.556 0.322716 221.288C0.470436 220.082 0.612908 218.792 0.967677 217.651C1.1497 217.065 1.39792 217.329 1.37814 216.637C1.36765 216.276 0.81915 215.92 0.800988 215.466C0.779193 214.902 1.30227 213.996 1.33173 213.401C1.37047 212.621 1.37774 211.942 1.29056 211.204C1.23729 210.752 1.11741 210.587 1.09239 210.037C1.06939 209.518 1.1828 208.911 1.1937 208.37C1.22437 206.836 1.429 205.294 1.69861 203.827C1.85682 203.597 1.98113 203.35 2.07275 203.085C2.00978 202.81 1.90444 202.552 1.75713 202.311C1.71636 201.61 1.72968 200.925 1.73816 200.213C1.7539 198.893 1.50205 197.64 1.42496 196.339C1.40236 195.953 1.2502 195.308 1.5186 194.951C1.72323 194.679 2.43882 194.746 2.51752 194.484C2.74354 193.735 2.06669 194.182 1.92018 193.803C1.80274 193.499 1.86247 193.099 1.8431 192.793C1.78861 191.966 2.97884 186.346 4.00965 187.077C3.59878 186.786 4.40478 184.851 4.66631 184.523C5.63819 183.306 6.21858 184.685 7.00682 185.541C8.10987 186.74 9.07005 185.969 10.5028 185.698C12.2767 185.364 14.2261 185.482 16.0242 185.521C17.8674 185.561 19.7369 185.664 21.5729 185.827C23.5498 186.002 25.4645 186.599 27.4611 186.569C30.4203 186.525 33.4183 186.594 36.3751 186.488C36.9668 186.466 38.3988 186.528 38.647 185.776C38.7403 185.493 38.2063 184.899 38.126 184.588C37.971 183.989 37.9601 183.203 38.224 182.617C39.0212 180.849 40.68 182.292 41.8484 182.935C43.6089 183.903 45.4336 184.727 47.3782 185.25C55.1339 187.336 64.2836 187.22 72.2031 186.235C80.245 185.235 88.1952 182.813 96.036 180.83C103.195 179.019 109.803 175.003 115.298 170.09C120.9 165.081 125.321 158.135 128.088 151.161C131.171 143.393 128.928 135.571 128.85 127.625C128.811 123.662 127.929 119.795 127.688 115.845C127.454 112.014 127.782 108.419 128.931 104.669C129.224 103.713 129.635 102.754 129.849 101.777C130.047 100.871 129.697 100.145 129.813 99.292C130.062 97.4649 132.082 97.6503 132.965 96.2921C133.764 95.0623 132.94 93.1484 132.657 91.8298C132.165 89.5399 131.553 87.2778 130.99 85.0049C130.409 86.3582 129.866 87.7084 129.515 89.1425C129.424 89.51 129.416 90.1586 129.165 90.4849C128.983 90.7212 128.524 90.6905 128.381 90.9082C127.896 91.6424 127.951 92.3786 127.868 93.3229C127.704 95.1544 127.408 96.9657 127.107 98.7779C126.095 104.867 125.324 110.867 122.932 116.615C118.524 127.206 112.57 137.062 103.764 144.575C99.7738 147.979 94.6989 150.096 89.8689 151.89C84.1079 154.03 78.6277 155.19 72.4429 154.634C66.6064 154.11 60.773 152.298 55.4265 149.948C50.1607 147.633 45.2165 145.595 40.7203 141.866C35.9158 137.88 31.1178 133.07 27.8131 127.737C26.6079 125.791 24.4623 121.778 24.9882 119.342C25.6626 116.218 30.4611 118.278 32.1942 118.925C30.736 116.539 26.8327 112.288 28.7732 109.311C31.6061 104.967 39.0204 109.367 42.0563 110.977C40.4919 107.794 38.1005 105.12 36.4054 102.014C35.5659 100.476 33.2448 94.2182 36.6548 93.8794C37.6872 93.7768 38.7834 94.9557 39.5128 95.5466C40.9286 96.6943 42.3331 97.855 43.7373 99.017C46.8063 101.556 50.0456 103.716 53.5804 105.555C60.654 109.235 67.4967 111.189 75.5309 110.407C82.3764 109.74 89.925 107.66 95.2482 103.146C98.4447 100.437 100.986 97.4387 102.628 93.5442C104.441 89.2434 105.597 84.5195 106.866 80.0325C104.9 79.5261 103.522 79.8197 103.901 77.4805C104.356 74.6765 104.256 71.8393 104.272 68.9933C104.307 63.0937 104.416 57.129 106.261 51.4676C106.59 50.46 106.879 49.4217 107.445 48.5146C108.143 47.3959 108.791 47.2295 107.892 46.0098C106.163 43.6618 104.367 41.6546 103.084 38.9563C102.417 37.5529 101.798 36.1782 100.976 34.8664C99.6273 32.7154 97.8643 31.1371 96.1341 29.2737C94.1479 27.1353 92.5921 25.118 91.5709 22.3709C91.0939 21.0886 90.4437 19.8128 90.1971 18.4582C89.9032 16.8432 90.2084 15.191 90.3476 13.5751C90.8089 8.21464 92.609 3.88885 97.8793 1.79442C102.162 0.0921303 107.086 -0.640883 111.576 0.67531C117.008 2.26815 119.583 7.03495 122.17 11.6479C122.9 12.9487 123.349 14.3251 124.011 15.6453C124.689 16.9987 125.393 17.0007 126.642 17.55C129.119 18.638 128.909 21.7764 127.834 23.8393C126.467 26.4608 126.744 29.4979 125.567 32.2344C124.361 35.0368 122.489 35.8175 119.635 36.4455C120.723 37.3098 121.715 38.4398 123.102 38.8093C124.786 39.2576 126.825 38.8299 128.568 38.8546C132.186 38.9055 135.844 39.3958 139.282 40.5524C142.658 41.6881 145.685 43.5055 148.824 45.1318C150.258 45.8753 151.596 46.9359 153.236 47.1516C154.826 47.3612 156.429 46.969 158.029 47.1746C161.536 47.6257 165.382 47.057 168.959 46.9791C172.812 46.8951 176.679 46.9488 180.524 46.6669C182.185 46.5454 183.826 46.3705 185.492 46.5155C187.007 46.6467 187.91 46.2901 189.22 47.3268C190.09 48.0158 190.784 49.7024 191.81 49.9322C192.904 50.1773 195.058 49.4915 196.139 49.3288C199.77 48.7811 203.43 48.057 207.038 47.3894C208.729 47.0764 210.323 46.5062 212.029 46.2118C213.789 45.9076 215.617 45.8087 217.356 45.4174C220.17 44.7841 223.208 44.5482 226.142 44.1436C229.578 43.6698 233.112 42.6707 236.575 42.5443C251.071 42.0152 267.319 41.1546 280.173 49.1923C283.191 51.0795 286.292 53.4894 288.617 56.1892C290.753 58.6693 293.375 61.9503 293.92 65.2551C294.407 68.205 294.052 73.3728 290.107 73.4088C286.261 73.4439 282.309 71.1475 278.999 69.4469C280.413 72.8357 284.709 80.0943 280.98 83.385C277.132 86.7811 270.046 79.4122 267.505 77.0464C268.007 80.6674 271.593 93.8265 264.807 94.0304C258.183 94.2291 254.34 86.0638 251.98 81.2162C250.734 78.657 249.804 75.6502 247.782 73.5675C245.748 71.4734 242.928 71.5429 240.176 71.2751C233.485 70.6245 226.831 70.5906 220.102 70.4295C211.584 70.2259 203.22 71.6293 194.692 70.8365C194.799 72.4811 194.175 75.4741 192.508 76.1037C190.054 77.0318 187.043 75.6979 184.53 75.6979C184.699 76.7035 186.131 77.7628 186.734 78.5217C187.815 79.8823 188.745 81.3414 189.614 82.8438C191.313 85.7783 193.12 88.7176 194.326 91.8984C194.933 93.4986 195.451 95.1487 195.888 96.803C196.139 97.7541 196.134 99.1757 196.644 100.017C197.276 101.062 198.248 100.458 199.049 101.278C200.204 102.46 198.999 103.082 198.635 104.124C198.24 105.251 198.736 107.16 198.585 108.4C198.36 110.26 198.121 112.134 197.812 113.982C197.248 117.361 196.051 120.486 195.249 123.784C194.489 126.913 196.547 130.221 197.226 133.248C198.014 136.761 198.472 140.315 199.282 143.822C200.137 147.523 200.533 151.336 201.123 155.086C201.699 158.75 202.528 162.369 203.09 166.035C204.162 173.022 204.843 180.137 205.688 187.152C206.131 190.829 206.472 194.554 206.505 198.26C206.535 201.73 207.025 205.119 207.096 208.582C207.172 212.253 207.215 215.927 207.374 219.596C207.531 223.224 207.081 226.837 206.916 230.46C206.838 232.187 206.78 233.917 206.805 235.645C206.826 237.104 207.227 238.812 206.865 240.24C206.15 243.063 202.177 244.759 199.683 245.58C196.634 246.585 193.416 247.279 190.294 248.02C188.774 248.382 187.234 248.69 185.688 248.917C185.087 249.005 184.39 248.969 183.828 249.225C182.983 249.61 183.149 249.416 183.104 250.378C183.032 251.932 183.487 253.635 183.724 255.158C183.942 256.561 183.664 258.867 184.206 260.124C184.823 261.554 189.171 262.726 190.235 261.755C190.985 261.071 191.2 259.778 192.084 259.202C193.357 258.372 193.942 259.535 193.936 260.784C193.931 261.726 193.219 262.861 194.075 263.549C194.817 264.145 196.381 263.833 197.098 263.342C198.292 262.524 200.77 257.461 201.376 261.768C201.519 262.782 201.082 263.964 201.942 264.734C202.748 265.456 204.692 265.423 205.708 265.552C207.331 265.758 208.752 265.826 210.39 265.791C212.219 265.752 213.946 266.181 215.744 266.262C218.545 266.388 221.356 266.767 224.221 266.822C227.145 266.879 230.332 267.643 232.58 269.627C235.163 271.905 234.631 274.721 234.139 277.772C233.813 279.79 236.388 281.97 233.789 283.734C232.747 284.442 231.016 284.293 229.817 284.303C227.769 284.322 225.744 284.083 223.693 284.198C208.758 285.029 193.765 284.409 178.833 283.917C175.345 283.802 171.722 283.962 168.263 283.54C166.722 283.353 165.193 283.084 163.648 282.919C162.327 282.778 160.75 283.011 159.488 282.582C156.364 281.519 159.707 278.286 159.956 276.44C160.44 272.855 160.235 269.057 160.258 265.446C160.283 261.606 160.258 257.766 160.258 253.927C158.597 254.042 153.936 255.273 152.633 253.847C151.557 252.668 153.389 250.206 153.479 248.791C153.845 243.021 153.721 237.245 154.156 231.471C154.606 225.515 154.55 219.613 154.737 213.657C154.937 207.294 155.388 200.955 155.388 194.583C150.74 199.504 146.301 204.907 141.133 209.294C138.919 211.172 136.508 212.798 134.196 214.55C131.591 216.524 129.166 218.719 126.576 220.712C121.759 224.419 116.029 226.586 110.94 229.881C105.794 233.213 100.304 235.957 94.3808 237.606C87.9058 239.409 81.0393 240.008 74.339 239.663C71.1243 239.497 67.9257 239.084 64.7599 238.506C63.4401 238.265 62.1336 237.951 60.8134 237.715C58.9459 237.38 58.0358 237.692 56.2874 238.035C53.9901 238.484 53.4182 235.128 52.7369 233.515C51.4809 230.539 50.9372 227.287 49.8257 224.244C47.8819 218.921 46.0907 213.659 44.3709 208.246C43.9807 207.018 43.7207 204.888 42.2565 204.715C41.268 204.599 39.5656 205.701 38.5966 206.006C36.9115 206.535 35.3145 206.773 33.5596 206.816C32.0804 206.853 31.9036 207.407 30.9789 208.46C30.1314 209.424 28.6009 209.978 28.8887 211.379C29.059 212.208 29.9401 212.849 30.1047 213.786C30.6956 217.149 27.3194 214.241 26.1328 213.507C25.414 215.092 30.8445 216.852 28.8657 219.097C27.8966 220.196 25.8762 218.526 24.9119 218.099C22.6631 217.104 22.3212 219.811 21.7223 221.566C20.6232 224.787 19.8875 228.167 19.0451 231.462C18.2339 234.638 17.574 237.883 16.2938 240.914C15.1528 243.616 13.1658 245.38 11.7468 247.82C11.0485 249.02 10.2772 249.885 8.76775 249.942C7.74662 249.981 5.85775 249.579 4.89314 249.19C3.9822 248.822 2.99458 247.702 2.35769 246.999C1.47339 246.023 1.64815 245.08 0.93216 243.886C0.963237 244.485 1.09683 245.043 1.12912 245.629C-0.177754 244.6 1.12508 242.982 0.887763 241.678C0.813096 241.265 0.387293 240.919 0.363077 240.485C0.352583 240.307 0.731972 239.899 0.757399 239.652C0.787669 239.359 0.811482 238.507 0.728339 238.29C0.668202 238.134 0.16531 237.338 0.176208 237.482C0.168539 237.377 -0.00904697 237.211 0.0862038 236.863C0.230291 236.338 1.06575 236.245 0.999158 235.542Z" fill="#262526"/>
</svg>
