<svg width="342" height="256" viewBox="0 0 342 256" fill="none" xmlns="http://www.w3.org/2000/svg">
<path fill-rule="evenodd" clip-rule="evenodd" d="M264.783 37.4773C264.903 38.5175 266.194 37.7231 266.315 38.2869C266.391 38.6412 265.062 39.5204 264.775 39.7625C265.701 40.3207 266.884 39.0347 267.578 38.4958C267.935 38.884 268.056 39.0879 267.728 39.532C267.148 40.316 267.175 39.2772 266.485 39.8227C266.772 40.3051 267.025 40.0286 267.389 39.8989C267.231 40.827 267.586 40.2395 267.865 40.8273C268.091 41.3053 268.063 41.6586 268.131 42.1925C267.803 42.9442 267.476 43.6963 267.149 44.4481C266.756 45.3525 266.873 45.6433 265.91 45.3409C266.018 45.1533 266.739 44.2359 266.68 44.0103C266.613 43.7526 265.629 43.396 265.368 43.1794C264.911 42.7985 264.916 42.4719 264.624 42.0627C264.74 41.6822 264.65 41.5042 264.353 41.5298L264.025 42.4117C264.052 43.0374 264.58 42.9788 264.892 43.5766C265.37 44.4913 265.102 43.9515 264.712 44.6876C264.329 45.4108 264.286 46.3338 263.656 46.6974C263.995 46.8461 264.333 46.9948 264.672 47.1432C263.881 48.0107 265.525 47.5882 265.797 47.5041C265.519 48.0945 265.241 48.6849 264.963 49.2754C264.13 48.809 263.718 47.9249 263.164 47.1947L261.896 49.5505C262.317 49.5115 262.737 49.473 263.157 49.434C263.098 49.5448 262.56 50.3046 262.606 50.4735C262.794 51.1624 264.224 50.7739 264.066 51.675C264.046 51.7905 262.764 53.0834 262.544 53.2082C263.188 53.4976 263.48 53.3775 263.249 54.1376L262.351 53.595C262.097 54.0524 261.801 54.4991 261.639 55.0001C261.67 55.3278 261.612 55.6381 261.464 55.9315C261.287 56.194 261.089 56.4388 260.868 56.6656C260.693 57.1263 260.637 59.6411 260.847 60.0512C261.318 59.4435 262.369 60.5163 260.595 60.5163C259.818 60.5163 259.87 60.3546 259.573 61.0372C259.339 61.5744 259.213 62.0431 259.875 62.0947C259.377 63.0756 259.484 63.8314 259.439 64.8769C259.402 65.7238 259.165 66.5657 258.989 67.3966C259.146 67.1701 259.304 66.9439 259.462 66.7174C259.886 67.6235 259.563 68.3865 259.361 69.3562C258.92 68.7737 258.866 69.8129 258.489 69.7055C257.719 69.4859 258.295 69.3242 257.983 68.8196C257.712 68.3825 257.74 68.2571 257.239 67.99C256.574 67.6358 255.41 67.6225 254.658 67.4974C253.394 67.2865 252.128 67.2336 250.849 67.1781C246.063 66.9705 241.293 66.9173 236.507 67.1804C232.103 67.4225 227.594 68.0399 223.276 68.8762C218.679 69.7663 214.183 70.5873 209.731 72.0931C208.871 72.3842 208.01 72.9913 207.15 73.2045C206.334 73.4071 205.516 73.4044 204.666 73.6998C202.629 74.407 200.522 74.9432 198.469 75.6181C196.258 76.3456 193.864 76.9523 191.759 77.9592C190.845 78.3967 190.015 78.9898 189.101 79.4328C188.24 79.8503 186.792 80.2312 186.338 81.1952C186.16 81.5711 186.191 81.8435 186.301 82.233C186.522 83.0147 186.696 82.9302 187.296 82.8773C188.131 82.8035 189.211 82.1538 190.022 81.8984C192.241 81.1992 194.487 80.6393 196.744 80.0792C200.797 79.0729 204.867 77.2913 208.866 76.5944C211.238 76.1813 213.486 75.0576 215.871 74.6332C216.394 74.5404 217.909 73.7936 218.338 74.0517C218.452 74.1199 218.731 74.9395 218.829 75.1355C219.181 75.8393 219.585 76.5189 220.058 77.1493C221.484 79.05 223.396 80.5808 225.103 82.2187C227.052 84.0898 228.746 86.1538 230.546 88.1623C230.702 87.981 230.858 87.7997 231.014 87.6188C230.849 88.8871 231.799 89.8019 232.576 90.6631C233.498 91.6863 234.239 92.648 234.966 93.8145C235.563 94.7712 236.326 95.6088 237 96.4803C237.662 97.3379 238.103 98.3727 238.713 99.2968C240.113 101.419 241.49 103.583 242.902 105.677C243.567 106.662 244.091 107.771 244.617 108.893C245.035 109.784 246.291 111.605 246.291 112.469C246.201 112.892 247.118 115.437 246.138 114.238C245.981 114.48 245.825 114.722 245.667 114.964C245.936 114.852 246.204 114.739 246.472 114.627C245.658 115.364 247.179 115.459 247.212 115.871C247.077 116.002 246.941 116.133 246.806 116.263C246.574 116.74 246.273 116.802 245.903 116.449C245.495 116.474 245.413 116.246 244.958 116.398C245.392 117.076 245.952 116.647 246.172 117.585C246.366 118.411 245.752 118.588 245.104 119.076L245.064 119.107L245.049 119.156C244.908 119.578 244.507 119.398 244.061 119.306C242.993 119.086 241.813 118.665 240.773 118.34C238.526 117.64 236.261 117.049 233.937 116.569C228.635 115.475 223.375 115.527 218.025 115.181C218.165 114.595 218.166 114.646 217.999 114.283C218.213 114.749 216.921 114.141 217.895 115.17C215.409 115.576 212.724 115.27 210.202 115.406C210.32 115.144 210.589 114.844 210.337 114.654C209.143 116.381 205.154 115.64 203.182 115.888C202.025 116.033 200.881 116.311 199.727 116.495L199.241 116.571C198.836 116.635 198.431 116.706 198.035 116.813C197.525 116.95 196.676 117.515 196.192 117.384C196.9 115.957 196.084 117.192 195.973 117.208C195.637 117.258 195.058 117.371 194.576 117.371C195.126 115.162 196.07 113.127 196.45 110.851C196.687 109.433 197.338 107.148 195.936 106.143C195.168 105.592 193.908 105.473 193.018 105.286C192.043 105.08 190.339 105.089 189.49 104.538C188.828 104.107 188.688 103.711 187.82 103.382C186.819 103.002 186.357 102.625 185.345 102.932C185.757 102.416 186.333 102.04 185.526 101.514C185.195 101.299 184.546 101.588 184.43 101.117C183.831 101.541 183.973 101.883 183.812 102.463C183.827 102.709 183.891 102.943 184.007 103.165C183.689 103.293 183.372 103.421 183.055 103.548C183.256 103.006 182.665 103.329 182.547 103.063C182.371 102.665 182.475 102.057 182.475 101.625C181.821 101.831 181.137 102.087 180.851 102.768C180.05 102.29 180.368 102.258 180.779 101.541C180.107 101.382 179.964 101.728 179.862 102.285C179.508 102.175 179.152 102.066 178.798 101.957C179.597 101.951 179.789 101.326 179.808 100.648C179.497 100.749 179.186 100.85 178.875 100.951C178.811 101.28 178.747 101.608 178.683 101.936C178.193 102.351 176.919 101.602 176.505 101.387C175.064 100.64 174.536 100.423 174.739 98.725C174.909 97.3013 175.285 95.8706 175.369 94.4396C175.462 92.8499 175.276 91.1498 175.137 89.5651C174.867 86.4985 174.432 83.4764 174.279 80.3972C174.197 78.73 174.106 77.0625 174.04 75.3943C173.988 74.0684 173.53 72.6094 175.185 72.4916C174.982 71.8497 175.588 71.1072 176.213 70.7556C176.432 70.2576 176.67 70.2131 176.93 70.6225C177.156 70.6934 177.365 70.6601 177.559 70.5221C178.47 70.3155 179.562 69.0232 180.38 68.5572C181.182 68.1005 182.93 67.4365 183.502 66.6675C184.056 65.9233 183.218 66.0072 183.388 65.3252C183.619 64.3932 184.46 65.7317 184.589 65.918C184.87 65.6356 185.944 65.106 185.931 64.6956C185.668 64.6487 185.405 64.6018 185.142 64.5549C185.43 64.3889 186.067 63.8932 186.402 63.8277C186.97 63.7163 186.756 63.5722 187.212 64.1986C187.37 63.9531 187.755 63.1465 187.997 62.9831C188.112 62.905 188.796 62.8531 188.939 62.8025C189.683 62.5394 189.608 61.9603 190.155 61.6848C190.421 61.5514 190.747 61.7564 190.97 61.6592C191.326 61.5035 191.327 60.9723 191.65 60.7797C191.93 60.6127 192.638 60.7515 192.972 60.63C193.525 60.4281 193.5 60.2402 193.913 59.8716C194.491 59.355 195.024 59.4299 195.668 59.0384C196.336 58.6325 196.234 57.7188 196.84 57.5445C197.649 57.312 197.856 58.0784 198.296 57.3213C198.395 57.1513 197.946 56.8972 198.228 56.6244C198.575 56.2884 198.719 56.6893 198.878 56.9504L199.428 55.9135C200.309 56.3959 199.939 55.7738 200.611 55.4425C200.91 55.2955 201.155 55.5859 201.482 55.4083C201.723 55.2779 201.764 54.9938 201.937 54.8178C202.269 54.4795 202.453 54.0152 202.967 53.8542C202.781 53.912 204.304 53.8681 204.168 53.8029C204.02 53.5854 203.872 53.3678 203.724 53.1503C204.521 53.1503 205.217 53.2295 205.989 52.99C206.262 52.9055 206.689 52.7751 206.916 52.6014C207.54 52.1241 207.399 52.2405 207.399 51.3637C208.261 51.9119 209.357 51.7203 210.207 51.0846C210.651 50.7526 210.935 50.3555 211.422 50.0554C211.631 49.9473 211.843 49.8462 212.059 49.7524C212.329 49.473 212.599 49.4703 212.87 49.7447C213.253 49.6419 213.249 49.5711 213.546 49.3851C213.631 49.2168 213.722 49.0515 213.819 48.8895C214.138 48.8562 214.452 48.7987 214.762 48.7169C215.965 48.3932 216.691 47.5902 217.808 48.3017C217.951 48.0107 218.094 47.7193 218.236 47.4279C218.711 48.1703 219.036 47.4612 219.667 47.1604C219.932 47.0344 220.275 47.0031 220.514 46.888L220.917 46.9835C221.032 46.6309 221.145 46.2783 221.259 45.9257C221.489 46.0152 222.4 46.5045 222.674 46.4785C223.066 46.4416 223.535 45.7773 223.916 45.6519C224.496 45.4607 224.288 45.7135 224.858 45.7175C225.296 45.7204 225.502 45.7827 225.881 45.4148C224.601 45.0824 226.215 44.9258 226.755 44.8133C227.595 44.6384 228.027 44.8253 228.611 44.1617H228.005C228.603 43.6178 228.402 43.8098 229.031 43.863C229.229 43.8793 230.091 44.3526 230.093 43.7213C230.906 44.2006 230.915 44.2016 231.754 43.9854C232.125 43.8896 232.441 43.5779 232.849 43.5706C233.247 43.5636 233.533 43.7436 233.888 43.705C234.101 43.6824 234.845 43.4033 235.096 43.3118C235.495 43.1664 235.758 42.8561 236.139 42.736C236.559 42.6033 237.093 42.7609 237.534 42.6641C238.846 42.3754 239.616 41.5904 241.036 42.0155C241.188 40.7445 242.772 41.0272 243.624 41.1583C244.218 41.2498 244.52 41.4899 245.134 41.1992C245.635 40.9627 245.92 40.5875 246.476 40.3985C246.904 40.2535 247.479 40.1481 247.925 40.0556C248.201 39.9684 248.483 39.9405 248.77 39.9721C249.059 40.0126 249.302 40.1385 249.497 40.349L249.533 40.3906C249.578 40.2856 250.25 39.7879 250.172 39.8494C250.674 39.4479 250.909 39.6012 251.218 38.8195L250.142 38.5926C250.696 38.5554 251.112 38.4915 251.604 38.7067C251.944 38.8554 252.516 39.6434 252.857 39.6441C253.474 39.6448 253.689 38.7763 253.628 38.3242C254.145 39.5287 254.587 39.7293 255.748 39.1136C255.885 39.041 256.021 38.9689 256.158 38.8963C256.434 38.6066 256.709 38.6119 256.982 38.9126L257.469 39.1778C257.664 38.8528 257.859 38.5281 258.055 38.2031C258.469 38.7739 258.863 38.8019 259.539 38.6685C260.005 38.5763 260.962 37.7318 261.306 37.7321C261.505 37.7321 261.759 38.2178 262.092 38.3126C262.641 38.4702 263.496 38.0737 263.692 37.5475C263.796 37.767 263.9 37.9869 264.004 38.2068C264.264 37.9639 264.524 37.7218 264.783 37.4773ZM245.046 119.103L245.045 119.121L245.064 119.107L245.064 119.106L245.046 119.103ZM244.371 117.957V118.98L244.718 119.043L245.046 119.103L245.049 119.047C245.064 118.555 244.812 118.19 244.371 117.957ZM213.762 113.887C213.654 114.219 213.546 114.55 213.438 114.882C213.802 114.911 214.166 114.941 214.529 114.971C214.273 114.61 214.018 114.249 213.762 113.887ZM171.042 87.6774C171.837 87.9095 171.826 87.8813 171.986 88.6171C172.894 92.805 170.083 97.6083 172.147 101.589C166.114 101.54 160.069 101.661 154.072 102.368C154.072 100.087 154.147 97.8116 153.974 95.5346C153.896 94.5011 153.779 93.4713 153.674 92.4404C153.541 91.1322 153.583 91.2087 154.654 90.9835C155.216 90.8651 155.417 90.5085 155.955 90.2912C156.358 90.1279 156.539 90.3288 156.937 90.3847C157.649 90.4852 157.657 90.3658 158.309 90.2267C159.709 89.9283 160.897 90.0348 162.003 88.99C162.576 88.9404 162.39 89.4713 162.79 89.4194C163.08 89.3815 163.265 88.8393 163.562 88.7099C164.483 88.3064 166.018 88.4048 167.026 88.2788C168.057 88.1504 168.968 87.6857 169.955 87.548C170.361 87.4914 170.657 87.5649 171.042 87.6774ZM182.679 99.7641C182.484 100.488 181.63 99.5456 181.617 100.114L181.618 100.165L181.62 100.153C181.665 100.055 182.528 101.199 182.477 101.161C182.941 101.51 183.212 101.477 183.738 101.076C182.796 101.04 182.9 100.46 182.679 99.7641ZM185.302 100.787C185.646 100.976 185.751 100.493 185.929 100.198C185.545 100.007 185.488 100.452 185.302 100.787ZM184.239 97.6369C184.372 98.1073 184.363 98.4678 184.363 98.9535C185.157 98.8411 185.407 98.7832 185.422 97.9379L184.997 98.2051C184.774 97.7636 184.725 97.7294 184.239 97.6369ZM178.089 98.4243C178.269 98.3085 178.449 98.1924 178.629 98.0763C178.363 97.6944 177.891 98.1485 178.089 98.4243ZM180.099 91.3969C180.328 91.2765 180.558 91.1561 180.788 91.0357C180.192 90.2756 180.148 90.5307 180.099 91.3969ZM179.268 85.3681H178.365C178.542 85.9489 179.268 86.074 179.268 85.3681ZM267.784 51.5779C267.99 51.6983 268.197 51.8187 268.403 51.9388C267.867 52.4274 267.208 52.9201 267.73 53.4929C268.145 53.9476 270.081 54.1645 270.661 54.3301C270.46 54.5617 270.045 55.1943 269.771 55.3537C269.553 55.4797 269.355 54.9804 268.916 55.4777C269.644 55.855 269.449 55.5692 269.26 56.3692C269.148 56.8412 268.749 57.3482 268.525 57.7716C267.978 58.8018 267.418 59.8253 266.844 60.8409C265.667 62.9236 264.428 64.9716 263.125 66.9788C262.906 65.8451 263.534 64.5748 263.859 63.4811C264.269 62.1046 264.68 60.7288 265.092 59.3533C265.888 56.7029 266.603 54.08 267.784 51.5779ZM236.188 55.0364C235.6 55.1864 235.214 55.2842 234.606 55.4392C235.489 55.7206 235.489 55.7206 236.188 55.0364ZM262.242 49.9273C261.491 50.2786 261.411 50.5337 262.018 50.9635C262.091 50.6292 262.143 50.3841 262.242 49.9273ZM262.151 41.615C262.049 42.0611 261.418 41.632 261.278 41.958C260.958 42.7037 261.975 42.6026 262.342 42.5577C262.278 42.2434 262.214 41.9293 262.151 41.615ZM266.403 41.0489C266.202 42.0025 266.202 42.0025 267.132 42.1459C266.888 41.7787 266.684 41.4706 266.403 41.0489ZM249.533 40.3906L249.532 40.4007C249.533 40.4065 249.538 40.4093 249.549 40.4085L249.533 40.3906Z" fill="#FF6161"/>
<path fill-rule="evenodd" clip-rule="evenodd" d="M131.926 140.28C131.785 141.006 131.432 141.348 131.802 142.015C132.115 142.581 133.015 142.952 133.619 142.809L131.926 140.28ZM115.569 114.452L112.591 115.472C113.405 116.271 114.18 117.111 115.078 117.82L115.569 114.452ZM164.693 117.066C163.272 116.35 161.681 116.269 160.124 116.178C160.361 117.456 160.598 118.735 160.835 120.013C162.121 119.031 163.407 118.048 164.693 117.066ZM130.586 216.025C130.303 215.523 128.369 211.645 127.967 211.844C127.754 211.949 127.738 214.109 127.706 214.416C127.596 215.508 127.484 216.6 127.374 217.692C128.517 217.289 129.739 216.954 130.586 216.025ZM117.078 184.672C117.371 185.529 117.663 186.386 117.956 187.243C118.095 187.651 118.176 188.252 118.422 188.612C118.742 189.078 118.501 189.352 118.928 188.842C119.386 188.293 119.523 186.83 119.722 186.158C120.024 185.138 120.326 184.117 120.628 183.097C119.204 183.085 118.341 184.257 117.078 184.672ZM87.1533 134.197C85.4023 135.394 83.6297 136.581 82.1062 138.069C83.4464 137.986 85.3125 138.908 86.5749 138.474C87.1576 138.599 87.3503 138.378 87.1533 137.81V136.631V134.197ZM113.116 142.664V149.652C114.751 148.258 116.472 146.964 118.045 145.5C116.402 144.554 114.76 143.609 113.116 142.664ZM171.562 160.77C171.046 163.881 171.017 167.082 170.876 170.23C170.851 170.789 170.635 171.63 171.008 172.119C171.381 172.61 172.445 172.882 172.986 173.144C174.508 173.882 176.02 174.64 177.537 175.387C175.545 170.515 173.553 165.642 171.562 160.77ZM210.198 141.639C213.952 139.793 217.707 137.948 221.461 136.102C217.78 134.543 214.099 132.985 210.418 131.427C210.345 134.831 210.271 138.235 210.198 141.639ZM171.554 150.327C172.24 150.377 172.348 147.763 172.462 147.072C172.678 145.76 172.899 144.449 173.127 143.139C173.581 140.52 174.059 137.904 174.562 135.294C175.568 130.074 176.677 124.874 177.907 119.703C176.585 119.464 175.372 119.293 174.081 118.909C173.039 118.598 171.798 118.767 170.868 118.121C170.747 120.544 171.352 123.12 171.576 125.544C171.835 128.348 171.975 131.137 171.952 133.953C171.906 139.412 171.699 144.871 171.554 150.327ZM85.1399 224.28C85.7905 224.106 84.9047 215.187 84.8651 213.901C84.752 210.177 84.73 206.45 84.7966 202.726C81.2912 204.924 77.7044 206.948 74.0014 208.774C74.9531 210.008 75.8449 211.34 76.8981 212.489C77.9831 213.672 79.2279 214.641 80.2334 215.916C82.2579 218.482 83.6446 221.395 85.1399 224.28ZM169.493 171.517C169.656 168.834 169.807 166.157 170.078 163.482C170.193 162.344 171.293 156.296 169.532 156.438C168.53 156.519 166.772 157.985 165.854 158.499C164.64 159.177 163.425 159.854 162.206 160.522C159.799 161.841 157.377 163.13 154.962 164.433C159.806 166.794 164.649 169.156 169.493 171.517ZM159.035 115.734C157.029 115.584 155.09 115.435 153.111 115.061C152.044 114.86 150.977 114.888 149.904 114.752C149.136 114.654 147.634 114.023 146.918 114.23C146.018 114.489 145.692 118.997 145.568 120.128C145.369 121.95 145.234 124.161 146.048 125.873C147.617 129.173 151.844 126.597 153.9 125.213C155.663 124.026 157.66 122.824 159.223 121.383C160.608 120.107 159.365 117.383 159.035 115.734ZM169.439 151.617C170.951 151.006 170.927 150.238 170.993 148.657C171.073 146.735 171.119 144.812 171.174 142.889C171.272 139.464 171.364 136.037 171.334 132.609C171.304 129.261 171.14 125.918 170.757 122.591C170.621 121.414 170.756 119.405 170.136 118.401C169.57 117.486 167.814 117.476 166.856 117.533C165.775 117.596 164.9 118.623 164.103 119.271C163.22 119.99 161.405 121.002 161.26 122.074C161.098 123.271 161.756 124.978 162.01 126.139C162.942 130.376 164.076 134.571 165.27 138.741C166.509 143.066 167.764 147.435 169.439 151.617ZM131.037 141.476C131.134 140.524 131.488 139.729 131.009 138.822C130.598 138.042 129.928 137.259 129.425 136.521C127.984 134.406 126.369 132.381 124.8 130.361C123.363 128.512 121.891 126.681 120.385 124.887C119.546 123.889 118.681 122.911 117.821 121.93C117.192 121.212 116.595 120.203 115.704 119.827C115.048 123.95 114.506 128.092 114.083 132.246C113.879 134.255 113.702 136.266 113.554 138.279C113.512 138.847 113.072 140.766 113.353 141.295C113.65 141.851 115.461 142.595 116.015 142.936C117.566 143.888 118.77 145.324 120.244 143.757C121.259 142.679 122.076 141.159 123.211 140.218C123.802 139.728 124.358 139.75 125.021 139.459C125.792 139.121 125.816 138.796 126.737 139.256C128.289 140.031 129.232 141.176 131.037 141.476ZM53.3492 162.693C53.3492 165.548 53.1539 167.895 55.0892 170.206C56.7804 172.226 58.5377 172.693 60.9164 173.491C62.3172 173.96 62.415 173.527 63.5499 172.735C64.6287 171.982 65.8032 171.379 66.867 170.602C69.1599 168.929 71.4511 167.203 73.6794 165.443C74.4285 164.852 74.3181 165.053 74.2043 164.343C74.1002 163.696 73.6359 162.873 73.3821 162.257C72.923 161.144 72.3821 160.066 71.841 158.991C71.2266 157.771 70.6913 156.446 69.9283 155.308C69.6116 154.836 69.2357 154.409 68.8661 153.979C68.0881 153.072 68.1157 153.106 67.1853 153.846C65.2211 155.411 63.3936 157.104 61.1829 158.327C58.5673 159.775 55.9581 161.232 53.3492 162.693ZM112.575 140.577C112.859 136.479 113.179 132.402 113.67 128.322C113.923 126.227 114.217 124.138 114.502 122.047C114.619 121.196 115.068 119.767 114.818 118.941C114.572 118.127 113.487 117.352 112.891 116.763C112.731 116.605 112.239 115.94 112.028 115.911C111.801 115.879 110.949 116.503 110.703 116.644C109.833 117.143 108.979 117.667 108.139 118.212C106.554 119.241 105.018 120.344 103.516 121.489C100.365 123.889 97.3604 126.471 94.2765 128.955C97.1019 131.431 100.58 133.354 103.739 135.36C105.606 136.546 107.484 137.719 109.386 138.849C110.35 139.422 111.468 140.298 112.575 140.577ZM73.9512 213.872C71.6696 215.381 69.4909 216.973 66.9106 217.941C64.3419 218.905 61.8032 219.276 59.1484 219.849C57.8096 220.138 56.5512 220.454 55.1847 220.656C54.419 220.769 53.2338 220.725 52.5356 221.049C51.9139 220.916 51.6923 221.128 51.8716 221.685C51.8783 221.858 51.8849 222.031 51.8916 222.204C52.0675 224.61 53.614 227.505 54.9628 229.461C55.7502 230.603 56.7534 231.666 57.7504 232.626C58.876 233.71 59.525 234.474 61.094 234.02C63.7389 233.255 66.073 231.713 68.7537 231.034C70.8743 230.496 72.6356 229.37 74.7036 228.787C77.254 228.067 79.7777 227.248 82.3633 226.647C81.2084 224.418 80.1756 222.097 78.697 220.054C77.1805 217.959 75.5083 215.945 73.9512 213.872ZM87.9443 138.856C92.7157 139.805 97.8873 140.685 102.158 143.148C103.824 144.109 105.937 145.595 106.425 147.583C107.008 149.96 104.714 151.431 102.798 152.173C100.498 153.064 97.9937 153.405 95.5561 153.686C94.2658 153.834 92.9695 153.916 91.6732 153.989C90.6241 154.049 88.8448 153.818 87.8858 154.234C87.285 154.115 87.0768 154.358 87.2611 154.965C87.2498 155.183 87.2388 155.401 87.2278 155.619L87.1284 157.578C87.0622 158.883 86.996 160.188 86.9295 161.493C86.7854 164.335 86.6411 167.177 86.497 170.019C88.9961 168.471 91.0103 166.254 93.4528 164.602C94.6141 163.816 95.767 163.029 96.9236 162.247C97.4086 161.919 97.705 161.459 98.1823 161.153C98.8153 160.747 99.3765 160.504 99.9702 159.972C102.395 157.804 105.092 155.929 107.664 153.938C108.832 153.033 110.111 152.202 111.223 151.231C112.387 150.215 112.226 149.378 112.197 147.916C112.167 146.369 112.735 144.448 112.472 142.956C112.693 142.45 112.523 142.135 111.963 142.011C111.588 141.772 111.214 141.532 110.839 141.293C110.092 140.815 109.346 140.338 108.599 139.86C105.628 137.961 102.658 136.061 99.6868 134.161C98.2029 133.212 96.719 132.263 95.2348 131.314C94.8203 131.049 93.4685 129.851 93.0034 129.887C92.5291 129.923 91.7061 130.849 91.3506 131.143C90.805 131.595 90.2755 132.071 89.686 132.466C89.3923 132.67 89.0856 132.851 88.7663 133.011C88.2557 133.06 88.0784 133.341 88.2337 133.852C87.7853 135.29 88.0318 137.345 87.9443 138.856ZM154.11 206.663C153.03 201.612 151.636 195.631 147.422 192.195C143.148 188.71 136.9 190.057 133.556 194.149C131.882 196.199 130.843 198.622 130.072 201.133C129.281 203.71 128.114 207.068 128.328 209.794C128.421 210.989 129.445 212.273 130.03 213.315C130.634 214.392 131.035 215.936 132.458 215.563C134.664 214.985 136.908 213.657 138.973 212.706C141.061 211.745 143.26 210.954 145.425 210.025C146.863 209.409 148.356 208.94 149.79 208.314C151.149 207.722 152.944 207.579 154.11 206.663ZM217.954 176.578C220.968 177.657 222.534 175.93 224.655 173.986C226.664 172.145 228.84 170.374 230.69 168.372C232.598 166.308 234.106 163.87 235.573 161.486C237.056 159.077 239.06 156.475 239.973 153.792C240.438 152.427 240.636 150.915 240.929 149.504C240.999 149.165 241.472 147.901 241.322 147.615C241.115 147.222 239.799 147.181 239.438 147.123C236.562 146.669 233.515 146.646 230.631 147.053C225.05 147.839 220.383 150.969 218.619 156.441C216.551 162.857 217.545 169.987 217.954 176.578ZM198.414 120.933C198.367 122.044 201.03 122.353 201.72 122.612C203.315 123.21 204.9 123.842 206.449 124.55C209.638 126.007 213.038 126.957 216.092 128.719C222.675 132.518 229.821 135.196 236.471 138.83C237.507 139.397 239.532 140.761 240.715 140.645C241.344 140.584 240.876 141.09 241.284 140.09C241.43 139.731 241.479 139.263 241.561 138.877C241.808 137.722 241.999 136.556 242.275 135.407C242.731 133.516 243.196 131.761 243.388 129.818C243.469 128.994 243.558 128.172 243.568 127.343C243.578 126.504 243.771 124.4 243.392 123.673C243.141 123.191 243.091 123.357 242.463 123.221C242.103 123.143 241.725 122.981 241.378 122.873C240.564 122.619 239.748 122.376 238.894 122.301C238.05 122.227 237.512 121.971 236.72 121.822C235.89 121.665 235.037 121.855 234.191 121.637C233.278 121.401 232.842 121.186 231.888 121.276C230.963 121.363 230.697 121.158 229.791 120.906C229.035 120.696 228.134 120.843 227.346 120.779C226.393 120.701 225.442 120.582 224.488 120.506C220.197 120.167 215.855 120.67 211.554 120.63C209.215 120.609 206.926 120.954 204.591 120.847C202.55 120.754 200.44 120.776 198.414 120.933ZM209.577 143.549C207.49 144.344 205.554 145.636 203.619 146.748C201.387 148.03 199.251 149.392 197.186 150.93C193.713 153.516 189.661 156.617 188.747 161.129C187.809 165.76 191.831 169.554 195.601 171.449C199.901 173.61 204.904 174.727 209.614 175.552C209.11 164.891 209.229 154.213 209.577 143.549ZM147.13 168.648C145.863 168.998 144.791 169.747 143.616 170.301C142.564 170.798 141.546 171.173 140.563 171.812C138.962 172.854 137.105 173.746 135.43 174.552C131.287 176.546 127.264 179.022 123.162 181.231C122.075 181.817 121.719 182.187 121.351 183.392C120.951 184.701 120.574 186.02 120.189 187.334C119.829 188.559 119.256 189.869 119.407 191.163C119.539 192.288 120.121 193.35 120.56 194.376C121.665 196.96 122.862 199.502 124.1 202.023C125.211 204.287 126.224 206.689 127.65 208.77C128.758 202.991 129.752 196.516 134.048 192.112C138.34 187.711 145.187 187.649 149.323 192.192C151.288 194.349 152.484 197.067 153.424 199.798C153.918 201.232 154.249 202.694 154.567 204.176C154.906 205.759 154.823 206.599 156.569 206.119C157.956 205.738 159.426 205.434 160.786 204.999C161.491 204.774 162.179 204.521 162.211 203.964C162.251 203.26 161.304 201.82 161.024 201.158C159.579 197.741 158.135 194.324 156.69 190.908C155.12 187.198 153.551 183.488 151.981 179.778C151.198 177.927 150.415 176.076 149.632 174.226C148.917 172.538 148.322 170.033 147.13 168.648ZM209.694 139.797C209.718 138.11 209.745 136.423 209.767 134.736C209.781 133.731 210.229 131.787 209.353 131.069C208.81 130.624 207.2 130.282 206.514 129.978C205.159 129.377 203.692 129.109 202.329 128.512C196.991 126.174 191.437 124.227 185.941 122.342C184.756 121.936 183.545 121.603 182.352 121.203C181.708 120.987 179.323 119.718 178.727 120.05C178.205 120.341 177.812 123.8 177.645 124.518C177.249 126.219 176.871 127.923 176.508 129.631C175.097 136.261 173.914 142.938 172.814 149.626C175.737 148.516 178.539 146.593 181.301 145.106C184.17 143.562 187.029 142.021 189.917 140.512C190.732 140.086 193.601 138.128 194.272 138.896C195.349 140.129 192.783 141.576 192.11 142.104C189.504 144.147 186.752 145.929 183.966 147.711C181.079 149.558 178.075 151.19 175.173 153.004C174.125 153.659 172.453 154.456 172.041 155.561C171.512 156.984 171.894 158.712 172.376 160.071C173.56 163.411 174.857 166.709 176.229 169.975C176.852 171.46 177.492 172.939 178.144 174.412C178.92 176.166 179.938 176.537 181.629 177.344C188.832 180.784 196.314 184.048 203.232 188.028C202.074 189.363 199.252 187.171 198.109 186.616C195.993 185.589 193.875 184.564 191.76 183.533C187.821 181.613 183.901 179.654 179.94 177.78C182.479 183.555 185.475 189.119 188.798 194.48C187.959 194.764 188.163 194.779 187.637 194.274C187.193 193.849 186.895 193.017 186.595 192.484C185.974 191.382 185.361 190.275 184.736 189.176C183.438 186.894 182.093 184.647 180.907 182.303C180.016 180.541 179.325 177.46 177.493 176.572C175.21 175.464 172.897 174.386 170.614 173.263C170.614 182.043 171.245 190.628 172.171 199.354C172.218 199.794 172.64 201.092 171.789 200.965C171.406 200.908 171.276 198.5 171.209 197.997C170.9 195.693 170.637 193.382 170.423 191.067C169.995 186.447 169.763 181.808 169.733 177.169C169.185 181.679 168.637 186.19 168.089 190.701L167.311 197.114C167.174 198.236 167.038 199.359 166.902 200.482C166.839 200.997 166.879 201.672 166.697 202.164C166.412 202.938 166.508 202.879 165.614 203.232C166.469 197.357 167.258 191.473 167.956 185.579C168.297 182.702 168.617 179.824 168.911 176.942C168.99 176.168 169.068 175.392 169.144 174.617C169.182 174.222 169.523 172.951 169.333 172.623C169.146 172.298 167.904 171.958 167.547 171.792C166.764 171.429 165.981 171.066 165.199 170.701C162.661 169.514 160.124 168.318 157.613 167.074C156.515 166.529 155.363 165.688 154.168 165.398C152.979 165.109 152.114 165.936 151.098 166.462C150.306 166.872 148.442 167.417 147.913 168.113C147.421 168.76 148.949 171.351 149.351 172.306C150.482 175 151.615 177.695 152.747 180.389C155.043 185.852 157.339 191.316 159.634 196.779C160.196 198.115 160.757 199.45 161.318 200.786C161.677 201.641 162.278 204.08 163.15 204.176C163.537 204.218 164.171 203.798 164.544 203.677C165.101 203.497 165.615 203.5 166.174 203.405C167.198 203.232 168.261 202.703 169.266 202.333C171.851 201.38 174.53 200.765 177.135 199.875C179.752 198.981 182.327 197.977 184.934 197.083C187.301 196.271 189.69 195.346 191.965 194.289C194.367 193.172 196.83 192.188 199.171 190.95C203.434 188.695 207.651 186.589 211.418 183.823C212.303 183.173 213.247 182.52 214.123 181.824C214.891 181.213 216.356 180.458 216.879 179.655C217.079 179.349 217.25 178.748 217.017 178.384C216.767 177.994 215.661 178.029 215.144 177.96C213.514 177.741 211.884 177.522 210.254 177.303C210.379 178.375 210.505 179.446 210.596 180.522C210.66 181.282 211.109 183.289 210.503 183.884C209.671 183.093 209.938 180.727 209.864 179.674C209.824 179.11 209.967 178.008 209.715 177.508C209.439 176.961 208.675 176.968 207.983 176.819C205.048 176.184 202.139 175.651 199.299 174.644C194.5 172.945 188.765 170.075 187.693 164.54C186.576 158.77 191.485 153.77 195.619 150.552C198.094 148.625 200.727 146.957 203.451 145.408C204.724 144.685 205.996 143.961 207.277 143.253C207.743 142.995 209.272 142.465 209.518 142.014C209.77 141.554 209.641 140.322 209.694 139.797ZM107.035 228.414C106.803 228.527 106.569 228.641 106.337 228.755C108.927 221.375 111.492 214.029 113.657 206.511C114.702 202.882 115.761 199.257 116.842 195.638C117.309 194.078 118.455 191.928 118.136 190.311C117.792 188.561 116.965 186.7 116.326 185.035C112.234 187.608 108.055 190.049 103.895 192.505C100.165 194.707 96.3717 196.666 92.6156 198.845C90.6909 199.961 88.7054 200.715 86.6966 201.627C85.0643 202.369 85.698 204.635 85.7216 206.149C85.8041 211.494 85.8001 216.857 86.1245 222.195C86.2426 224.139 86.0902 226.371 87.328 227.99C88.911 230.059 90.3793 232.168 91.8229 234.346C92.3638 235.162 94.636 239.58 95.4833 239.483C96.0364 239.42 96.5457 237.631 96.8225 237.207C97.4189 236.293 98.2907 235.506 99.0844 234.77C102.512 231.59 106.315 229.35 110.268 227.026C114.284 224.665 118.394 222.467 122.486 220.228C123.41 219.722 124.406 219.357 125.324 218.84C125.687 218.636 126.406 218.311 126.635 217.947C126.977 217.4 126.861 215.887 126.932 215.234C127.078 213.9 127.339 212.514 127.354 211.171C127.367 209.843 126.569 208.703 125.991 207.546C123.451 202.463 120.984 197.369 118.775 192.133C117.033 198.213 115.204 204.264 113.495 210.353C112.603 213.533 111.527 216.66 110.48 219.791C109.946 221.39 109.408 222.987 108.874 224.587C108.458 225.832 108.242 227.656 107.035 228.414ZM143.506 113.83C142.16 113.845 140.94 113.647 139.623 113.366C139.14 113.263 138.716 113.22 138.226 113.177C137.671 113.128 137.167 112.827 136.68 112.768C136.312 112.724 135.67 112.878 135.319 112.996C134.505 113.269 134.53 113.131 134.497 114.076C134.443 115.537 134.403 116.998 134.323 118.457C134.008 124.202 133.397 129.89 132.562 135.579C132.392 136.729 131.919 138.237 132.179 139.379C132.414 140.408 133.303 141.508 133.891 142.372C135.099 144.148 137.945 145.025 139.947 145.529C142.059 146.06 144.251 146.256 146.257 146.729C146.812 146.861 147.45 146.629 148.043 146.761C148.591 146.883 149.016 147.183 149.522 147.401C150.763 147.933 152.149 148.032 153.43 148.443C155.97 149.258 158.689 149.209 161.232 149.992C161.882 150.192 162.443 150.696 163.069 150.869C163.64 151.027 164.229 150.841 164.828 150.929C166.096 151.116 167.278 151.549 167.57 152.91C168.346 152.297 168.453 152.458 168.319 151.509C168.233 150.9 167.894 150.159 167.709 149.572C167.236 148.076 166.76 146.581 166.288 145.084C165.352 142.124 164.423 139.16 163.561 136.178C162.79 133.509 162.089 130.821 161.476 128.112C161.164 126.735 160.904 125.351 160.637 123.966C160.559 123.565 160.636 122.926 160.232 122.658C159.866 122.416 159.011 123.286 158.624 123.567C155.922 125.524 149.725 131.313 146.346 127.898C144.527 126.059 144.634 122.826 144.831 120.45C144.952 118.99 145.209 117.549 145.496 116.113C145.567 115.755 146.005 114.604 145.845 114.349C145.672 114.074 143.868 113.911 143.506 113.83ZM238.448 145.782C239.167 145.862 239.886 145.943 240.605 146.024C240.54 145.443 240.599 144.569 240.379 144.028C240.075 143.28 239.33 143.196 238.51 142.886C237.214 142.396 235.893 141.97 234.611 141.443C231.83 140.298 229.061 139.137 226.278 137.992C225.058 137.491 223.625 136.669 222.3 137.079C220.872 137.521 219.462 138.422 218.127 139.082C216.615 139.829 215.104 140.578 213.593 141.327C212.885 141.678 212.176 142.029 211.467 142.38C210.354 142.932 210.206 142.987 210.118 144.247C209.671 150.691 209.704 157.385 209.899 163.838C209.999 167.13 209.887 170.441 210.123 173.728C210.141 173.981 210.122 175.408 210.281 175.602C210.504 175.877 212.073 175.969 212.448 176.038C213.909 176.305 215.381 176.394 216.858 176.526C216.51 169.031 215.232 160.17 219.081 153.315C222.947 146.427 231.211 144.935 238.448 145.782ZM171.236 72.0456C171.67 71.0583 172.416 70.2247 173.054 69.3585C173.399 68.8902 173.996 68.3303 174.217 67.7825C174.531 67.0028 174.529 67.1698 174.06 66.4869C173.616 65.8415 173.625 65.793 172.938 65.6775C172.36 65.5804 171.744 65.7454 171.154 65.6396C170.557 65.5325 168.916 65.0296 169.292 64.0795C169.276 64.1211 170.225 63.6531 170.299 63.5719C170.537 63.3121 170.613 62.7583 170.731 62.4443C171.11 61.4377 171.243 60.7861 170.82 59.7143C170.189 58.114 167.694 57.6403 166.14 58.1788C165.363 58.4476 164.921 59.0178 164.572 59.7343C164.35 60.1893 164.298 60.8469 164.012 61.2431C163.579 61.8395 163.553 61.7733 162.656 61.6679C161.515 61.5338 160.579 61.0954 159.497 60.7897C158.319 60.4564 157.553 61.1343 156.524 61.6809C154.666 62.6681 152.872 63.0108 150.79 63.1674C148.472 63.3421 146.324 62.7832 144.029 62.6392C144.625 65.3818 146.165 67.6085 147.395 70.092C147.611 70.5288 147.961 70.9752 147.969 71.4804C147.978 71.9565 147.289 72.6041 147.366 72.998C147.532 73.8382 149.381 74.5108 150.082 74.7473C152.064 75.4156 154.32 76.7239 156.501 76.1983C157.696 75.9102 158.34 74.0222 159.465 73.8834C160.975 73.6965 159.845 75.6404 159.565 76.309C161.707 76.6347 164.423 76.3586 166.474 75.6321C167.502 75.2682 168.372 74.725 169.311 74.1865C170.479 73.5159 170.722 73.3316 171.236 72.0456ZM133.743 112.864C129.923 112.927 126.047 112.378 122.219 112.883C121.332 113 120.457 113.188 119.586 113.388C118.959 113.532 116.97 113.654 116.552 114.12C116.171 114.544 116.169 116.5 116.09 117.051C115.916 118.279 115.962 118.702 116.745 119.651C119.32 122.774 122.002 125.804 124.54 128.961C126.978 131.994 128.978 135.383 131.442 138.373C132.758 134.543 132.837 129.946 133.198 125.93C133.391 123.788 133.566 121.645 133.731 119.502C133.887 117.46 134.42 114.81 133.743 112.864ZM84.3029 153.232C84.7447 153.232 85.4492 153.37 85.8787 153.232C86.4691 153.42 86.6663 153.198 86.4711 152.568C86.4804 152.347 86.4897 152.126 86.4994 151.905C86.5609 150.483 86.6288 149.06 86.6946 147.638C86.7552 146.337 86.814 145.036 86.8653 143.735C86.9005 142.847 87.3492 140.645 86.9903 139.843C86.7492 139.304 86.178 139.427 85.4831 139.348C84.8222 139.273 84.1592 139.204 83.5019 139.101C82.6677 138.971 81.743 138.672 80.8941 138.859C80.0412 139.047 79.4211 139.835 78.7519 140.336C77.6927 141.128 76.6107 141.89 75.5425 142.67C73.6013 144.088 71.6796 145.531 69.7546 146.971C68.9596 147.565 68.8069 147.359 69.1945 148.213C69.4343 148.74 69.9795 149.338 70.3115 149.814C70.9724 150.764 71.6307 152.203 72.4786 152.973C73.7124 154.094 77.1356 153.382 78.7745 153.374C80.6432 153.365 82.4448 153.394 84.3029 153.232ZM89.1402 153.139C90.7608 152.981 92.398 153.049 94.0087 152.831C95.7597 152.594 97.4981 152.243 99.2458 151.98C100.988 151.718 106.289 150.659 105.765 148.058C105.213 145.309 101.155 143.663 98.9094 142.739C95.4028 141.295 91.7417 140.523 88.0531 139.707C87.5904 142.171 87.6569 144.816 87.5724 147.313C87.5265 148.67 87.4863 150.027 87.487 151.385C87.487 151.712 87.3749 152.389 87.5082 152.693C87.8216 153.408 88.1862 153.139 89.1402 153.139ZM83.8106 154.32H73.4669C74.9977 157.489 76.4447 160.717 78.0949 163.826C79.7385 166.923 81.8547 169.84 83.7195 172.813C84.1918 172.299 84.9453 171.741 85.2663 171.13C85.6219 170.453 85.6119 169.458 85.6701 168.674C85.8211 166.641 85.89 164.59 85.9412 162.552C85.9861 160.768 86.0646 158.995 86.2016 157.215C86.2316 156.824 86.6623 154.796 86.4159 154.463C86.196 154.166 84.263 154.323 83.8106 154.32ZM126.41 92.1038C128.155 92.1035 129.902 92.0815 131.647 92.1108C133.23 92.1377 135.293 91.862 136.743 92.6773C139.698 94.3378 133.792 98.6026 132.594 99.676C134.53 100.378 137.553 98.9848 139.449 98.3465C141.794 97.5574 144.184 97.0275 146.576 96.4095C147.173 96.2551 149.738 95.9528 150.062 95.4951C150.383 95.041 149.663 92.3017 149.591 91.7239C149.523 91.1807 149.58 90.3338 149.354 89.8229C149.493 89.2092 149.277 88.9939 148.708 89.1782C148.511 89.1776 148.314 89.1766 148.117 89.1759C146.662 89.1875 145.206 89.2551 143.752 89.3033C138.755 89.4696 133.878 89.6915 128.923 90.4715C126.62 90.8341 124.296 91.2802 122.005 91.7253C120.076 92.0998 120.4 92.4141 122.202 92.4188C123.611 92.4225 125.008 92.2132 126.41 92.1038ZM269.771 55.3537C270.067 55.0128 270.365 54.6715 270.661 54.3302C269.938 54.1236 269.214 53.9167 268.491 53.7102C267.721 53.4906 267.307 53.5408 267.65 52.6813C268.078 51.6045 270.035 51.4811 270.976 51.4406C274.215 51.3005 277.617 52.331 280.694 53.2388C282.195 53.6819 283.372 54.3675 284.643 55.2792C285.197 55.6774 285.837 56.0513 286.323 56.5296C286.827 57.0266 287.037 57.6632 287.53 58.1615C288.338 58.9785 289.373 59.3853 289.77 60.5645C290.225 61.918 289.682 63.4675 289.008 64.6477C288.325 65.8455 287.31 66.7513 286.486 67.8397C285.831 68.7032 284.465 71.0627 286.6 70.7892C287.729 70.6445 289.193 68.7192 290.006 67.9521C291.171 66.8521 292.316 65.7268 293.55 64.7022C294.643 63.7938 295.903 62.8624 297.366 62.7027C298.907 62.5344 299.677 63.521 300.429 64.7209C301.137 65.8525 301.251 66.9572 301.749 68.1155C301.99 68.674 302.296 68.9853 302.437 69.594C302.655 70.5304 302.677 71.552 302.788 72.5066C302.962 74.0058 303.126 75.1847 302.836 76.6537C302.564 78.0285 302.49 79.4888 302.26 80.8875C302.001 82.4715 301.785 84.0629 301.529 85.6476C301.313 86.9901 300.489 88.9021 301.297 90.1505C303.239 93.1506 305.569 88.7342 306.182 87.0843C307.261 84.185 307.81 81.0156 308.761 78.0567C309.271 76.4744 309.716 74.877 310.008 73.2388C310.249 71.8839 310.13 70.2334 310.873 69.0266C311.45 68.0892 312.476 67.3773 313.603 67.6634C315.013 68.0217 315.554 70.0594 315.969 71.2982C317.064 74.5653 316.661 77.5079 316.215 80.8399C316.009 82.3827 315.812 83.9278 315.458 85.445C315.219 86.4685 314.228 88.5402 315.701 89.0967C317.788 89.8864 320 83.8982 320.595 82.5461C322.153 79.0044 322.749 75.4921 323.391 71.6973C323.538 70.8248 323.651 69.9337 323.872 69.0761C324.064 68.3297 324.637 67.5753 324.689 66.8288C324.74 66.0817 324.246 65.5605 324.752 64.827C325.174 64.2166 325.936 64.1797 326.625 64.1743C328.242 64.1617 329.789 64.8719 331.294 65.3871C332.694 65.8665 334.766 66.9183 336.275 66.5797C331.538 61.7707 326.814 57.0163 321.165 53.2711C318.541 51.5317 315.916 49.8602 313.081 48.4418C310.209 47.0051 306.918 46.0348 303.842 45.1656C302.169 44.6926 300.505 44.1567 298.854 43.6142C297.383 43.1312 295.903 43.0397 294.463 42.4919C291.334 41.302 287.839 40.841 284.599 39.9974C283.169 39.6252 281.723 39.3058 280.289 38.9609C278.782 38.5983 276.665 37.9686 275.13 38.0298C273.819 38.0821 273.377 39.5846 272.746 40.6297C271.83 42.1469 271.05 43.7233 270.329 45.3416C268.854 48.6574 267.297 52.0829 266.242 55.547C265.663 57.449 265.091 59.3531 264.522 61.2581C264.03 62.9073 262.798 65.2864 263.125 66.9788C265.551 63.2403 267.81 59.3577 269.771 55.3537ZM156.829 89.1114C155.542 89.1699 154.254 89.2281 152.967 89.2867C154.251 93.5045 154.072 97.9959 154.072 102.368C160.069 101.661 166.114 101.54 172.147 101.589C171.039 99.4511 171.468 96.6773 171.784 94.3877C171.969 93.0475 172.072 91.7565 172.045 90.4043C172.02 89.136 172.385 88.0695 171.042 87.6774C169.975 87.3663 169.302 87.8846 168.286 88.1211C167.07 88.4042 165.745 88.4384 164.506 88.5924C161.929 88.9128 159.443 89.1007 156.829 89.1114ZM122.271 97.3256C126.136 96.2535 130.243 96.6487 134.127 95.8337C133.244 95.0274 131.579 95.505 130.406 95.5722C129.072 95.6481 127.739 95.7036 126.405 95.7685C125.104 95.832 121.496 95.7336 121.027 97.3888C121.441 97.3678 121.856 97.3465 122.271 97.3256ZM263.689 37.5568C258.632 38.0006 253.335 37.9317 248.314 38.8142C242.564 39.8248 236.57 40.4588 230.994 42.2397C225.526 43.9871 219.948 45.2102 214.556 47.2619C209.315 49.2564 204.267 51.3783 199.332 54.0461C196.916 55.3517 194.565 56.7358 192.262 58.2354C190.014 59.6993 187.55 60.8995 185.372 62.4513C183.433 63.8327 181.76 65.0997 180.069 66.7922C178.261 68.6018 176.503 70.4602 174.693 72.2668C173.183 73.774 174.139 77.459 174.235 79.4648C174.368 82.2457 174.597 84.9873 174.938 87.7499C175.262 90.3824 175.596 93.2118 175.167 95.8387C174.987 96.943 174.366 98.8507 174.663 99.9531C174.9 100.836 176.475 101.483 177.278 101.771C178.261 102.123 179.264 101.975 180.272 102.422C181.398 102.923 182.348 103.547 183.544 103.81C185.017 104.134 186.675 104.407 188.189 104.417C189.59 104.426 190.996 104.88 192.392 105.159C194.664 105.614 196.882 105.756 196.741 108.496C196.577 111.657 195.323 114.37 194.576 117.371C195.586 117.371 196.29 117.436 197.215 117.077C198.295 116.66 199.447 116.549 200.581 116.368C203.088 115.969 205.532 115.842 208.055 115.587C212.678 115.121 217.38 115.177 222.006 115.226C224.348 115.251 226.889 115.432 229.199 115.796C231.569 116.17 234.023 116.404 236.319 117.122C238.257 117.727 240.257 118.14 242.233 118.674C243.124 118.915 244.191 119.111 245.033 119.38C246.252 119.771 246.904 120.604 248.312 120.586C247.915 117.978 246.985 115.558 246.423 112.972C245.837 110.271 244.668 107.881 243.377 105.333C242.801 104.197 242.375 102.99 241.82 101.844C241.202 100.569 240.335 99.513 239.589 98.3208C238.064 95.8823 236.436 93.5365 234.938 91.0806C233.63 88.9364 232.136 86.881 230.704 84.8113C229.13 82.5357 226.942 80.8183 225.156 78.7307C224.402 77.8488 223.684 77.0295 222.839 76.2202C222.061 75.4751 220.957 73.8259 219.766 73.7487C219.081 73.7041 217.895 74.0893 217.242 74.2959C216.033 74.6788 214.751 74.9283 213.502 75.2652C212.136 75.6341 210.794 76.1141 209.425 76.4647C208.878 76.6048 208.227 76.5382 207.708 76.6969C207.165 76.8632 206.732 77.2295 206.138 77.3974C203.209 78.2284 200.297 79.1717 197.346 79.9282C194.308 80.7072 191.224 81.3705 188.28 82.4739C187.718 82.6844 187.093 83.1821 186.662 82.8551C186.34 82.6109 186.133 81.9213 186.218 81.5189C186.5 80.179 188.643 79.695 189.675 79.1571C192.44 77.7155 195.188 76.6989 198.159 75.7199C199.623 75.2383 201.082 74.724 202.566 74.3079C203.807 73.9603 205.098 73.3722 206.367 73.1942C207.495 73.0359 208.296 72.5915 209.416 72.198C211.066 71.6182 212.763 71.1422 214.44 70.6469C217.306 69.8 220.343 69.444 223.276 68.8762C230.069 67.5606 237.122 66.902 244.054 66.9835C247.548 67.0247 251.204 66.9226 254.658 67.4974C255.491 67.6358 257.241 67.6092 257.815 68.3566C258.124 68.7578 257.957 69.3549 258.036 69.7896C258.17 70.5234 258.57 70.8654 258.917 71.534C259.654 67.9162 260.502 64.3753 261.454 60.8104C262.314 57.5841 263.111 54.2993 264.261 51.1182C265.479 47.7526 266.954 44.184 268.773 41.1038C269.148 40.4697 270.082 39.4625 270.162 38.7533C270.245 38.0215 269.219 37.4547 268.515 37.3732C266.934 37.1906 265.242 37.5033 263.689 37.5568ZM297.664 89.2507C298.179 84.2322 299.683 78.9828 298.843 73.9443C298.487 71.8114 298.209 69.7753 297.142 67.85C296.603 66.8764 296.387 66.1612 295.357 66.7353C294.314 67.3165 293.355 68.7518 292.49 69.5837C290.902 71.1129 289.239 72.6876 287.337 73.8232C285.838 74.7174 282.863 75.5649 281.736 73.6306C280.663 71.7871 282.094 69.2145 283.122 67.6937C284.298 65.9536 286.525 64.342 285.275 62.1951C284.737 61.2711 283.963 61.0289 283.15 60.4225C282.445 59.8976 281.855 59.2177 281.151 58.6835C279.11 57.135 276.871 56.4717 274.514 55.5869C273.426 55.1781 273.283 54.7936 272.655 55.7279C271.972 56.7428 271.598 58.1652 271.104 59.2875C270.116 61.5358 269.061 63.6661 267.787 65.7624C266.5 67.878 265.36 70.088 264.145 72.2455C263.686 73.0595 263.254 73.8868 262.712 74.6508C262.417 75.0666 262.051 75.4372 261.811 75.8923C261.457 76.5652 261.615 77.1786 261.394 77.8485C260.44 80.7392 259.05 76.7039 258.784 75.7605C258.482 74.6874 257.753 73.8508 257.281 72.8499C256.891 72.0233 256.625 70.7949 255.683 70.4057C254.911 70.087 253.916 70.5244 253.129 70.567C251.682 70.6455 250.224 70.5284 248.771 70.6189C247.412 70.7034 246.056 70.8338 244.698 70.917C243.338 71.0005 241.98 70.7706 240.638 70.9136C238.23 71.1704 235.768 71.1292 233.366 71.4851C230.546 71.9022 227.756 72.3473 224.928 72.6946C225.585 73.937 226.947 74.4759 228.024 75.3624C228.986 76.1547 229.748 77.0691 230.717 77.8229C231.701 78.588 232.285 79.7196 233.099 80.639C233.897 81.5395 234.636 82.2946 235.334 83.3021C238.707 88.1673 242.186 92.8529 244.968 98.1113C246.376 100.773 247.72 103.62 248.682 106.476C249.714 109.538 250.22 112.823 250.833 115.989C251.139 117.568 251.299 118.9 250.964 120.487C250.876 120.865 250.785 121.242 250.69 121.619C250.397 122.069 250.505 122.361 251.016 122.495C251.315 122.931 251.723 123.094 251.749 123.689C251.768 124.142 251.517 124.666 251.127 124.921C250.375 125.413 250.375 124.748 249.6 124.896C249.309 125.053 249.018 125.21 248.728 125.367C248.574 125.134 248.416 124.903 248.254 124.675C247.76 124.205 247.367 124.248 246.721 124.134C247.049 127.915 246.526 131.291 245.693 134.979C245.293 136.753 244.607 138.489 244.261 140.265C243.875 142.25 244.719 143.154 246.025 144.478C245.693 144.651 245.113 144.839 244.839 145.098C244.404 145.51 244.515 145.56 244.516 146.205C244.516 147.386 244.29 148.55 244.104 149.711C243.761 151.862 243.447 154.087 242.707 156.146C241.362 159.886 239.188 163.77 236.973 167.064C235.734 168.908 234.492 171.002 232.938 172.593C231.379 174.189 229.834 175.799 228.278 177.4C225.217 180.552 221.872 182.729 218.204 185.088C216.752 186.023 215.222 187.047 213.973 188.21C212.704 189.393 211.016 190.22 209.498 191.079C208.821 191.462 208.34 192.013 207.609 192.327C206.922 192.622 206.443 192.719 205.867 193.106C204.438 194.067 202.895 194.888 201.322 195.612C199.403 196.496 197.515 197.524 195.545 198.278C194.647 198.621 193.802 198.996 192.933 199.398C191.992 199.833 190.977 200.118 190.011 200.581C189.196 200.973 188.37 201.2 187.54 201.52C186.862 201.782 186.329 202.205 185.638 202.478C184.202 203.046 182.895 203.351 181.5 204.02C179.646 204.908 177.449 205.322 175.497 205.962C173.316 206.676 171.055 207.387 168.818 207.893C167.866 208.108 167.055 208.39 166.135 208.716C165.536 208.929 164.849 209.045 164.186 209.247C162.352 209.806 160.519 210.345 158.675 210.821C155.074 211.75 151.394 212.865 147.901 214.126C146.069 214.787 144.212 215.583 142.455 216.425C140.468 217.376 138.328 217.926 136.335 218.868C132.484 220.687 128.646 222.56 124.839 224.47C122.841 225.473 120.87 226.506 118.918 227.597C118.21 227.993 117.435 228.157 116.732 228.545C115.812 229.053 115.057 229.798 114.114 230.301C110.482 232.241 106.775 234.069 103.438 236.523C101.692 237.808 99.8162 239.124 98.3074 240.688C97.8094 241.204 96.9465 242.003 96.8564 242.751C96.7237 243.859 96.8481 242.84 97.2316 243.523C97.7628 243.588 97.8829 243.792 97.5932 244.135C97.4595 244.296 97.2882 244.378 97.0796 244.382C96.4087 244.517 95.1536 243.807 94.6144 243.509C93.68 242.994 93.1841 242.343 92.584 241.479C91.2807 239.603 90.009 237.711 88.6668 235.862C87.4597 234.199 86.2782 232.368 84.9047 230.841C83.9733 229.806 83.9034 230.258 82.8676 230.842C82.0969 231.276 81.2017 231.461 80.4031 231.87C77.3598 233.429 74.0144 234.58 70.8929 235.667C70.1821 235.914 69.8032 236.307 69.1785 236.648C68.3828 237.084 67.3749 237.297 66.524 237.606C64.1799 238.458 61.8475 239.343 59.52 240.24C57.7231 240.933 55.9963 241.478 54.5896 242.757C54.0298 243.266 53.3522 243.63 52.7741 244.145C52.1008 244.743 51.1904 245.717 50.3428 246.056L49.8266 246.459C49.4773 246.216 49.1277 245.974 48.7774 245.732C48.4301 245.491 48.0825 245.252 47.7359 245.011C46.8654 244.406 46.0012 243.792 45.136 243.179C43.1738 241.788 41.1989 240.411 39.3737 238.841C36.1315 236.053 32.7672 233.415 29.3769 230.804C25.8187 228.063 22.3496 225.195 18.6692 222.619C15.3335 220.284 11.6941 218.312 8.45988 215.848C6.83194 214.608 5.208 213.359 3.5458 212.158C3.45532 212.093 2.10281 211.263 2.08924 211.171C2.06622 211.001 2.51129 210.558 2.64268 210.416C3.26472 209.74 3.95395 209.138 4.57365 208.454C7.46196 205.269 11.2331 205.38 15.2191 205.23C17.0267 205.161 18.9869 205.995 20.7037 206.563C22.8029 207.256 24.8281 208.275 26.8558 209.154C31.0348 210.967 35.3478 212.516 39.569 214.195C41.2288 214.855 42.8824 215.177 44.5699 215.63C46.2819 216.091 48.0456 215.652 49.8768 215.685C50.8271 215.702 51.7256 215.757 52.6826 215.704C53.2507 215.672 53.9054 215.564 54.4665 215.573C54.9213 215.581 55.3933 215.769 55.8117 215.721C57.6436 215.514 59.5785 215.223 61.4679 214.985C63.3437 214.748 65.2793 214.631 67.1304 214.261C68.0625 214.074 68.9822 213.811 69.879 213.495C70.6574 213.22 72.0725 212.909 72.7111 212.353C73.2826 211.856 73.0328 211.849 72.7141 211.038C72.5881 210.717 72.4577 210.231 72.2707 209.922C71.7654 209.087 71.2771 208.824 71.5712 207.779C72.0891 205.938 73.8544 204.762 75.3656 203.855C78.7698 201.813 81.8833 199.193 85.4678 197.46C92.8538 193.89 99.585 189.253 106.788 185.332C114.705 181.023 122.195 175.966 130.223 171.839C137.695 167.997 145.133 164.133 152.668 160.412C156.347 158.596 160.508 156.934 163.846 154.552C161.996 154.323 160.141 154.026 158.286 153.862C157.425 153.786 156.553 153.856 155.698 153.72C154.74 153.567 153.835 153.18 152.88 153.019C151.237 152.741 149.76 152.178 148.115 151.97C146.352 151.747 144.626 151.229 142.854 151.084C139.149 150.781 135.805 149.414 132.557 147.692C131.753 147.265 131.092 147.509 130.322 147.219C129.897 147.06 129.447 146.423 128.97 146.08C127.657 145.138 126.53 144.025 125.282 142.995C122.659 148.882 117.508 152.886 112.593 156.835C110.103 158.835 107.401 160.53 104.885 162.492C102.935 164.014 101.164 165.376 99.0828 166.586C97.0839 167.746 95.2062 169.315 93.3005 170.709C92.0089 171.655 90.495 172.368 89.1215 173.189C87.9992 173.86 85.8081 174.86 85.5021 176.076C85.2516 177.07 85.7403 178.253 84.2234 177.796C82.8653 177.387 81.8807 175.88 81.0896 174.817C79.0439 172.069 77.1356 169.228 75.2362 166.378C74.216 168.37 72.4563 169.804 70.8297 171.28C69.8414 172.177 68.8156 173.009 67.7482 173.81C67.2306 174.198 66.707 174.579 66.1884 174.967C65.9842 175.12 65.5211 175.355 65.3887 175.57C65.0794 176.075 65.2673 175.846 65.3156 176.456C65.3907 177.411 65.7094 178.162 65.1689 179.078C64.6613 179.937 63.5546 180.304 62.7789 180.89C60.9334 182.287 58.9928 183.772 56.9454 184.862C56.4807 185.11 56.0412 185.324 55.6085 185.628C54.886 186.133 55.0181 186.316 54.2899 185.832C53.1513 185.074 52.1677 183.815 51.1401 182.901C48.9873 180.986 46.8105 179.095 44.6058 177.24C40.4042 173.704 36.0786 170.344 31.9292 166.745C27.9861 163.324 23.759 160.38 19.6881 157.129C18.5714 156.237 17.4684 155.327 16.3664 154.417C15.3851 153.607 13.7927 152.714 13.0669 151.677C12.0128 150.172 16.1362 148.114 17.3803 147.808C19.5255 147.28 22.2993 147.582 24.4478 148.015C26.7031 148.469 28.9997 149.988 31.1056 150.934C33.4793 152 35.897 152.922 38.2883 153.928C39.3547 154.377 40.4854 154.735 41.4753 155.34C42.5258 155.982 43.4635 156.713 44.5805 157.251C45.8678 157.871 47.2054 158.449 48.5592 158.907C49.1726 159.115 49.8329 159.323 50.4775 159.407C51.3903 159.526 51.2665 159.105 52.0246 158.871C52.669 158.671 52.822 159.198 53.4014 159.345C53.947 159.483 54.3548 159.343 54.8271 159.05C55.8803 158.396 56.8176 157.495 57.8711 156.814C58.8484 156.183 59.9258 155.592 60.8419 154.877C61.2504 154.559 61.5524 154.122 61.9549 153.798C62.5999 153.279 62.8557 153.485 63.6088 153.128C64.2245 152.836 64.783 152.291 65.3688 151.931C65.7324 151.707 66.6142 151.424 66.8487 151.062C67.4647 150.111 66.4133 149.45 65.4716 149.731C65.3305 148.909 64.6064 146.959 64.9191 146.189C65.1958 145.508 65.9223 145.636 66.5334 145.275C68.8299 143.919 70.5247 141.456 72.6732 139.863C74.6986 138.361 76.4856 136.568 78.4921 135.038C80.2108 133.728 82.0892 132.449 83.6543 131.036C85.5048 129.365 87.8738 128.066 89.8856 126.574C91.9639 125.034 93.8953 123.32 95.9513 121.763C97.9295 120.264 99.8724 118.699 101.905 117.272C103.732 115.99 105.647 114.819 107.436 113.519C108.416 112.807 109.487 112.182 110.606 111.714C111.718 111.249 112.691 110.704 113.777 110.203C115.936 109.208 118.747 108.521 121.094 108.236C123.674 107.923 126.266 107.641 128.871 107.639C130.259 107.638 131.607 107.902 132.986 107.986C134.253 108.063 135.624 108.383 136.882 108.341C137.452 108.322 137.947 108.081 138.499 108.159C138.96 108.224 139.361 108.502 139.855 108.55C140.956 108.659 142.062 108.551 143.175 108.693C145.732 109.02 148.293 109.485 150.855 109.745C153.585 110.021 156.291 110.073 159.007 110.539C161.661 110.994 164.331 111.465 166.97 111.991C172.577 113.109 178.243 114.2 183.761 115.86C185.051 116.247 186.349 116.616 187.589 117.148C188.191 117.406 188.769 117.719 189.397 117.912C190.295 118.188 190.472 118.293 190.935 117.538C191.732 116.24 192.172 114.524 192.75 113.112C193.322 111.714 194.016 110.306 194.348 108.847C193.384 108.694 192.167 108.991 191.172 109.025C189.956 109.066 188.753 109.04 187.537 109.033C185.088 109.018 183.173 108.295 180.856 107.535C178.903 106.895 176.302 106.528 174.812 105.061C174.013 104.275 173.747 104.137 172.546 104.278C171.335 104.42 170.138 104.665 168.915 104.706C164.306 104.859 159.717 105.663 155.086 105.822C153.833 105.865 150.7 106.459 150.906 104.334C150.948 103.893 151.286 103.51 151.352 103.056C151.423 102.57 151.301 102.076 151.225 101.6C151.043 100.475 150.854 99.35 150.673 98.2244C146.451 99.5795 142.175 100.678 137.872 101.751C136.088 102.196 133.221 103.22 131.377 102.658C129.595 102.116 130.627 99.6045 131.182 98.4023C127.641 99.2106 123.863 100.533 120.252 100.836C119.153 100.928 118.084 101.172 117.828 99.8433C117.624 98.7849 118.389 97.4906 118.779 96.5608C116.007 96.3134 113.137 96.337 113.659 92.7844C114.137 89.5248 116.844 88.8759 119.727 88.2804C123.286 87.545 126.92 87.2998 130.501 86.7047C133.617 86.1868 137.017 85.6093 140.2 85.8708C141.884 86.0088 143.579 86.0404 145.263 86.1964C146.058 86.27 146.822 86.393 147.591 86.6099C148.301 86.8095 149.293 87.4285 150.02 87.4395C151.118 87.4568 152.441 85.9726 153.622 85.6296C155.084 85.2045 156.66 85.1273 158.17 85.0232C159.883 84.9058 161.598 84.8403 163.309 84.7016C163.699 84.67 165.174 84.7664 165.482 84.5379C165.93 84.2049 165.632 82.4972 165.601 81.7956C165.571 81.1466 165.696 79.9312 165.247 79.6767C164.824 79.4379 163.593 79.7655 163.177 79.832C161.454 80.1081 159.816 80.0765 158.099 80.0063C157.306 79.9741 156.544 80.1853 155.759 80.0812C154.916 79.9698 154.068 79.6863 153.229 79.5287C151.411 79.187 149.755 78.7619 148.188 77.7434C146.813 76.8496 145.186 76.2445 144.417 74.6791C143.855 73.5328 143.626 71.3208 145.281 70.9948C144.154 69.3692 143.376 67.543 142.779 65.6646C142.67 65.3239 142.598 64.811 142.436 64.514C141.864 63.4635 142.395 64.3952 141.579 63.9751C140.772 63.5603 140.191 63.232 139.56 62.5105C138.555 61.3599 138.132 59.9438 138.005 58.4446C137.833 56.4085 137.511 54.1126 137.808 52.0869C138.323 48.5779 140.888 45.9413 143.493 43.8191C144.908 42.6668 146.771 42.2377 148.43 41.5385C150.031 40.8633 151.821 40.1554 153.508 39.9971C155.031 39.854 156.516 39.3567 158.041 39.1562C160.137 38.8801 162.235 38.9832 164.341 38.8994C165.31 38.8608 166.277 38.7241 167.242 38.6199C167.787 38.5611 168.708 38.6239 169.207 38.408C170.024 38.0541 169.583 38.7972 169.874 37.7148C170.429 35.6558 170.882 33.7248 171.723 31.724C172.506 29.8599 173.457 28.0776 174.714 26.4839C175.893 24.989 177.422 23.8956 178.81 22.6186C179.84 21.6726 181.007 20.818 182.181 20.053C182.852 19.6155 183.6 19.379 184.255 18.9928C185.07 18.5138 185.788 18.1506 186.704 17.8572C188.67 17.2279 190.621 16.5596 192.709 16.5925C194.96 16.6278 197.217 16.1039 199.408 16.7681C203.477 18.0019 205.471 22.4121 205.403 26.4619C206.795 26.1147 208.011 25.4461 209.485 25.3888C210.843 25.3363 212.456 25.454 213.79 25.7062C216.379 26.1955 219.041 27.6345 220.585 29.8153C222.057 31.8953 222.277 34.6569 221.373 37.0166C220.939 38.1463 220.253 39.1512 219.521 40.1055C218.985 40.8054 217.788 41.5801 217.731 42.5178C227.751 39.4891 237.811 37.3542 248.176 35.9725C253.43 35.2722 258.692 35.6229 263.952 35.2227C266.198 35.0517 268.64 35.2909 270.962 35.2999C271.943 35.3038 272.706 35.1675 273.417 34.5328C274.137 33.8908 274.712 33.1044 275.551 34.0312C275.765 34.2677 275.81 34.8398 276.098 35.0178C276.447 35.2333 277.463 35.0853 277.881 35.1109C279.341 35.2001 280.767 35.4479 282.201 35.7333C284.832 36.2572 287.446 36.7868 290.046 37.4517C294.996 38.7181 299.881 39.9428 304.76 41.446C309.738 42.9799 314.769 44.8722 319.359 47.3551C321.582 48.5576 323.803 50.0588 325.847 51.5463C326.798 52.2382 327.649 52.9867 328.476 53.8209C329.36 54.7127 330.44 55.3145 331.315 56.2129C333.219 58.1672 335.115 60.2402 336.842 62.3575C337.744 63.4628 338.571 64.6287 339.374 65.8069C339.937 66.6335 341.422 68.1471 341.08 69.2148C340.898 69.785 340.261 70.1838 339.678 70.0441C339.483 69.9975 339.321 69.7447 339.155 69.7208C338.592 69.6409 339.104 69.4427 338.447 69.7091C337.141 70.239 336.724 71.3018 335.065 71.06C332.245 70.6485 329.592 69.3166 327.027 68.1554C326.295 70.9562 326.191 73.8598 325.549 76.6942C324.924 79.4595 323.881 82.0966 322.622 84.633C321.518 86.8584 320.1 89.2301 318.145 90.8205C316.653 92.0339 312.972 93.5415 311.876 90.9579C311.411 89.8605 312.103 88.1554 312.299 87.026C312.562 85.5105 312.852 83.9907 313.011 82.4599C313.139 81.2162 313.204 79.9651 313.324 78.72C313.427 77.6489 313.713 75.3494 313.111 74.4034C312.748 73.8332 312.716 74.3927 312.505 74.9619C312.249 75.6521 312.036 76.3367 311.849 77.0475C311.45 78.558 311.091 80.0789 310.714 81.5947C310.041 84.3031 309.299 86.9522 307.896 89.3875C306.65 91.5499 304.897 93.9223 302.231 94.2766C300.984 94.4423 299.357 93.8718 298.405 93.0312C297.336 92.0882 297.655 90.5327 297.664 89.2507Z" fill="#262526"/>
<path fill-rule="evenodd" clip-rule="evenodd" d="M236.809 199.847C238.274 199.558 239.507 198.389 240.703 197.511C242.228 196.391 243.676 195.17 245.157 193.994C247.948 191.776 250.481 189.345 252.889 186.7C257.641 181.483 261.218 174.768 262.844 167.906C263.667 164.434 264.684 160.367 264.217 156.779C264.055 155.532 263.808 155.304 262.585 155.162C262.034 155.098 260.633 154.94 260.136 155.156C258.848 155.719 258.153 158.114 257.771 159.317C256.643 162.871 255.979 166.551 254.959 170.133C253.96 173.645 252.349 177.208 250.757 180.491C247.213 187.797 242.287 193.909 236.809 199.847ZM265.863 159.51C264.987 169.459 262.225 178.938 256.031 186.95C253.088 190.758 249.626 194.071 245.873 197.081C241.998 200.189 238.041 203.116 233.645 205.434C232.475 206.051 231.303 206.665 230.119 207.254C229.462 207.58 227.805 208.782 227.047 208.592C226.441 208.439 226.282 207.97 226.187 207.359C225.975 205.988 226.866 205.304 227.766 204.424C231.384 200.887 235.012 197.338 238.395 193.576C245.074 186.146 250.092 177.249 252.881 167.649C253.741 164.693 254.507 161.704 255.435 158.769C256 156.981 256.801 153.799 258.678 152.907C259.685 152.429 260.858 152.894 261.916 152.608C262.909 152.339 263.567 151.791 264.413 152.71C265.898 154.324 265.964 157.488 265.863 159.51Z" fill="#262526"/>
<path fill-rule="evenodd" clip-rule="evenodd" d="M1.23414 216.914C0.492687 217.177 0.461751 217.437 0.122127 216.675C-0.0488498 216.29 -0.00261297 215.764 0.0376364 215.364C0.134102 214.407 0.637717 213.524 1.05152 212.675C4.94606 215.888 8.98995 218.783 13.1659 221.622C17.6319 224.657 21.896 228.032 26.1199 231.394C29.9023 234.406 33.7303 237.328 37.4732 240.377C39.2784 241.847 41.3364 242.987 43.0525 244.503C44.4393 245.727 46.7392 246.276 47.9214 247.717C46.048 248.837 43.5468 249.738 41.4708 248.769C39.1806 247.701 37.424 246.308 35.3859 244.86C34.3357 244.114 33.2437 243.437 32.1769 242.715C31.2392 242.08 30.5769 241.153 29.6276 240.558C27.6324 239.306 25.5857 237.927 23.6926 236.498C21.748 235.03 19.5985 233.862 17.7224 232.302C15.7991 230.702 13.6462 229.642 11.6381 228.186C7.38231 225.1 3.6348 221.629 1.23414 216.914Z" fill="#262526"/>
<path fill-rule="evenodd" clip-rule="evenodd" d="M116.056 53.0473C116.003 53.3314 115.95 53.6155 115.897 53.8999C115.929 53.9072 118.476 48.9874 118.898 48.3933C120.329 46.3792 122.191 44.7034 123.986 43.0212C127.789 39.458 132.239 36.582 135.966 32.9552C137.192 31.762 139.389 29.9541 138.904 27.9367C138.422 25.9315 134.353 26.339 132.96 26.9191C130.775 27.8289 129.001 29.7316 127.373 31.3895C125.597 33.198 123.807 34.9863 122.303 37.033C120.68 39.2401 119.139 41.6304 118.145 44.1918C117.031 47.0611 116.596 50.0306 116.056 53.0473ZM116.892 61.8503C115.164 62.3832 117.33 62.7431 116.653 63.6665C115.911 64.6791 114.663 61.5592 114.476 60.9701C113.376 57.4897 113.868 53.2615 114.469 49.7279C114.772 47.9453 114.968 46.1334 115.377 44.3701C115.776 42.6507 116.646 41.0167 117.449 39.4526C119.056 36.3232 121.185 33.4076 123.601 30.8559C126.024 28.2959 128.725 25.7346 131.923 24.1585C134.565 22.8569 138.753 23.76 139.99 26.6031C141.254 29.5084 139.545 32.6731 137.523 34.7159C134.887 37.38 132.014 40.0261 129.053 42.3233C127.531 43.5042 126.255 44.9322 124.777 46.1643C123.203 47.4759 121.841 48.7952 120.678 50.4913C119.551 52.1349 118.391 53.7771 117.659 55.6429C116.857 57.686 116.892 59.6888 116.892 61.8503Z" fill="#262526"/>
<path fill-rule="evenodd" clip-rule="evenodd" d="M47.7689 187.137C43.7979 184.58 39.8135 182.335 36.3554 179.074C32.9412 175.855 29.9581 172.224 26.158 169.431C24.262 168.037 22.3051 166.728 20.4426 165.289C18.675 163.923 16.6432 162.753 15.0456 161.195C12.916 159.117 8.92899 155.257 11.6496 152.159C15.0266 156.175 19.6599 159.341 23.8841 162.39C28.3381 165.605 32.4263 169.356 36.6511 172.858C40.721 176.232 44.7772 179.638 48.7485 183.101C49.7914 184.011 50.7973 184.966 51.8524 185.862C51.9815 185.971 53.0752 186.664 53.0752 186.848C53.0752 187.291 52.2276 187.567 51.9256 187.69C51.4489 187.884 50.1596 188.367 49.6191 188.204C49.3357 188.118 49.3307 187.887 49.1264 187.75C49.009 187.528 48.872 187.32 48.7163 187.124C48.4003 187.129 48.0846 187.133 47.7689 187.137Z" fill="#262526"/>
<path fill-rule="evenodd" clip-rule="evenodd" d="M281.544 142.554C278.713 142.481 274.404 142.473 274.562 146.338C274.641 148.252 275.679 149.658 276.531 151.295C277.427 153.016 278.09 154.793 278.353 156.722C279.416 164.528 276.564 172.154 273.985 179.37C279.524 174.9 283.524 168.679 285.624 161.861C286.643 158.555 287.039 154.305 286.71 150.862C286.545 149.14 285.91 147.595 285.145 146.06C284.761 145.289 284.376 144.409 283.764 143.785C283.15 143.159 282.299 142.951 281.544 142.554ZM271.669 183.841C269.84 180.834 272.719 176.406 273.661 173.473C274.786 169.967 275.825 166.317 276.306 162.66C276.81 158.83 276.159 155.852 274.384 152.468C272.796 149.444 271.854 145.415 273.619 142.215C274.33 140.927 275.379 140.769 276.627 140.255C278.158 139.624 278.58 138.558 280.46 138.727C283.813 139.028 285.364 142.208 286.612 144.918C289.52 151.235 288.73 159.387 286.249 165.73C284.821 169.38 283.193 173.169 280.769 176.277C279.581 177.801 278.184 179.122 276.734 180.393C275.166 181.768 273.761 183.425 271.669 183.841Z" fill="#262526"/>
<path fill-rule="evenodd" clip-rule="evenodd" d="M80.1755 74.1703C75.7547 75.0587 71.7205 77.0513 71.0123 82.0196C70.3686 86.5348 73.4442 90.7121 77.221 92.8257C81.3058 95.1123 86.4241 95.4922 90.4943 92.9581C94.779 90.2903 95.751 84.9441 93.1431 80.7499C90.2332 76.0693 85.3584 74.6879 80.1755 74.1703ZM83.0166 72.0041C88.2809 72.7755 93.1677 76.522 94.941 81.5678C96.7692 86.7693 95.0894 92.4881 90.2495 95.3381C80.4682 101.098 67.3952 91.4988 69.7559 80.4651C70.3553 77.6636 72.0574 75.4942 74.37 73.8539C76.923 72.0427 80.0102 71.9935 83.0166 72.0041Z" fill="#262526"/>
<path fill-rule="evenodd" clip-rule="evenodd" d="M270.189 19.182C263.846 16.3139 257.503 13.4459 251.16 10.5779C250.899 13.4532 250.639 16.3282 250.379 19.2036C250.308 19.9816 250.02 21.0401 250.143 21.8078C250.274 22.6271 249.994 22.5396 251.062 22.4232C252.428 22.2739 253.798 21.9366 255.15 21.6954C257.58 21.2616 260.165 21.1379 262.544 20.4999C263.758 20.1742 264.92 20.1333 266.152 19.9364C267.505 19.7202 268.822 19.3197 270.189 19.182ZM248.732 24.7404C248.732 21.5015 249.092 18.3061 249.388 15.0822C249.655 12.1816 249.758 9.41665 250.704 6.65308C251.589 8.25939 254.038 8.90139 255.554 9.728C257.642 10.867 259.866 11.7055 262.004 12.7431C264.103 13.7619 266.126 14.9318 268.228 15.9484C269.293 16.464 270.375 16.945 271.439 17.4645C272.105 17.7899 273.685 18.3134 274.099 18.9175C275.356 20.751 271.052 20.9283 270.221 21.09C267.729 21.576 265.208 21.8497 262.721 22.3494C260.402 22.8157 258.079 23.2485 255.752 23.6713C253.449 24.0897 251.076 24.7404 248.732 24.7404Z" fill="#262526"/>
<path fill-rule="evenodd" clip-rule="evenodd" d="M53.144 104.923C55.6415 104.664 58.1286 104.29 60.6234 104.043C62.9858 103.809 65.0755 103.56 67.2336 102.478C64.2861 101.589 61.332 100.748 58.3595 99.9445C56.8852 99.5463 55.414 99.1249 53.9331 98.753C52.7875 98.4649 51.7889 98.2993 51.3485 97.0489C50.8359 95.5932 52.2612 95.8138 53.1497 96.1837C54.3751 96.6936 55.71 97.0106 56.98 97.4347C59.8148 98.3811 62.6668 99.2516 65.5282 100.112C66.4177 100.38 71.5716 101.369 69.7145 103.088C68.9198 103.824 67.1465 104.229 66.1748 104.757C64.9284 105.435 63.5716 105.705 62.1852 105.975C59.2955 106.537 56.2968 106.753 53.3716 107.241C51.8777 107.49 50.3841 107.739 48.8906 107.988C48.0154 108.134 47.6784 108.119 47.4499 107.144C47.2836 106.434 47.5005 105.725 47.6602 105.038C48.0653 103.293 48.516 101.556 48.9621 99.8211C49.1317 99.1591 49.4321 96.2492 50.0226 95.9309C51.3621 95.2087 50.3286 99.2373 50.2291 99.7306C49.8532 101.591 49.4068 103.439 49.2059 105.328C50.5215 105.209 51.8334 105.085 53.144 104.923Z" fill="#262526"/>
<path fill-rule="evenodd" clip-rule="evenodd" d="M88.5586 119.737C89.0543 120.981 88.2313 121.26 87.2327 121.691C85.9374 122.25 84.6634 122.84 83.3445 123.344C80.57 124.403 77.7755 125.386 75.0671 126.611C69.9016 128.947 64.6662 131.191 59.5808 133.692C58.3171 134.314 57.0524 134.933 55.7774 135.532C54.4588 136.151 52.9466 137.193 51.5359 137.547C50.3055 137.856 50.1771 136.98 50.9062 136.173C51.8463 135.132 53.2996 134.355 54.4801 133.631C59.3386 130.653 64.6412 128.229 69.9478 126.18C76.0813 123.812 82.2315 121.54 88.5586 119.737Z" fill="#262526"/>
<path fill-rule="evenodd" clip-rule="evenodd" d="M102.041 49.1425C101.864 45.3591 102.37 41.5653 102.068 37.7918C96.88 42.3909 99.436 49.4984 102.42 54.4887L102.041 49.1425ZM104.287 48.9263C104.32 50.7744 104.425 52.6216 104.245 54.4604C104.056 56.3907 104.962 57.385 106.142 58.8067C105.14 59.8239 102.84 57.4522 102.205 56.753C100.897 55.3133 99.9243 53.4006 99.0584 51.6719C97.2143 47.9892 95.9443 44.0465 97.4202 40.0032C97.9674 38.5047 98.6366 36.4673 100.085 35.5947C101.676 34.6367 102.893 35.9879 103.553 37.3777C105.164 40.7686 103.936 45.2865 104.287 48.9263Z" fill="#262526"/>
<path fill-rule="evenodd" clip-rule="evenodd" d="M159.249 236.995C161.641 237.185 163.998 237.372 166.39 237.523C165.977 234.244 165.564 230.965 165.151 227.685C163.767 228.006 162.383 228.326 160.999 228.646C160.345 228.797 159.341 228.837 158.762 229.164C158.546 229.214 158.329 229.264 158.112 229.314C158.106 229.74 158.102 230.166 158.098 230.591C158.081 231.851 158.045 233.109 157.993 234.367C157.971 234.894 157.787 235.666 157.913 236.189C157.689 236.717 157.832 236.941 158.342 236.862C158.644 236.907 158.947 236.951 159.249 236.995ZM157.602 239.366C155.727 238.432 156.24 235.58 156.243 233.764C156.245 232.608 156.327 231.461 156.357 230.307C156.378 229.514 156.197 228.533 156.47 227.767C156.955 226.404 159.33 226.441 160.551 226.536C161.456 226.607 162.214 226.561 163.142 226.502C163.599 226.473 164.11 226.56 164.559 226.425C164.656 226.395 165.571 225.758 165.53 225.756C167.17 225.819 167.192 229.752 167.299 230.75C167.562 233.21 167.8 235.674 168.014 238.139C168.071 238.791 168.313 239.528 167.694 239.901C167.135 240.237 165.654 239.905 165.036 239.886C162.544 239.81 160.067 239.422 157.602 239.366Z" fill="#262526"/>
<path fill-rule="evenodd" clip-rule="evenodd" d="M274.651 93.2307C275.735 94.2063 275.214 95.2129 274.859 96.4317C274.645 97.1632 273.473 99.5648 273.796 100.249C274.17 101.04 275.927 101.235 276.679 101.485C277.987 101.92 279.302 102.357 280.54 102.97C281.09 103.243 283.072 103.869 283.444 104.377C283.657 104.668 283.734 104.896 283.574 105.272C283.293 105.931 282.892 105.582 282.207 105.441C279.077 104.794 275.974 103.967 273.072 102.604C272.262 104.482 271.577 106.4 270.893 108.328C270.692 108.892 270.5 110.176 269.738 110.267C268.809 110.378 268.796 109.134 268.858 108.462C268.948 107.481 269.456 106.436 269.763 105.507C270.016 104.741 270.904 103.145 270.794 102.356C270.72 101.812 270.388 101.85 269.798 101.637C269.24 101.435 268.682 101.234 268.124 101.03C267.231 100.703 266.34 100.375 265.471 99.9876C264.993 99.7747 263.994 99.5259 263.649 99.0842C263.448 98.8281 263.225 97.905 263.478 97.6495C264.069 97.0511 268.005 98.6617 268.815 98.8816C269.351 99.0276 269.891 99.1391 270.412 99.3303C270.609 99.4032 270.843 99.6986 271.056 99.7095C271.961 99.7554 272.033 99.0592 272.314 98.3125C272.966 96.5771 273.674 94.8068 274.651 93.2307Z" fill="#262526"/>
<path fill-rule="evenodd" clip-rule="evenodd" d="M48.9949 127.758C48.5122 126.575 53.6352 125.145 54.5862 124.747C56.9074 123.775 59.3942 123.187 61.7975 122.445C64.1609 121.715 66.514 120.93 68.8385 120.085C69.5573 119.824 74.7338 117.303 75.0046 117.672C75.9017 118.891 65.0391 122.722 63.9806 123.103C59.0655 124.873 53.9905 126.232 48.9949 127.758Z" fill="#262526"/>
<path fill-rule="evenodd" clip-rule="evenodd" d="M269.335 35.2281C268.007 35.2414 266.092 35.618 264.873 35.0791C266.36 35.1287 267.847 35.1786 269.335 35.2281Z" fill="#262526"/>
<path fill-rule="evenodd" clip-rule="evenodd" d="M83.0168 72.0062L80.064 71.9955C81.0492 71.767 82.0339 71.629 83.0168 72.0062Z" fill="#262526"/>
<path fill-rule="evenodd" clip-rule="evenodd" d="M236.789 71.2164C237.485 71.2127 238.181 71.2091 238.873 71.2051C238.175 71.2091 237.482 71.2127 236.789 71.2164Z" fill="#262526"/>
<path fill-rule="evenodd" clip-rule="evenodd" d="M297.664 89.252C297.658 89.9967 297.654 90.7415 297.647 91.4833C297.652 90.7375 297.658 89.9947 297.664 89.252Z" fill="#262526"/>
<path fill-rule="evenodd" clip-rule="evenodd" d="M160.547 226.535C159.808 226.588 159.068 226.642 158.33 226.695C159.069 226.642 159.808 226.588 160.547 226.535Z" fill="#262526"/>
<path fill-rule="evenodd" clip-rule="evenodd" d="M164.718 84.5886C163.967 84.6495 163.215 84.7107 162.465 84.7716C163.216 84.7104 163.967 84.6495 164.718 84.5886Z" fill="#262526"/>
<path fill-rule="evenodd" clip-rule="evenodd" d="M242.43 70.9705C242.962 70.9695 243.493 70.9685 244.02 70.9675C243.487 70.9689 242.959 70.9699 242.43 70.9705Z" fill="#262526"/>
<path fill-rule="evenodd" clip-rule="evenodd" d="M135.501 86.04C134.84 86.0996 134.179 86.1591 133.52 86.2187C134.18 86.1591 134.84 86.0996 135.501 86.04Z" fill="#262526"/>
<path fill-rule="evenodd" clip-rule="evenodd" d="M164.672 38.8973C164.012 38.9013 163.351 38.9053 162.691 38.9093C163.35 38.56 164.01 38.6502 164.672 38.8973Z" fill="#262526"/>
<path fill-rule="evenodd" clip-rule="evenodd" d="M44.0978 153.142C43.5483 153.113 43.1005 153.379 42.7905 152.855C43.2978 152.46 43.5905 152.915 44.0978 153.142Z" fill="#262526"/>
<path fill-rule="evenodd" clip-rule="evenodd" d="M157.599 239.365C157.978 239.374 158.357 239.382 158.731 239.391C158.351 239.382 157.975 239.374 157.599 239.365Z" fill="#262526"/>
<path fill-rule="evenodd" clip-rule="evenodd" d="M245.611 36.3059C245.021 36.3588 244.43 36.4117 243.84 36.4646C244.43 36.4114 245.021 36.3588 245.611 36.3059Z" fill="#262526"/>
<path fill-rule="evenodd" clip-rule="evenodd" d="M58.5011 215.413C57.9339 215.415 57.3671 215.418 56.8003 215.42C57.3674 215.417 57.9343 215.415 58.5011 215.413Z" fill="#262526"/>
<path fill-rule="evenodd" clip-rule="evenodd" d="M157.557 85.0603C156.976 85.1175 156.395 85.1744 155.813 85.2316C156.395 85.1744 156.976 85.1175 157.557 85.0603Z" fill="#262526"/>
<path fill-rule="evenodd" clip-rule="evenodd" d="M141.344 86.0034C140.772 85.9375 140.201 85.8717 139.629 85.8058C140.196 85.9166 140.825 85.4792 141.344 86.0034Z" fill="#262526"/>
<path fill-rule="evenodd" clip-rule="evenodd" d="M193.128 108.953C193.484 108.912 193.983 108.788 194.35 108.846C194.302 109.055 193.265 108.952 193.128 108.953Z" fill="#262526"/>
<path fill-rule="evenodd" clip-rule="evenodd" d="M156.855 153.805C157.239 153.812 157.623 153.82 158.002 153.826C157.618 153.819 157.237 153.812 156.855 153.805Z" fill="#262526"/>
<path fill-rule="evenodd" clip-rule="evenodd" d="M122.212 108.127C121.652 108.181 121.092 108.235 120.532 108.289C121.092 108.235 121.652 108.181 122.212 108.127Z" fill="#262526"/>
<path fill-rule="evenodd" clip-rule="evenodd" d="M59.499 106.219C59.8044 106.228 60.1098 106.236 60.4111 106.244C60.1044 106.236 59.8017 106.228 59.499 106.219Z" fill="#262526"/>
<path fill-rule="evenodd" clip-rule="evenodd" d="M142.05 108.55C141.571 108.54 141.092 108.531 140.613 108.521C141.092 108.531 141.571 108.54 142.05 108.55Z" fill="#262526"/>
<path fill-rule="evenodd" clip-rule="evenodd" d="M53.1461 104.924C52.6618 104.983 52.1775 105.043 51.6938 105.103C52.1785 105.043 52.6622 104.983 53.1461 104.924Z" fill="#262526"/>
<path fill-rule="evenodd" clip-rule="evenodd" d="M119.583 100.809C119.882 100.821 120.181 100.833 120.476 100.846C120.175 100.835 119.879 100.822 119.583 100.809Z" fill="#262526"/>
<path fill-rule="evenodd" clip-rule="evenodd" d="M142.399 151.114C142.703 151.094 143.006 151.074 143.306 151.054C143.001 151.074 142.7 151.094 142.399 151.114Z" fill="#262526"/>
<path fill-rule="evenodd" clip-rule="evenodd" d="M165.632 111.722C165.143 111.662 164.655 111.601 164.167 111.54C164.655 111.601 165.143 111.662 165.632 111.722Z" fill="#262526"/>
<path fill-rule="evenodd" clip-rule="evenodd" d="M47.7729 187.138C48.09 187.133 48.407 187.129 48.7203 187.124C48.4023 187.128 48.0873 187.133 47.7729 187.138Z" fill="#262526"/>
<path fill-rule="evenodd" clip-rule="evenodd" d="M21.7427 147.746C21.2378 147.695 20.7328 147.644 20.2275 147.593C20.7325 147.644 21.2374 147.695 21.7427 147.746Z" fill="#262526"/>
<path fill-rule="evenodd" clip-rule="evenodd" d="M10.9682 205.43C10.4719 205.487 9.97563 205.544 9.479 205.602C9.97597 205.544 10.4719 205.487 10.9682 205.43Z" fill="#262526"/>
<path fill-rule="evenodd" clip-rule="evenodd" d="M281.519 71.134C281.48 71.5631 281.441 71.9922 281.401 72.4197C281.44 71.9899 281.479 71.5621 281.519 71.134Z" fill="#262526"/>
<path fill-rule="evenodd" clip-rule="evenodd" d="M61.4673 214.985C60.968 215.042 60.4687 215.1 59.9697 215.157C60.469 215.099 60.9683 215.042 61.4673 214.985Z" fill="#262526"/>
<path fill-rule="evenodd" clip-rule="evenodd" d="M56.5676 215.48C56.0623 215.833 55.5574 215.853 55.0518 215.482C55.557 215.481 56.0623 215.481 56.5676 215.48Z" fill="#262526"/>
<path fill-rule="evenodd" clip-rule="evenodd" d="M46.9903 215.902C46.5003 215.902 46.0106 215.903 45.521 215.903C46.011 215.903 46.5006 215.902 46.9903 215.902Z" fill="#262526"/>
<path fill-rule="evenodd" clip-rule="evenodd" d="M104.291 48.9261C104.249 48.4913 104.207 48.0569 104.165 47.6238C104.207 48.0592 104.249 48.4926 104.291 48.9261Z" fill="#262526"/>
<path fill-rule="evenodd" clip-rule="evenodd" d="M157.797 39.218C157.305 39.2789 156.813 39.3394 156.321 39.4C156.813 39.3394 157.305 39.2789 157.797 39.218Z" fill="#262526"/>
<path fill-rule="evenodd" clip-rule="evenodd" d="M81.8384 96.9195C82.1464 96.9148 82.4544 96.9102 82.7581 96.9055C82.4488 96.9102 82.1437 96.9148 81.8384 96.9195Z" fill="#262526"/>
<path fill-rule="evenodd" clip-rule="evenodd" d="M126.41 92.1036C128.044 91.8341 129.678 91.7443 131.311 92.1026L126.41 92.1036Z" fill="#262526"/>
<path fill-rule="evenodd" clip-rule="evenodd" d="M169.982 73.7273C170.322 72.8392 170.407 72.5059 171.237 72.0461C170.892 72.9093 170.837 73.371 169.982 73.7273Z" fill="#262526"/>
<path fill-rule="evenodd" clip-rule="evenodd" d="M209.817 161.623C209.85 162.546 209.882 163.47 209.915 164.392C209.882 163.469 209.849 162.546 209.817 161.623Z" fill="#262526"/>
<path fill-rule="evenodd" clip-rule="evenodd" d="M269.068 37.3606C268.329 37.3772 267.59 37.3942 266.854 37.4108C267.594 37.3942 268.331 37.3772 269.068 37.3606Z" fill="#262526"/>
<path fill-rule="evenodd" clip-rule="evenodd" d="M170.614 178.035C170.64 178.805 170.666 179.575 170.691 180.344C170.665 179.573 170.64 178.804 170.614 178.035Z" fill="#262526"/>
<path fill-rule="evenodd" clip-rule="evenodd" d="M143.507 113.83C143.057 113.834 142.608 113.838 142.163 113.844C142.614 113.84 143.06 113.835 143.507 113.83Z" fill="#262526"/>
<path fill-rule="evenodd" clip-rule="evenodd" d="M142.042 89.3606C141.672 89.3479 141.301 89.3353 140.936 89.324C141.307 89.3369 141.674 89.3486 142.042 89.3606Z" fill="#262526"/>
<path fill-rule="evenodd" clip-rule="evenodd" d="M82.5239 153.387C83.116 153.336 83.7081 153.284 84.3006 153.232C83.7085 153.284 83.116 153.336 82.5239 153.387Z" fill="#262526"/>
<path fill-rule="evenodd" clip-rule="evenodd" d="M84.6858 154.327C84.3914 154.325 84.097 154.323 83.8066 154.322C84.1024 154.324 84.3941 154.325 84.6858 154.327Z" fill="#262526"/>
<path fill-rule="evenodd" clip-rule="evenodd" d="M209.563 141.095C209.607 140.661 209.652 140.227 209.695 139.795C209.652 140.229 209.607 140.662 209.563 141.095Z" fill="#262526"/>
<path fill-rule="evenodd" clip-rule="evenodd" d="M121.154 97.2302C121.525 97.2618 121.896 97.2934 122.268 97.3254C121.854 97.3467 121.438 97.3676 121.024 97.3889C121.026 97.3037 121.069 97.2508 121.154 97.2302Z" fill="#262526"/>
<path fill-rule="evenodd" clip-rule="evenodd" d="M216.565 170.218C216.541 169.823 216.517 169.427 216.494 169.034C216.518 169.43 216.541 169.824 216.565 170.218Z" fill="#262526"/>
<path fill-rule="evenodd" clip-rule="evenodd" d="M127.821 95.7229C127.523 95.7289 127.225 95.7345 126.93 95.7402C127.23 95.7342 127.525 95.7286 127.821 95.7229Z" fill="#262526"/>
<path fill-rule="evenodd" clip-rule="evenodd" d="M133.744 112.864C133.438 112.868 133.132 112.873 132.83 112.878C133.137 112.874 133.44 112.869 133.744 112.864Z" fill="#262526"/>
<path fill-rule="evenodd" clip-rule="evenodd" d="M116.057 53.0476C116.378 53.2189 116.211 53.972 115.898 53.9002C115.951 53.6158 116.004 53.3317 116.057 53.0476Z" fill="#262526"/>
<path fill-rule="evenodd" clip-rule="evenodd" d="M281.545 142.554C281.249 142.546 280.955 142.539 280.664 142.531C280.96 142.539 281.252 142.547 281.545 142.554Z" fill="#262526"/>
<path fill-rule="evenodd" clip-rule="evenodd" d="M102.043 49.1418C102.012 48.4782 101.981 47.8149 101.95 47.1533C101.981 47.8176 102.012 48.4796 102.043 49.1418Z" fill="#262526"/>
<path fill-rule="evenodd" clip-rule="evenodd" d="M157.885 236.795C158.339 236.861 158.793 236.928 159.247 236.994C158.793 236.928 158.339 236.861 157.885 236.795Z" fill="#262526"/>
<path fill-rule="evenodd" clip-rule="evenodd" d="M154.885 65.9563C153.283 66.2859 151.638 66.4583 150.074 66.9436C149.684 67.0647 148.403 67.8084 147.936 67.6125C147.226 67.3141 147.585 66.5487 147.884 66.1402C148.684 65.0479 150.116 64.4358 151.429 64.4494C152.739 64.4634 154.538 64.4155 154.885 65.9563Z" fill="#262526"/>
<path fill-rule="evenodd" clip-rule="evenodd" d="M150.432 68.8854C152.195 70.1198 153.542 70.7279 153.692 67.9534C155.603 68.2138 154.747 71.2921 153.3 71.5243C151.726 71.7767 150.676 70.2043 150.432 68.8854Z" fill="#262526"/>
</svg>
