<svg width="20" height="20" viewBox="0 0 20 20" fill="none" xmlns="http://www.w3.org/2000/svg">
<path fill-rule="evenodd" clip-rule="evenodd" d="M9.99996 1.04175C10.3451 1.04175 10.625 1.32157 10.625 1.66675V2.50008C10.625 2.84526 10.3451 3.12508 9.99996 3.12508C9.65478 3.12508 9.37496 2.84526 9.37496 2.50008V1.66675C9.37496 1.32157 9.65478 1.04175 9.99996 1.04175ZM3.66547 3.66559C3.90955 3.42151 4.30527 3.42151 4.54935 3.66559L4.87672 3.99295C5.12079 4.23703 5.12079 4.63276 4.87672 4.87684C4.63264 5.12091 4.23691 5.12091 3.99283 4.87684L3.66547 4.54947C3.42139 4.3054 3.42139 3.90967 3.66547 3.66559ZM16.3342 3.66581C16.5783 3.90988 16.5783 4.30561 16.3342 4.54969L16.0069 4.87705C15.7628 5.12113 15.3671 5.12113 15.123 4.87705C14.8789 4.63298 14.8789 4.23725 15.123 3.99317L15.4504 3.66581C15.6944 3.42173 16.0902 3.42173 16.3342 3.66581ZM9.99996 5.62508C7.58371 5.62508 5.62496 7.58384 5.62496 10.0001C5.62496 12.4163 7.58371 14.3751 9.99996 14.3751C12.4162 14.3751 14.375 12.4163 14.375 10.0001C14.375 7.58384 12.4162 5.62508 9.99996 5.62508ZM4.37496 10.0001C4.37496 6.89348 6.89336 4.37508 9.99996 4.37508C13.1066 4.37508 15.625 6.89348 15.625 10.0001C15.625 13.1067 13.1066 15.6251 9.99996 15.6251C6.89336 15.6251 4.37496 13.1067 4.37496 10.0001ZM1.04163 10.0001C1.04163 9.6549 1.32145 9.37508 1.66663 9.37508H2.49996C2.84514 9.37508 3.12496 9.6549 3.12496 10.0001C3.12496 10.3453 2.84514 10.6251 2.49996 10.6251H1.66663C1.32145 10.6251 1.04163 10.3453 1.04163 10.0001ZM16.875 10.0001C16.875 9.6549 17.1548 9.37508 17.5 9.37508H18.3333C18.6785 9.37508 18.9583 9.6549 18.9583 10.0001C18.9583 10.3453 18.6785 10.6251 18.3333 10.6251H17.5C17.1548 10.6251 16.875 10.3453 16.875 10.0001ZM15.123 15.1231C15.3671 14.879 15.7628 14.879 16.0069 15.1231L16.3342 15.4505C16.5783 15.6946 16.5783 16.0903 16.3342 16.3344C16.0902 16.5784 15.6944 16.5784 15.4504 16.3344L15.123 16.007C14.8789 15.7629 14.8789 15.3672 15.123 15.1231ZM4.87672 15.1233C5.12079 15.3674 5.12079 15.7631 4.87672 16.0072L4.54935 16.3346C4.30527 16.5787 3.90955 16.5787 3.66547 16.3346C3.42139 16.0905 3.42139 15.6948 3.66547 15.4507L3.99283 15.1233C4.23691 14.8792 4.63264 14.8792 4.87672 15.1233ZM9.99996 16.8751C10.3451 16.8751 10.625 17.1549 10.625 17.5001V18.3334C10.625 18.6786 10.3451 18.9584 9.99996 18.9584C9.65478 18.9584 9.37496 18.6786 9.37496 18.3334V17.5001C9.37496 17.1549 9.65478 16.8751 9.99996 16.8751Z" fill="#262526"/>
</svg>
