<svg width="25" height="24" viewBox="0 0 25 24" fill="none" xmlns="http://www.w3.org/2000/svg">
<path d="M22.2998 12.2039V13.725C22.2998 17.6258 22.2998 19.5763 21.1282 20.7881C19.9567 22 18.071 22 14.2998 22H10.2998C6.52857 22 4.64295 22 3.47138 20.7881C2.2998 19.5763 2.2998 17.6258 2.2998 13.725V12.2039C2.2998 9.91549 2.2998 8.77128 2.81901 7.82274C3.33821 6.87421 4.28675 6.28551 6.18384 5.10813L8.18384 3.86687C10.1892 2.62229 11.1919 2 12.2998 2C13.4077 2 14.4104 2.62229 16.4158 3.86687L18.4158 5.10812C20.3129 6.28551 21.2614 6.87421 21.7806 7.82274" stroke="#1A1A1A" stroke-width="1.5" stroke-linecap="round"/>
<path d="M15.2998 18H9.2998" stroke="#1A1A1A" stroke-width="1.5" stroke-linecap="round"/>
</svg>
