<svg width="21" height="20" viewBox="0 0 21 20" fill="none" xmlns="http://www.w3.org/2000/svg">
<path d="M14.5416 11.6667C15.0019 11.6667 15.375 11.2936 15.375 10.8333C15.375 10.3731 15.0019 10 14.5416 10C14.0814 10 13.7083 10.3731 13.7083 10.8333C13.7083 11.2936 14.0814 11.6667 14.5416 11.6667Z" fill="#6C6C6C"/>
<path d="M14.5416 15C15.0019 15 15.375 14.6269 15.375 14.1667C15.375 13.7064 15.0019 13.3333 14.5416 13.3333C14.0814 13.3333 13.7083 13.7064 13.7083 14.1667C13.7083 14.6269 14.0814 15 14.5416 15Z" fill="#6C6C6C"/>
<path d="M11.2083 10.8333C11.2083 11.2936 10.8352 11.6667 10.375 11.6667C9.91472 11.6667 9.54163 11.2936 9.54163 10.8333C9.54163 10.3731 9.91472 10 10.375 10C10.8352 10 11.2083 10.3731 11.2083 10.8333Z" fill="#6C6C6C"/>
<path d="M11.2083 14.1667C11.2083 14.6269 10.8352 15 10.375 15C9.91472 15 9.54163 14.6269 9.54163 14.1667C9.54163 13.7064 9.91472 13.3333 10.375 13.3333C10.8352 13.3333 11.2083 13.7064 11.2083 14.1667Z" fill="#6C6C6C"/>
<path d="M6.20829 11.6667C6.66853 11.6667 7.04163 11.2936 7.04163 10.8333C7.04163 10.3731 6.66853 10 6.20829 10C5.74806 10 5.37496 10.3731 5.37496 10.8333C5.37496 11.2936 5.74806 11.6667 6.20829 11.6667Z" fill="#6C6C6C"/>
<path d="M6.20829 15C6.66853 15 7.04163 14.6269 7.04163 14.1667C7.04163 13.7064 6.66853 13.3333 6.20829 13.3333C5.74806 13.3333 5.37496 13.7064 5.37496 14.1667C5.37496 14.6269 5.74806 15 6.20829 15Z" fill="#6C6C6C"/>
<path fill-rule="evenodd" clip-rule="evenodd" d="M6.20829 1.45834C6.55347 1.45834 6.83329 1.73817 6.83329 2.08334V2.71894C7.38496 2.70833 7.99273 2.70834 8.66117 2.70834H12.0886C12.7571 2.70834 13.365 2.70833 13.9166 2.71894V2.08334C13.9166 1.73817 14.1964 1.45834 14.5416 1.45834C14.8868 1.45834 15.1666 1.73817 15.1666 2.08334V2.77258C15.3832 2.7891 15.5884 2.80986 15.7825 2.83596C16.7595 2.96731 17.5503 3.24408 18.1739 3.86771C18.7976 4.49135 19.0743 5.28214 19.2057 6.25916C19.3333 7.2085 19.3333 8.42151 19.3333 9.95296V11.7137C19.3333 13.2451 19.3333 14.4582 19.2057 15.4075C19.0743 16.3845 18.7976 17.1753 18.1739 17.799C17.5503 18.4226 16.7595 18.6994 15.7825 18.8307C14.8331 18.9584 13.6201 18.9584 12.0887 18.9583H8.66128C7.12983 18.9584 5.91678 18.9584 4.96744 18.8307C3.99042 18.6994 3.19963 18.4226 2.576 17.799C1.95236 17.1753 1.6756 16.3845 1.54424 15.4075C1.4166 14.4582 1.41661 13.2452 1.41663 11.7137V9.953C1.41661 8.42153 1.4166 7.2085 1.54424 6.25916C1.6756 5.28214 1.95236 4.49135 2.576 3.86771C3.19963 3.24408 3.99042 2.96731 4.96744 2.83596C5.16155 2.80986 5.36667 2.7891 5.58329 2.77258V2.08334C5.58329 1.73817 5.86312 1.45834 6.20829 1.45834ZM5.134 4.07481C4.29559 4.18753 3.81255 4.39892 3.45988 4.7516C3.1072 5.10427 2.89581 5.58731 2.78309 6.42572C2.764 6.56771 2.74804 6.71719 2.7347 6.87501H18.0152C18.0019 6.71719 17.9859 6.56771 17.9668 6.42572C17.8541 5.58731 17.6427 5.10427 17.29 4.7516C16.9374 4.39892 16.4543 4.18753 15.6159 4.07481C14.7595 3.95967 13.6306 3.95834 12.0416 3.95834H8.70829C7.11928 3.95834 5.99039 3.95967 5.134 4.07481ZM2.66663 10C2.66663 9.28833 2.66689 8.66895 2.67753 8.12501H18.0724C18.083 8.66895 18.0833 9.28833 18.0833 10V11.6667C18.0833 13.2557 18.082 14.3846 17.9668 15.241C17.8541 16.0794 17.6427 16.5624 17.29 16.9151C16.9374 17.2678 16.4543 17.4792 15.6159 17.5919C14.7595 17.707 13.6306 17.7083 12.0416 17.7083H8.70829C7.11928 17.7083 5.99039 17.707 5.134 17.5919C4.29559 17.4792 3.81255 17.2678 3.45988 16.9151C3.1072 16.5624 2.89581 16.0794 2.78309 15.241C2.66795 14.3846 2.66663 13.2557 2.66663 11.6667V10Z" fill="#6C6C6C"/>
</svg>
