<svg width="21" height="20" viewBox="0 0 21 20" fill="none" xmlns="http://www.w3.org/2000/svg">
<path d="M8.12496 9.99999C8.12496 10.4602 7.75186 10.8333 7.29163 10.8333C6.83139 10.8333 6.45829 10.4602 6.45829 9.99999C6.45829 9.53975 6.83139 9.16666 7.29163 9.16666C7.75186 9.16666 8.12496 9.53975 8.12496 9.99999Z" fill="#6C6C6C"/>
<path d="M11.4583 9.99999C11.4583 10.4602 11.0852 10.8333 10.625 10.8333C10.1647 10.8333 9.79163 10.4602 9.79163 9.99999C9.79163 9.53975 10.1647 9.16666 10.625 9.16666C11.0852 9.16666 11.4583 9.53975 11.4583 9.99999Z" fill="#6C6C6C"/>
<path d="M14.7916 9.99999C14.7916 10.4602 14.4185 10.8333 13.9583 10.8333C13.4981 10.8333 13.125 10.4602 13.125 9.99999C13.125 9.53975 13.4981 9.16666 13.9583 9.16666C14.4185 9.16666 14.7916 9.53975 14.7916 9.99999Z" fill="#6C6C6C"/>
<path fill-rule="evenodd" clip-rule="evenodd" d="M19.5833 9.99999C19.5833 5.05244 15.5725 1.04166 10.625 1.04166C5.67741 1.04166 1.66663 5.05244 1.66663 9.99999C1.66663 11.4319 2.00305 12.7871 2.60173 13.989C2.69107 14.1684 2.71002 14.3515 2.6688 14.5056L2.17246 16.3607C1.83269 17.6305 2.99443 18.7923 4.26429 18.4525L6.11933 17.9562C6.27341 17.9149 6.45655 17.9339 6.63592 18.0232C7.8379 18.6219 9.19304 18.9583 10.625 18.9583C15.5725 18.9583 19.5833 14.9475 19.5833 9.99999ZM10.625 2.29166C14.8822 2.29166 18.3333 5.74279 18.3333 9.99999C18.3333 14.2572 14.8822 17.7083 10.625 17.7083C9.39074 17.7083 8.22596 17.4187 7.19322 16.9043C6.77871 16.6979 6.28307 16.6184 5.79623 16.7486L3.9412 17.245C3.60051 17.3361 3.28882 17.0244 3.37998 16.6837L3.87632 14.8287C4.00658 14.3419 3.92708 13.8462 3.72062 13.4317C3.20623 12.399 2.91663 11.2342 2.91663 9.99999C2.91663 5.74279 6.36776 2.29166 10.625 2.29166Z" fill="#6C6C6C"/>
</svg>
