<svg width="21" height="20" viewBox="0 0 21 20" fill="none" xmlns="http://www.w3.org/2000/svg">
<path fill-rule="evenodd" clip-rule="evenodd" d="M10.125 1.04166C7.93883 1.04166 6.16663 2.81386 6.16663 4.99999C6.16663 7.18612 7.93883 8.95832 10.125 8.95832C12.3111 8.95832 14.0833 7.18612 14.0833 4.99999C14.0833 2.81386 12.3111 1.04166 10.125 1.04166ZM7.41663 4.99999C7.41663 3.50422 8.62919 2.29166 10.125 2.29166C11.6207 2.29166 12.8333 3.50422 12.8333 4.99999C12.8333 6.49576 11.6207 7.70832 10.125 7.70832C8.62919 7.70832 7.41663 6.49576 7.41663 4.99999Z" fill="#6C6C6C"/>
<path fill-rule="evenodd" clip-rule="evenodd" d="M10.125 10.2083C8.42551 10.2083 6.85622 10.6006 5.69008 11.267C4.54162 11.9232 3.66663 12.9251 3.66663 14.1667C3.66663 15.4082 4.54162 16.4101 5.69008 17.0663C6.85622 17.7327 8.42551 18.125 10.125 18.125C11.8244 18.125 13.3937 17.7327 14.5598 17.0663C15.7083 16.4101 16.5833 15.4082 16.5833 14.1667C16.5833 12.9251 15.7083 11.9232 14.5598 11.267C13.3937 10.6006 11.8244 10.2083 10.125 10.2083ZM4.91663 14.1667C4.91663 13.5673 5.34746 12.9025 6.31026 12.3523C7.25537 11.8122 8.60274 11.4583 10.125 11.4583C11.6472 11.4583 12.9946 11.8122 13.9397 12.3523C14.9025 12.9025 15.3333 13.5673 15.3333 14.1667C15.3333 14.7661 14.9025 15.4309 13.9397 15.981C12.9946 16.5211 11.6472 16.875 10.125 16.875C8.60274 16.875 7.25537 16.5211 6.31026 15.981C5.34746 15.4309 4.91663 14.7661 4.91663 14.1667Z" fill="#6C6C6C"/>
</svg>
