<svg width="12" height="8" viewBox="0 0 12 8" fill="none" xmlns="http://www.w3.org/2000/svg">
<path d="M9.18295 5.06522H7.35686C7.02069 5.06522 6.74817 4.79269 6.74817 4.45652V1.1087C6.74817 0.772522 7.02069 0.5 7.35686 0.5H10.7456C11.0653 0.5 11.3302 0.747387 11.3478 1.06668C11.4051 2.10375 11.4964 4.27316 11.3134 5.06522C11.136 5.83284 10.2528 6.77002 9.54942 7.22536C9.22948 7.43248 8.94353 7.15373 9.01377 6.77913L9.30708 5.21478C9.32165 5.13706 9.26203 5.06522 9.18295 5.06522Z" fill="#6B7280"/>
<path d="M3.43478 5.06522H1.6087C1.27252 5.06522 1 4.7927 1 4.45652V1.1087C1 0.772523 1.27252 0.5 1.6087 0.5H4.99741C5.31718 0.5 5.58204 0.747387 5.59966 1.06668C5.65688 2.10375 5.74821 4.27316 5.56522 5.06522C5.38787 5.83284 4.5046 6.77002 3.80125 7.22536C3.48131 7.43248 3.19536 7.15373 3.2656 6.77913L3.55891 5.21478C3.57349 5.13706 3.51386 5.06522 3.43478 5.06522Z" fill="#6B7280"/>
<path d="M9.18295 5.06522H7.35686C7.02069 5.06522 6.74817 4.79269 6.74817 4.45652V1.1087C6.74817 0.772522 7.02069 0.5 7.35686 0.5H10.7456C11.0653 0.5 11.3302 0.747387 11.3478 1.06668C11.4051 2.10375 11.4964 4.27316 11.3134 5.06522C11.136 5.83284 10.2528 6.77002 9.54942 7.22536C9.22948 7.43248 8.94353 7.15373 9.01377 6.77913L9.30708 5.21478C9.32165 5.13706 9.26203 5.06522 9.18295 5.06522Z" stroke="#6B7280" stroke-width="0.304348"/>
<path d="M3.43478 5.06522H1.6087C1.27252 5.06522 1 4.7927 1 4.45652V1.1087C1 0.772523 1.27252 0.5 1.6087 0.5H4.99741C5.31718 0.5 5.58204 0.747387 5.59966 1.06668C5.65688 2.10375 5.74821 4.27316 5.56522 5.06522C5.38787 5.83284 4.5046 6.77002 3.80125 7.22536C3.48131 7.43248 3.19536 7.15373 3.2656 6.77913L3.55891 5.21478C3.57349 5.13706 3.51386 5.06522 3.43478 5.06522Z" stroke="#6B7280" stroke-width="0.304348"/>
</svg>
