<svg width="25" height="24" viewBox="0 0 25 24" fill="none" xmlns="http://www.w3.org/2000/svg">
<rect width="24" height="24" transform="translate(0.5)" fill="#1A1A1A"/>
<path d="M16.5 22.75H8.5C2.75 22.75 2.75 19.7 2.75 17V16C2.75 13.77 2.75 11.25 7.5 11.25C8.69 11.25 9.13 11.54 9.75 12C9.78 12.03 9.82 12.05 9.85 12.09L10.87 13.17C11.73 14.08 13.29 14.08 14.15 13.17L15.17 12.09C15.2 12.06 15.23 12.03 15.27 12C15.89 11.53 16.33 11.25 17.52 11.25C22.27 11.25 22.27 13.77 22.27 16V17C22.25 20.82 20.32 22.75 16.5 22.75ZM7.5 12.75C4.25 12.75 4.25 13.77 4.25 16V17C4.25 19.74 4.25 21.25 8.5 21.25H16.5C19.48 21.25 20.75 19.98 20.75 17V16C20.75 13.77 20.75 12.75 17.5 12.75C16.78 12.75 16.63 12.84 16.2 13.16L15.23 14.19C14.51 14.95 13.54 15.37 12.5 15.37C11.46 15.37 10.49 14.95 9.77 14.19L8.8 13.16C8.37 12.84 8.22 12.75 7.5 12.75Z" fill="white"/>
<path d="M19.5 12.75C19.09 12.75 18.75 12.41 18.75 12V6C18.75 3.77 18.75 2.75 15.5 2.75H9.5C6.25 2.75 6.25 3.77 6.25 6V12C6.25 12.41 5.91 12.75 5.5 12.75C5.09 12.75 4.75 12.41 4.75 12V6C4.75 3.77 4.75 1.25 9.5 1.25H15.5C20.25 1.25 20.25 3.77 20.25 6V12C20.25 12.41 19.91 12.75 19.5 12.75Z" fill="white"/>
<path d="M14.3798 9.97998H11.0498C10.6398 9.97998 10.2998 9.63998 10.2998 9.22998C10.2998 8.81998 10.6398 8.47998 11.0498 8.47998H14.3798C14.7898 8.47998 15.1298 8.81998 15.1298 9.22998C15.1298 9.63998 14.7998 9.97998 14.3798 9.97998Z" fill="white"/>
<path d="M15.2197 6.97998H10.2197C9.80973 6.97998 9.46973 6.63998 9.46973 6.22998C9.46973 5.81998 9.80973 5.47998 10.2197 5.47998H15.2197C15.6297 5.47998 15.9697 5.81998 15.9697 6.22998C15.9697 6.63998 15.6397 6.97998 15.2197 6.97998Z" fill="white"/>
</svg>
