<svg width="20" height="20" viewBox="0 0 20 20" fill="none" xmlns="http://www.w3.org/2000/svg">
<path d="M14.1581 8.09155H5.84143C5.49976 8.09155 5.21643 7.80822 5.21643 7.46655C5.21643 7.12489 5.49976 6.84155 5.84143 6.84155H14.1581C14.4997 6.84155 14.7831 7.12489 14.7831 7.46655C14.7831 7.80822 14.4997 8.09155 14.1581 8.09155Z" fill="#6C6C6C"/>
<path d="M10 8.09164C9.65833 8.09164 9.375 7.80831 9.375 7.46664V6.06665C9.375 5.72498 9.65833 5.44165 10 5.44165C10.3417 5.44165 10.625 5.72498 10.625 6.06665V7.46664C10.625 7.80831 10.3417 8.09164 10 8.09164Z" fill="#6C6C6C"/>
<path d="M5.83337 14.5583C5.49171 14.5583 5.20837 14.2749 5.20837 13.9333C5.20837 13.5916 5.49171 13.3083 5.83337 13.3083C8.93337 13.3083 11.4584 10.6833 11.4584 7.44995C11.4584 7.10828 11.7417 6.82495 12.0834 6.82495C12.425 6.82495 12.7084 7.10828 12.7084 7.44995C12.7084 11.375 9.62504 14.5583 5.83337 14.5583Z" fill="#6C6C6C"/>
<path d="M14.166 14.5583C12.5243 14.5583 10.9993 13.7417 9.88267 12.25C9.67433 11.975 9.73269 11.5833 10.0077 11.375C10.2827 11.1667 10.6743 11.225 10.8827 11.5C11.766 12.6666 12.9327 13.3083 14.1744 13.3083C14.516 13.3083 14.7994 13.5916 14.7994 13.9333C14.7994 14.2749 14.5077 14.5583 14.166 14.5583Z" fill="#6C6C6C"/>
<path d="M12.5 18.9584H7.49996C2.97496 18.9584 1.04163 17.0251 1.04163 12.5001V7.50008C1.04163 2.97508 2.97496 1.04175 7.49996 1.04175H12.5C17.025 1.04175 18.9583 2.97508 18.9583 7.50008V12.5001C18.9583 17.0251 17.025 18.9584 12.5 18.9584ZM7.49996 2.29175C3.65829 2.29175 2.29163 3.65841 2.29163 7.50008V12.5001C2.29163 16.3417 3.65829 17.7084 7.49996 17.7084H12.5C16.3416 17.7084 17.7083 16.3417 17.7083 12.5001V7.50008C17.7083 3.65841 16.3416 2.29175 12.5 2.29175H7.49996Z" fill="#6C6C6C"/>
</svg>
