<svg width="20" height="20" viewBox="0 0 20 20" fill="none" xmlns="http://www.w3.org/2000/svg">
<path fill-rule="evenodd" clip-rule="evenodd" d="M2.70837 8.45283C2.70837 4.37031 5.96255 1.04175 10 1.04175C14.0375 1.04175 17.2917 4.37031 17.2917 8.45283C17.2917 10.4237 16.73 12.54 15.7371 14.3683C14.7454 16.1943 13.2964 17.7811 11.4838 18.6283C10.5422 19.0684 9.4579 19.0684 8.51628 18.6283C6.70368 17.7811 5.25472 16.1943 4.263 14.3683C3.27006 12.54 2.70837 10.4237 2.70837 8.45283ZM10 2.29175C6.67373 2.29175 3.95837 5.03965 3.95837 8.45283C3.95837 10.2004 4.46057 12.1129 5.36146 13.7717C6.26357 15.4328 7.53839 16.7914 9.04558 17.4959C9.65175 17.7792 10.3483 17.7792 10.9545 17.4959C12.4617 16.7914 13.7365 15.4328 14.6386 13.7717C15.5395 12.1129 16.0417 10.2004 16.0417 8.45283C16.0417 5.03965 13.3263 2.29175 10 2.29175ZM10 6.45841C8.96451 6.45841 8.12504 7.29788 8.12504 8.33341C8.12504 9.36895 8.96451 10.2084 10 10.2084C11.0356 10.2084 11.875 9.36895 11.875 8.33341C11.875 7.29788 11.0356 6.45841 10 6.45841ZM6.87504 8.33341C6.87504 6.60752 8.27415 5.20841 10 5.20841C11.7259 5.20841 13.125 6.60752 13.125 8.33341C13.125 10.0593 11.7259 11.4584 10 11.4584C8.27415 11.4584 6.87504 10.0593 6.87504 8.33341Z" fill="#6C6C6C"/>
</svg>
