<svg width="11" height="12" viewBox="0 0 11 12" fill="none" xmlns="http://www.w3.org/2000/svg">
<path fill-rule="evenodd" clip-rule="evenodd" d="M5.49992 0.166992C2.92259 0.166992 0.833252 2.50183 0.833252 5.12533C0.833252 7.72826 2.32269 10.5576 4.64654 11.6438C5.18827 11.897 5.81157 11.897 6.3533 11.6438C8.67715 10.5576 10.1666 7.72826 10.1666 5.12533C10.1666 2.50183 8.07725 0.166992 5.49992 0.166992ZM5.49992 6.00033C6.14425 6.00033 6.66659 5.47799 6.66659 4.83366C6.66659 4.18933 6.14425 3.66699 5.49992 3.66699C4.85559 3.66699 4.33325 4.18933 4.33325 4.83366C4.33325 5.47799 4.85559 6.00033 5.49992 6.00033Z" fill="#6B7280"/>
</svg>
