<svg width="37" height="36" viewBox="0 0 37 36" fill="none" xmlns="http://www.w3.org/2000/svg">
<rect x="0.5" width="36" height="36" rx="18" fill="#F7F7F7"/>
<path fill-rule="evenodd" clip-rule="evenodd" d="M18.5 7.25C14.2198 7.25 10.75 10.7198 10.75 15V15.7041C10.75 16.401 10.5438 17.0824 10.1572 17.6622L9.00856 19.3851C7.67547 21.3848 8.69318 24.1028 11.0118 24.7351C11.7674 24.9412 12.5294 25.1155 13.2958 25.2581L13.2977 25.2632C14.0667 27.3151 16.122 28.75 18.5 28.75C20.878 28.75 22.9333 27.3151 23.7023 25.2632L23.7042 25.2581C24.4706 25.1155 25.2327 24.9412 25.9883 24.7351C28.3069 24.1028 29.3246 21.3848 27.9915 19.3851L26.8429 17.6622C26.4563 17.0824 26.25 16.401 26.25 15.7041V15C26.25 10.7198 22.7802 7.25 18.5 7.25ZM21.8764 25.537C19.6335 25.805 17.3664 25.8049 15.1235 25.5369C15.8344 26.5585 17.071 27.25 18.5 27.25C19.9289 27.25 21.1655 26.5585 21.8764 25.537ZM12.25 15C12.25 11.5482 15.0483 8.75 18.5 8.75C21.9518 8.75 24.75 11.5482 24.75 15V15.7041C24.75 16.6972 25.044 17.668 25.5948 18.4943L26.7434 20.2172C27.5086 21.3649 26.9245 22.925 25.5936 23.288C20.9494 24.5546 16.0507 24.5546 11.4064 23.288C10.0756 22.925 9.49147 21.3649 10.2566 20.2172L11.4052 18.4943C11.9561 17.668 12.25 16.6972 12.25 15.7041V15Z" fill="#2F2F2F"/>
<circle cx="23.5" cy="11" r="4" fill="#9A58F0" stroke="white"/>
</svg>
