<svg width="19" height="16" viewBox="0 0 19 16" fill="none" xmlns="http://www.w3.org/2000/svg">
<path fill-rule="evenodd" clip-rule="evenodd" d="M9.50008 4.87492C7.77419 4.87492 6.37508 6.27403 6.37508 7.99992C6.37508 9.72581 7.77419 11.1249 9.50008 11.1249C11.226 11.1249 12.6251 9.72581 12.6251 7.99992C12.6251 6.27403 11.226 4.87492 9.50008 4.87492ZM7.62508 7.99992C7.62508 6.96438 8.46455 6.12492 9.50008 6.12492C10.5356 6.12492 11.3751 6.96438 11.3751 7.99992C11.3751 9.03545 10.5356 9.87492 9.50008 9.87492C8.46455 9.87492 7.62508 9.03545 7.62508 7.99992Z" fill="#7E8B99"/>
<path fill-rule="evenodd" clip-rule="evenodd" d="M9.50008 0.708252C5.7383 0.708252 3.20449 2.96175 1.73389 4.8723L1.70737 4.90675C1.37478 5.3387 1.06846 5.73652 0.860654 6.20692C0.638118 6.71064 0.541748 7.25966 0.541748 7.99992C0.541748 8.74018 0.638119 9.28919 0.860654 9.79292C1.06847 10.2633 1.37478 10.6611 1.70737 11.0931L1.73389 11.1275C3.20449 13.0381 5.7383 15.2916 9.50008 15.2916C13.2619 15.2916 15.7957 13.0381 17.2663 11.1275L17.2928 11.0931C17.6254 10.6612 17.9317 10.2633 18.1395 9.79292C18.362 9.28919 18.4584 8.74018 18.4584 7.99992C18.4584 7.25966 18.362 6.71064 18.1395 6.20692C17.9317 5.73651 17.6254 5.33868 17.2928 4.90673L17.2663 4.8723C15.7957 2.96175 13.2619 0.708252 9.50008 0.708252ZM2.72443 5.63475C4.08228 3.87068 6.29205 1.95825 9.50008 1.95825C12.7081 1.95825 14.9179 3.87068 16.2757 5.63475C16.6412 6.10958 16.8553 6.3933 16.9961 6.71204C17.1277 7.00993 17.2084 7.37403 17.2084 7.99992C17.2084 8.62581 17.1277 8.98991 16.9961 9.2878C16.8553 9.60654 16.6412 9.89026 16.2757 10.3651C14.9179 12.1292 12.7081 14.0416 9.50008 14.0416C6.29205 14.0416 4.08228 12.1292 2.72443 10.3651C2.35894 9.89026 2.14486 9.60654 2.00405 9.2878C1.87245 8.9899 1.79175 8.62581 1.79175 7.99992C1.79175 7.37403 1.87245 7.00993 2.00405 6.71204C2.14486 6.3933 2.35894 6.10958 2.72443 5.63475Z" fill="#7E8B99"/>
</svg>
