<svg width="20" height="20" viewBox="0 0 20 20" fill="none" xmlns="http://www.w3.org/2000/svg">
<path d="M2.24121 5.58705C2.10524 5.26978 1.73782 5.12281 1.42055 5.25879C1.10328 5.39476 0.95631 5.76218 1.09228 6.07945L2.24121 5.58705ZM12.9894 11.1072L12.7605 10.5256H12.7605L12.9894 11.1072ZM7.53462 11.448C7.72288 11.1587 7.64095 10.7716 7.35162 10.5833C7.0623 10.395 6.67515 10.477 6.48689 10.7663L7.53462 11.448ZM5.30955 12.5757C5.12129 12.865 5.20323 13.2522 5.49255 13.4405C5.78187 13.6287 6.16902 13.5468 6.35728 13.2575L5.30955 12.5757ZM18.9079 6.07945C19.0439 5.76218 18.8969 5.39476 18.5796 5.25879C18.2623 5.12281 17.8949 5.26978 17.7589 5.58705L18.9079 6.07945ZM15.8334 9.27395L15.4057 8.81824V8.81824L15.8334 9.27395ZM16.6415 10.9659C16.8856 11.21 17.2813 11.21 17.5254 10.9659C17.7694 10.7218 17.7694 10.3261 17.5254 10.082L16.6415 10.9659ZM9.37508 13.7499C9.37508 14.0951 9.6549 14.3749 10.0001 14.3749C10.3453 14.3749 10.6251 14.0951 10.6251 13.7499H9.37508ZM13.6429 13.2575C13.8311 13.5468 14.2183 13.6287 14.5076 13.4405C14.7969 13.2522 14.8789 12.865 14.6906 12.5757L13.6429 13.2575ZM4.60869 9.71589C4.85277 9.47181 4.85277 9.07609 4.60869 8.83201C4.36461 8.58793 3.96888 8.58793 3.72481 8.83201L4.60869 9.71589ZM2.47481 10.082C2.23073 10.3261 2.23073 10.7218 2.47481 10.9659C2.71888 11.21 3.11461 11.21 3.35869 10.9659L2.47481 10.082ZM10.0001 11.0416C7.31351 11.0416 5.38452 9.70375 4.10391 8.32464C3.46379 7.63528 2.99446 6.94395 2.68558 6.42503C2.53149 6.16617 2.41831 5.95185 2.34458 5.80439C2.30774 5.73071 2.28082 5.67387 2.26364 5.63668C2.25506 5.61809 2.24891 5.60442 2.24518 5.59603C2.24331 5.59183 2.24205 5.58896 2.24139 5.58745C2.24106 5.58669 2.24088 5.58628 2.24085 5.58621C2.24084 5.58617 2.24086 5.58623 2.24092 5.58637C2.24095 5.58644 2.24102 5.58661 2.24104 5.58664C2.24112 5.58684 2.24121 5.58705 1.66675 5.83325C1.09228 6.07945 1.09239 6.07971 1.09251 6.07999C1.09257 6.08012 1.0927 6.08042 1.09281 6.08067C1.09302 6.08116 1.09327 6.08175 1.09356 6.08242C1.09414 6.08377 1.09488 6.08547 1.09578 6.08751C1.09756 6.09161 1.09998 6.0971 1.10302 6.10394C1.1091 6.11763 1.11771 6.13671 1.12885 6.16085C1.15114 6.2091 1.18363 6.27759 1.22655 6.36341C1.31232 6.53497 1.44003 6.77638 1.61146 7.06439C1.95362 7.63922 2.47387 8.40623 3.18792 9.1752C4.61564 10.7127 6.85332 12.2916 10.0001 12.2916V11.0416ZM12.7605 10.5256C11.9519 10.8439 11.0348 11.0416 10.0001 11.0416V12.2916C11.1986 12.2916 12.2706 12.0618 13.2183 11.6887L12.7605 10.5256ZM6.48689 10.7663L5.30955 12.5757L6.35728 13.2575L7.53462 11.448L6.48689 10.7663ZM18.3334 5.83325C17.7589 5.58705 17.759 5.58693 17.7591 5.58681C17.7591 5.58678 17.7591 5.58667 17.7591 5.5866C17.7592 5.58648 17.7592 5.58639 17.7593 5.58632C17.7593 5.58619 17.7593 5.58616 17.7593 5.58625C17.7592 5.58642 17.759 5.58702 17.7585 5.58805C17.7576 5.59011 17.756 5.59388 17.7535 5.59929C17.7487 5.61011 17.7408 5.6275 17.7299 5.65096C17.708 5.69789 17.6739 5.76905 17.6273 5.86048C17.5339 6.04347 17.3909 6.30684 17.1963 6.61926C16.8058 7.24588 16.2136 8.05989 15.4057 8.81824L16.2611 9.72966C17.1687 8.87782 17.8265 7.97148 18.2572 7.28031C18.4731 6.93382 18.6334 6.63892 18.7408 6.42838C18.7945 6.32304 18.8351 6.23861 18.8628 6.17915C18.8767 6.14941 18.8873 6.1259 18.8948 6.10912C18.8986 6.10073 18.9015 6.09402 18.9037 6.08905C18.9048 6.08657 18.9057 6.08452 18.9064 6.08292C18.9067 6.08212 18.907 6.08143 18.9073 6.08085C18.9074 6.08056 18.9075 6.0803 18.9076 6.08007C18.9077 6.07995 18.9077 6.0798 18.9078 6.07974C18.9078 6.07959 18.9079 6.07945 18.3334 5.83325ZM15.4057 8.81824C14.6899 9.49013 13.8116 10.1119 12.7605 10.5256L13.2183 11.6887C14.4463 11.2054 15.4556 10.4858 16.2611 9.72966L15.4057 8.81824ZM15.3915 9.71589L16.6415 10.9659L17.5254 10.082L16.2754 8.83201L15.3915 9.71589ZM9.37508 11.6666V13.7499H10.6251V11.6666H9.37508ZM12.4655 11.448L13.6429 13.2575L14.6906 12.5757L13.5133 10.7663L12.4655 11.448ZM3.72481 8.83201L2.47481 10.082L3.35869 10.9659L4.60869 9.71589L3.72481 8.83201Z" fill="#7E8B99"/>
</svg>
