<svg width="20" height="20" viewBox="0 0 20 20" fill="none" xmlns="http://www.w3.org/2000/svg">
<path d="M11.6666 9.16659C11.6666 8.70635 12.0397 8.33325 12.5 8.33325C12.9602 8.33325 13.3333 8.70635 13.3333 9.16659V10.8333C13.3333 11.2935 12.9602 11.6666 12.5 11.6666C12.0397 11.6666 11.6666 11.2935 11.6666 10.8333V9.16659Z" stroke="#6C6C6C" stroke-width="1.25"/>
<path d="M11.6732 15.8357L11.0482 15.8339V15.8339L11.6732 15.8357ZM11.678 14.1666L12.303 14.1684V14.1666H11.678ZM2.62461 15.6903L2.18322 16.1328H2.18322L2.62461 15.6903ZM2.62461 4.30956L2.18322 3.86707L2.62461 4.30956ZM2.46086 8.54463L2.15613 9.09031H2.15613L2.46086 8.54463ZM1.67544 7.49114L1.05099 7.46489V7.46489L1.67544 7.49114ZM2.46086 11.4552L2.15613 10.9095L2.15613 10.9095L2.46086 11.4552ZM1.67544 12.5087L2.29989 12.4824L1.67544 12.5087ZM17.5391 8.54463L17.8438 9.09031H17.8438L17.5391 8.54463ZM18.3245 7.49114L18.9489 7.46489V7.46489L18.3245 7.49114ZM17.3753 4.30956L17.8167 3.86707V3.86707L17.3753 4.30956ZM17.5391 11.4552L17.2343 12.0009V12.0009L17.5391 11.4552ZM18.3245 12.5087L18.9489 12.5349V12.5349L18.3245 12.5087ZM17.3753 15.6903L17.8167 16.1328L17.3753 15.6903ZM18.2863 11.9432L18.8317 11.6379L18.8317 11.6379L18.2863 11.9432ZM18.2863 8.05661L18.8317 8.36189L18.8317 8.36189L18.2863 8.05661ZM1.71358 11.9432L1.16821 11.6379H1.16821L1.71358 11.9432ZM1.71358 8.05661L2.25895 7.75132L2.25895 7.75132L1.71358 8.05661ZM11.678 5.83325H12.303L12.303 5.83144L11.678 5.83325ZM11.672 3.74871L11.047 3.75053V3.75053L11.672 3.74871ZM13.7731 3.349L13.7892 2.72421L13.7731 3.349ZM14.1946 16.6367L14.221 17.2612H14.221L14.1946 16.6367ZM11.5495 16.545L11.1082 16.1024L11.1082 16.1024L11.5495 16.545ZM12.2982 15.8375L12.303 14.1684L11.053 14.1648L11.0482 15.8339L12.2982 15.8375ZM12.5134 13.9583C12.6311 13.9583 12.7239 14.053 12.7239 14.1666H13.9739C13.9739 13.3597 13.3185 12.7083 12.5134 12.7083V13.9583ZM12.5134 12.7083C11.7084 12.7083 11.053 13.3597 11.053 14.1666H12.303C12.303 14.053 12.3958 13.9583 12.5134 13.9583V12.7083ZM8.32914 3.95825H11.2543V2.70825H8.32914V3.95825ZM10.8399 16.0416H8.32914V17.2916H10.8399V16.0416ZM8.32914 16.0416C6.73625 16.0416 5.6043 16.0403 4.74553 15.9251C3.90458 15.8123 3.41983 15.6007 3.066 15.2478L2.18322 16.1328C2.80813 16.7561 3.60038 17.0327 4.57938 17.164C5.54055 17.2929 6.7715 17.2916 8.32914 17.2916V16.0416ZM8.32914 2.70825C6.7715 2.70825 5.54055 2.70693 4.57938 2.83584C3.60038 2.96713 2.80813 3.24371 2.18322 3.86707L3.066 4.75205C3.41983 4.3991 3.90458 4.18753 4.74553 4.07474C5.6043 3.95957 6.73625 3.95825 8.32914 3.95825V2.70825ZM2.15613 9.09031C2.47755 9.26981 2.69168 9.61072 2.69168 9.99992H3.94168C3.94168 9.13857 3.46546 8.38979 2.76559 7.99896L2.15613 9.09031ZM2.29989 7.5174C2.36492 5.9707 2.57618 5.24066 3.066 4.75205L2.18322 3.86707C1.32526 4.7229 1.11672 5.90146 1.05099 7.46489L2.29989 7.5174ZM2.69168 9.99992C2.69168 10.3891 2.47755 10.73 2.15613 10.9095L2.76559 12.0009C3.46546 11.61 3.94168 10.8613 3.94168 9.99992H2.69168ZM1.05099 12.5349C1.11672 14.0984 1.32526 15.2769 2.18322 16.1328L3.066 15.2478C2.57618 14.7592 2.36492 14.0291 2.29989 12.4824L1.05099 12.5349ZM17.3082 9.99992C17.3082 9.61072 17.5224 9.26981 17.8438 9.09031L17.2343 7.99895C16.5345 8.38979 16.0582 9.13857 16.0582 9.99992H17.3082ZM18.9489 7.46489C18.8832 5.90146 18.6747 4.7229 17.8167 3.86707L16.9339 4.75205C17.4237 5.24066 17.635 5.9707 17.7 7.5174L18.9489 7.46489ZM17.8438 10.9095C17.5224 10.73 17.3082 10.3891 17.3082 9.99992H16.0582C16.0582 10.8613 16.5345 11.61 17.2343 12.0009L17.8438 10.9095ZM17.7 12.4824C17.635 14.0291 17.4237 14.7592 16.9339 15.2478L17.8167 16.1328C18.6747 15.2769 18.8832 14.0984 18.9489 12.5349L17.7 12.4824ZM17.2343 12.0009C17.4709 12.133 17.6256 12.2196 17.7301 12.2855C17.7815 12.318 17.8043 12.3353 17.8112 12.341C17.8233 12.351 17.7812 12.3204 17.741 12.2485L18.8317 11.6379C18.7627 11.5146 18.6702 11.4294 18.6087 11.3784C18.5419 11.3231 18.4677 11.2729 18.397 11.2283C18.2572 11.1401 18.067 11.0342 17.8438 10.9095L17.2343 12.0009ZM18.9489 12.5349C18.9549 12.392 18.9617 12.2446 18.9563 12.1214C18.9508 11.9965 18.9314 11.8161 18.8317 11.6379L17.741 12.2485C17.6988 12.1732 17.705 12.1214 17.7075 12.1764C17.7085 12.2002 17.7087 12.2351 17.7073 12.2886C17.7059 12.3419 17.7033 12.4039 17.7 12.4824L18.9489 12.5349ZM17.8438 9.09031C18.067 8.96568 18.2572 8.85969 18.397 8.77152C18.4677 8.72692 18.5419 8.67678 18.6087 8.62145C18.6702 8.57043 18.7627 8.4852 18.8317 8.36189L17.741 7.75132C17.7812 7.67945 17.8233 7.64884 17.8112 7.65885C17.8043 7.66455 17.7815 7.68185 17.7301 7.71429C17.6256 7.78023 17.4709 7.86682 17.2343 7.99895L17.8438 9.09031ZM17.7 7.5174C17.7033 7.59599 17.7059 7.65792 17.7073 7.71123C17.7087 7.76474 17.7085 7.79962 17.7075 7.82348C17.705 7.87848 17.6988 7.82663 17.741 7.75133L18.8317 8.36189C18.9314 8.1837 18.9508 8.00332 18.9563 7.87841C18.9617 7.7552 18.9549 7.60779 18.9489 7.46489L17.7 7.5174ZM2.15613 10.9095C1.93295 11.0342 1.74271 11.1401 1.60294 11.2283C1.53222 11.2729 1.45805 11.3231 1.39126 11.3784C1.32967 11.4294 1.23724 11.5146 1.16821 11.6379L2.25895 12.2485C2.21871 12.3204 2.17661 12.351 2.18869 12.341C2.19558 12.3353 2.21841 12.318 2.26985 12.2855C2.37437 12.2196 2.52898 12.133 2.76559 12.0009L2.15613 10.9095ZM2.29989 12.4824C2.29658 12.4038 2.294 12.3419 2.29262 12.2886C2.29125 12.2351 2.2914 12.2002 2.29245 12.1764C2.29487 12.1214 2.3011 12.1732 2.25895 12.2485L1.16821 11.6379C1.06847 11.8161 1.04915 11.9965 1.04366 12.1214C1.03824 12.2446 1.04498 12.392 1.05099 12.5349L2.29989 12.4824ZM2.76559 7.99896C2.52897 7.86682 2.37437 7.78023 2.26985 7.71429C2.21841 7.68185 2.19558 7.66455 2.18869 7.65885C2.17661 7.64884 2.21871 7.67945 2.25895 7.75132L1.16821 8.36189C1.23724 8.4852 1.32967 8.57043 1.39126 8.62145C1.45805 8.67678 1.53222 8.72692 1.60294 8.77152C1.74271 8.85969 1.93295 8.96568 2.15613 9.09031L2.76559 7.99896ZM1.05099 7.46489C1.04498 7.60779 1.03824 7.7552 1.04366 7.87841C1.04915 8.00332 1.06847 8.18371 1.16821 8.36189L2.25895 7.75132C2.3011 7.82663 2.29487 7.87848 2.29245 7.82348C2.2914 7.79962 2.29125 7.76474 2.29262 7.71123C2.294 7.65792 2.29658 7.59599 2.29989 7.5174L1.05099 7.46489ZM12.303 5.83144L12.297 3.7469L11.047 3.75053L11.053 5.83507L12.303 5.83144ZM12.5134 6.04159C12.3958 6.04159 12.303 5.94685 12.303 5.83325H11.053C11.053 6.64013 11.7084 7.29159 12.5134 7.29159V6.04159ZM12.7239 5.83325C12.7239 5.94685 12.6311 6.04159 12.5134 6.04159V7.29159C13.3185 7.29159 13.9739 6.64013 13.9739 5.83325H12.7239ZM12.7239 3.7634V5.83325H13.9739V3.7634H12.7239ZM13.757 3.9738C15.5804 4.02083 16.3982 4.21762 16.9339 4.75205L17.8167 3.86707C16.8896 2.94228 15.5782 2.77035 13.7892 2.72421L13.757 3.9738ZM13.9739 3.7634C13.9739 3.87992 13.8778 3.97691 13.757 3.9738L13.7892 2.72421C13.2024 2.70908 12.7239 3.18188 12.7239 3.7634H13.9739ZM11.2543 3.95825C11.1415 3.95825 11.0473 3.86681 11.047 3.75053L12.297 3.7469C12.2953 3.17132 11.8275 2.70825 11.2543 2.70825V3.95825ZM14.221 17.2612C15.7832 17.1952 16.9608 16.9866 17.8167 16.1328L16.9339 15.2478C16.4446 15.7359 15.7135 15.947 14.1683 16.0123L14.221 17.2612ZM12.7239 14.1666V15.8137H13.9739V14.1666H12.7239ZM11.0482 15.8339C11.0479 15.9341 11.0476 16.0113 11.0458 16.0771C11.0439 16.1433 11.0408 16.1826 11.0375 16.2067C11.0342 16.2303 11.033 16.2223 11.0427 16.1988C11.0545 16.1703 11.0759 16.1346 11.1082 16.1024L11.9908 16.9876C12.1872 16.7918 12.2508 16.559 12.2759 16.3766C12.2984 16.2122 12.2977 16.0157 12.2982 15.8375L11.0482 15.8339ZM10.8399 17.2916C11.0181 17.2916 11.2146 17.2929 11.3791 17.2708C11.5615 17.2463 11.7945 17.1833 11.9908 16.9876L11.1082 16.1024C11.1406 16.0701 11.1763 16.0488 11.2048 16.0371C11.2284 16.0275 11.2363 16.0288 11.2127 16.0319C11.1886 16.0352 11.1493 16.0382 11.0831 16.0399C11.0173 16.0415 10.9401 16.0416 10.8399 16.0416V17.2916ZM14.1683 16.0123C14.0676 16.0165 13.9907 16.0197 13.9251 16.0208C13.8591 16.0218 13.8207 16.0202 13.7979 16.018C13.7757 16.0158 13.7855 16.0145 13.8111 16.0243C13.8419 16.036 13.878 16.057 13.9097 16.0874L13.0447 16.9898C13.2482 17.1848 13.4858 17.2433 13.6756 17.262C13.8439 17.2785 14.0431 17.2687 14.221 17.2612L14.1683 16.0123ZM12.7239 15.8137C12.7239 15.996 12.7224 16.1977 12.7458 16.3663C12.7719 16.5545 12.8391 16.7927 13.0447 16.9898L13.9097 16.0874C13.9427 16.1191 13.9653 16.1552 13.978 16.185C13.9885 16.2096 13.9873 16.2184 13.984 16.1946C13.9806 16.1704 13.9774 16.1304 13.9756 16.0627C13.9739 15.9953 13.9739 15.9164 13.9739 15.8137H12.7239Z" fill="#6C6C6C"/>
</svg>
