<svg width="21" height="20" viewBox="0 0 21 20" fill="none" xmlns="http://www.w3.org/2000/svg">
<path fill-rule="evenodd" clip-rule="evenodd" d="M4.43141 2.57691C5.45323 1.50113 7.14341 1.70268 7.98807 2.89733L9.0389 4.38357C9.71451 5.33913 9.65744 6.6676 8.85113 7.5165L8.64708 7.73132C8.64651 7.7328 8.64592 7.73441 8.6453 7.73615C8.63452 7.76645 8.60725 7.86294 8.63408 8.04606C8.68971 8.42568 8.98275 9.19708 10.1725 10.4496C11.3659 11.7061 12.0898 12.0022 12.4253 12.0567C12.57 12.0802 12.6457 12.0598 12.6698 12.0513L13.0103 11.6928C13.7385 10.9262 14.8738 10.7752 15.7892 11.3021L17.3813 12.2184C18.742 13.0017 19.0587 14.9177 17.9713 16.0626L16.7875 17.3089C16.418 17.6979 15.9142 18.0299 15.2917 18.0914C13.7718 18.2414 10.2508 18.046 6.55967 14.1599C3.11537 10.5337 2.46105 7.3796 2.37834 5.83858L2.93342 5.80879L2.37834 5.83858C2.33747 5.07719 2.67687 4.42411 3.12341 3.95399L4.43141 2.57691ZM6.96742 3.61897C6.54046 3.0151 5.77343 2.97907 5.33774 3.43777L4.02974 4.81485C3.75358 5.10559 3.60868 5.43884 3.62654 5.77159C3.69407 7.02977 4.23589 9.89834 7.46599 13.299C10.8528 16.8647 13.973 16.9654 15.1689 16.8474C15.4053 16.8241 15.6486 16.6929 15.8811 16.448L17.0649 15.2017C17.5756 14.6641 17.4417 13.6955 16.7577 13.3018L15.1656 12.3854C14.7384 12.1395 14.2379 12.2155 13.9167 12.5537L13.5371 12.9532L13.0978 12.536C13.5371 12.9533 13.5365 12.9539 13.536 12.9545L13.5348 12.9557L13.5323 12.9583L13.527 12.9636L13.5151 12.9754C13.5065 12.9837 13.4966 12.9929 13.4854 13.0027C13.463 13.0223 13.4353 13.0447 13.402 13.0683C13.3352 13.1157 13.2463 13.1678 13.1338 13.2121C12.9038 13.3028 12.6001 13.3515 12.2249 13.2906C11.4936 13.1718 10.5352 12.6466 9.26614 11.3105C7.99335 9.97048 7.50622 8.97071 7.39729 8.22728C7.34185 7.84889 7.38622 7.54589 7.46764 7.31708C7.50768 7.20456 7.55495 7.11484 7.59855 7.04671C7.62029 7.01274 7.64101 6.98429 7.65933 6.96114C7.66849 6.94957 7.67705 6.93931 7.68485 6.93035L7.69595 6.91786L7.70104 6.91233L7.70346 6.90974L7.70463 6.90849C7.70521 6.90788 7.70578 6.90728 8.14884 7.3281L7.70579 6.90727L7.9448 6.65564C8.31608 6.26475 8.37003 5.60276 8.01824 5.10521L6.96742 3.61897Z" fill="#262526"/>
<path d="M11.5497 1.56685C11.6048 1.22611 11.9269 0.994965 12.2677 1.05013C12.2888 1.05417 12.3566 1.06685 12.3922 1.07477C12.4633 1.09061 12.5625 1.11499 12.6862 1.15101C12.9335 1.22304 13.279 1.34171 13.6937 1.53183C14.5239 1.91246 15.6287 2.57829 16.7752 3.72479C17.9217 4.87129 18.5876 5.97614 18.9682 6.80637C19.1583 7.22105 19.277 7.56655 19.349 7.81387C19.385 7.93754 19.4094 8.03673 19.4253 8.10784C19.4332 8.14339 19.439 8.17194 19.443 8.19304L19.4478 8.21903C19.503 8.55977 19.2739 8.8952 18.9332 8.95037C18.5934 9.00538 18.2733 8.77535 18.2168 8.4362C18.2151 8.4271 18.2103 8.40263 18.2051 8.37956C18.1949 8.33341 18.1771 8.26022 18.1489 8.16343C18.0925 7.96982 17.9945 7.68204 17.8319 7.32731C17.5071 6.61872 16.9229 5.64023 15.8913 4.60868C14.8598 3.57713 13.8813 2.99296 13.1727 2.6681C12.818 2.50547 12.5302 2.40753 12.3366 2.35114C12.2398 2.32294 12.1181 2.29502 12.072 2.28474C11.7328 2.22822 11.4946 1.90662 11.5497 1.56685Z" fill="#262526"/>
<path fill-rule="evenodd" clip-rule="evenodd" d="M11.7383 4.44125C11.8331 4.10936 12.1791 3.91717 12.511 4.012L12.3393 4.61295C12.511 4.012 12.5113 4.01209 12.5116 4.01217L12.5122 4.01235L12.5134 4.01271L12.5162 4.01353L12.5227 4.01545L12.5392 4.02059C12.5517 4.02461 12.5674 4.02984 12.5861 4.03648C12.6236 4.04976 12.673 4.06865 12.7337 4.09465C12.8551 4.14668 13.021 4.22703 13.2248 4.34762C13.6326 4.58903 14.1895 4.99001 14.8436 5.64415C15.4978 6.29829 15.8987 6.85512 16.1401 7.263C16.2607 7.46676 16.3411 7.63265 16.3931 7.75405C16.4191 7.81473 16.438 7.86419 16.4513 7.90162C16.4579 7.92033 16.4632 7.93602 16.4672 7.94858L16.4723 7.96507L16.4742 7.97153L16.475 7.97431L16.4754 7.97559L16.4756 7.9762C16.4757 7.97649 16.4758 7.97679 15.8748 8.14849L16.4758 7.97679C16.5706 8.30868 16.3784 8.65461 16.0465 8.74944C15.7174 8.84346 15.3746 8.65533 15.2763 8.32861L15.2732 8.31963C15.2688 8.30711 15.2596 8.28245 15.2442 8.24645C15.2133 8.17451 15.1574 8.05681 15.0644 7.89965C14.8786 7.5857 14.543 7.11133 13.9597 6.52803C13.3764 5.94474 12.9021 5.60915 12.5881 5.42334C12.4309 5.33033 12.3133 5.27442 12.2413 5.24358C12.2053 5.22815 12.1807 5.21896 12.1681 5.21452L12.1591 5.21144C11.8324 5.1132 11.6443 4.77033 11.7383 4.44125Z" fill="#262526"/>
</svg>
