<svg width="63" height="24" viewBox="0 0 63 24" fill="none" xmlns="http://www.w3.org/2000/svg">
<rect x="0.5" width="62" height="24" rx="8" fill="white"/>
<path fill-rule="evenodd" clip-rule="evenodd" d="M12.6667 8.66663C12.6667 10.0473 11.5474 11.1666 10.1667 11.1666C8.786 11.1666 7.66671 10.0473 7.66671 8.66663C7.66671 7.28591 8.786 6.16663 10.1667 6.16663C11.5474 6.16663 12.6667 7.28591 12.6667 8.66663ZM10.1667 10.1666C10.9951 10.1666 11.6667 9.49505 11.6667 8.66663C11.6667 7.8382 10.9951 7.16663 10.1667 7.16663C9.33828 7.16663 8.66671 7.8382 8.66671 8.66663C8.66671 9.49505 9.33828 10.1666 10.1667 10.1666Z" fill="#1A1A1A"/>
<path fill-rule="evenodd" clip-rule="evenodd" d="M4.33337 15.3333C4.33337 16.714 5.45266 17.8333 6.83337 17.8333C8.21409 17.8333 9.33337 16.714 9.33337 15.3333C9.33337 13.9526 8.21409 12.8333 6.83337 12.8333C5.45266 12.8333 4.33337 13.9526 4.33337 15.3333ZM6.83337 16.8333C6.00495 16.8333 5.33337 16.1617 5.33337 15.3333C5.33337 14.5049 6.00495 13.8333 6.83337 13.8333C7.6618 13.8333 8.33337 14.5049 8.33337 15.3333C8.33337 16.1617 7.6618 16.8333 6.83337 16.8333Z" fill="#1A1A1A"/>
<path d="M10 15.3056C10 15.0295 10.2239 14.8056 10.5 14.8056H15.1667C15.4429 14.8056 15.6667 15.0295 15.6667 15.3056C15.6667 15.5818 15.4429 15.8056 15.1667 15.8056H10.5C10.2239 15.8056 10 15.5818 10 15.3056Z" fill="#1A1A1A"/>
<path d="M6.50004 8.13897C6.77618 8.13897 7.00004 8.36283 7.00004 8.63897C7.00004 8.91512 6.77618 9.13897 6.50004 9.13897L1.83337 9.13897C1.55723 9.13897 1.33337 8.91512 1.33337 8.63897C1.33337 8.36283 1.55723 8.13897 1.83337 8.13897L6.50004 8.13897Z" fill="#1A1A1A"/>
<path d="M1.33337 15.3056C1.33337 15.0295 1.55723 14.8056 1.83337 14.8056H3.16671C3.44285 14.8056 3.66671 15.0295 3.66671 15.3056C3.66671 15.5818 3.44285 15.8056 3.16671 15.8056H1.83337C1.55723 15.8056 1.33337 15.5818 1.33337 15.3056Z" fill="#1A1A1A"/>
<path d="M15.1667 8.13897C15.4429 8.13897 15.6667 8.36283 15.6667 8.63897C15.6667 8.91512 15.4429 9.13897 15.1667 9.13897H13.8334C13.5572 9.13897 13.3334 8.91512 13.3334 8.63897C13.3334 8.36283 13.5572 8.13897 13.8334 8.13897H15.1667Z" fill="#1A1A1A"/>
<path d="M26.6188 7.636V8.524H22.9828V11.344H25.9348V12.232H22.9828V16H21.8908V7.636H26.6188ZM28.5017 8.356C28.2937 8.356 28.1177 8.284 27.9737 8.14C27.8297 7.996 27.7577 7.82 27.7577 7.612C27.7577 7.404 27.8297 7.228 27.9737 7.084C28.1177 6.94 28.2937 6.868 28.5017 6.868C28.7017 6.868 28.8697 6.94 29.0057 7.084C29.1497 7.228 29.2217 7.404 29.2217 7.612C29.2217 7.82 29.1497 7.996 29.0057 8.14C28.8697 8.284 28.7017 8.356 28.5017 8.356ZM29.0297 9.424V16H27.9377V9.424H29.0297ZM31.9828 7.12V16H30.8908V7.12H31.9828ZM35.1759 10.324V14.2C35.1759 14.52 35.2439 14.748 35.3799 14.884C35.5159 15.012 35.7519 15.076 36.0879 15.076H36.8919V16H35.9079C35.2999 16 34.8439 15.86 34.5399 15.58C34.2359 15.3 34.0839 14.84 34.0839 14.2V10.324H33.2319V9.424H34.0839V7.768H35.1759V9.424H36.8919V10.324H35.1759ZM44.215 12.46C44.215 12.668 44.203 12.888 44.179 13.12H38.923C38.963 13.768 39.183 14.276 39.583 14.644C39.991 15.004 40.483 15.184 41.059 15.184C41.531 15.184 41.923 15.076 42.235 14.86C42.555 14.636 42.779 14.34 42.907 13.972H44.083C43.907 14.604 43.555 15.12 43.027 15.52C42.499 15.912 41.843 16.108 41.059 16.108C40.435 16.108 39.875 15.968 39.379 15.688C38.891 15.408 38.507 15.012 38.227 14.5C37.947 13.98 37.807 13.38 37.807 12.7C37.807 12.02 37.943 11.424 38.215 10.912C38.487 10.4 38.867 10.008 39.355 9.736C39.851 9.456 40.419 9.316 41.059 9.316C41.683 9.316 42.235 9.452 42.715 9.724C43.195 9.996 43.563 10.372 43.819 10.852C44.083 11.324 44.215 11.86 44.215 12.46ZM43.087 12.232C43.087 11.816 42.995 11.46 42.811 11.164C42.627 10.86 42.375 10.632 42.055 10.48C41.743 10.32 41.395 10.24 41.011 10.24C40.459 10.24 39.987 10.416 39.595 10.768C39.211 11.12 38.991 11.608 38.935 12.232H43.087ZM46.7484 10.492C46.9404 10.116 47.2124 9.824 47.5644 9.616C47.9244 9.408 48.3604 9.304 48.8724 9.304V10.432H48.5844C47.3604 10.432 46.7484 11.096 46.7484 12.424V16H45.6564V9.424H46.7484V10.492ZM52.461 16.108C51.957 16.108 51.505 16.024 51.105 15.856C50.705 15.68 50.389 15.44 50.157 15.136C49.925 14.824 49.797 14.468 49.773 14.068H50.901C50.933 14.396 51.085 14.664 51.357 14.872C51.637 15.08 52.001 15.184 52.449 15.184C52.865 15.184 53.193 15.092 53.433 14.908C53.673 14.724 53.793 14.492 53.793 14.212C53.793 13.924 53.665 13.712 53.409 13.576C53.153 13.432 52.757 13.292 52.221 13.156C51.733 13.028 51.333 12.9 51.021 12.772C50.717 12.636 50.453 12.44 50.229 12.184C50.013 11.92 49.905 11.576 49.905 11.152C49.905 10.816 50.005 10.508 50.205 10.228C50.405 9.948 50.689 9.728 51.057 9.568C51.425 9.4 51.845 9.316 52.317 9.316C53.045 9.316 53.633 9.5 54.081 9.868C54.529 10.236 54.769 10.74 54.801 11.38H53.709C53.685 11.036 53.545 10.76 53.289 10.552C53.041 10.344 52.705 10.24 52.281 10.24C51.889 10.24 51.577 10.324 51.345 10.492C51.113 10.66 50.997 10.88 50.997 11.152C50.997 11.368 51.065 11.548 51.201 11.692C51.345 11.828 51.521 11.94 51.729 12.028C51.945 12.108 52.241 12.2 52.617 12.304C53.089 12.432 53.473 12.56 53.769 12.688C54.065 12.808 54.317 12.992 54.525 13.24C54.741 13.488 54.853 13.812 54.861 14.212C54.861 14.572 54.761 14.896 54.561 15.184C54.361 15.472 54.077 15.7 53.709 15.868C53.349 16.028 52.933 16.108 52.461 16.108ZM56.7505 16.072C56.5425 16.072 56.3665 16 56.2225 15.856C56.0785 15.712 56.0065 15.536 56.0065 15.328C56.0065 15.12 56.0785 14.944 56.2225 14.8C56.3665 14.656 56.5425 14.584 56.7505 14.584C56.9505 14.584 57.1185 14.656 57.2545 14.8C57.3985 14.944 57.4705 15.12 57.4705 15.328C57.4705 15.536 57.3985 15.712 57.2545 15.856C57.1185 16 56.9505 16.072 56.7505 16.072ZM56.7505 10.936C56.5425 10.936 56.3665 10.864 56.2225 10.72C56.0785 10.576 56.0065 10.4 56.0065 10.192C56.0065 9.984 56.0785 9.808 56.2225 9.664C56.3665 9.52 56.5425 9.448 56.7505 9.448C56.9505 9.448 57.1185 9.52 57.2545 9.664C57.3985 9.808 57.4705 9.984 57.4705 10.192C57.4705 10.4 57.3985 10.576 57.2545 10.72C57.1185 10.864 56.9505 10.936 56.7505 10.936Z" fill="#1A1A1A"/>
</svg>
