<svg width="14" height="14" viewBox="0 0 14 14" fill="none" xmlns="http://www.w3.org/2000/svg">
<g clip-path="url(#clip0_4186_24772)">
<path d="M5.33918 3.15521C6.07806 1.82973 6.4475 1.16699 6.99984 1.16699C7.55217 1.16699 7.92161 1.82973 8.66049 3.15521L8.85165 3.49813C9.06162 3.87479 9.1666 4.06312 9.33029 4.18738C9.49398 4.31164 9.69784 4.35777 10.1056 4.45002L10.4768 4.53401C11.9116 4.85865 12.629 5.02097 12.7997 5.56984C12.9704 6.1187 12.4813 6.69062 11.5031 7.83445L11.2501 8.13037C10.9721 8.45541 10.8331 8.61793 10.7706 8.81899C10.7081 9.02005 10.7291 9.23689 10.7711 9.67057L10.8094 10.0654C10.9572 11.5915 11.0312 12.3546 10.5843 12.6938C10.1375 13.033 9.46578 12.7237 8.12236 12.1052L7.7748 11.9451C7.39305 11.7694 7.20217 11.6815 6.99984 11.6815C6.79751 11.6815 6.60663 11.7694 6.22487 11.9451L5.87731 12.1052C4.5339 12.7237 3.86219 13.033 3.41534 12.6938C2.96849 12.3546 3.04243 11.5915 3.19032 10.0654L3.22858 9.67057C3.2706 9.23689 3.29161 9.02005 3.22909 8.81899C3.16657 8.61793 3.02759 8.45541 2.74962 8.13037L2.49656 7.83445C1.5184 6.69062 1.02932 6.1187 1.2 5.56984C1.37068 5.02097 2.08809 4.85865 3.5229 4.53401L3.8941 4.45002C4.30183 4.35777 4.5057 4.31164 4.66939 4.18738C4.83308 4.06312 4.93806 3.87479 5.14803 3.49813L5.33918 3.15521Z" fill="#262526" stroke="#262526" stroke-width="0.875"/>
</g>
<defs>
<clipPath id="clip0_4186_24772">
<rect width="14" height="14" rx="2.91667" fill="white"/>
</clipPath>
</defs>
</svg>
