<svg width="17" height="16" viewBox="0 0 17 16" fill="none" xmlns="http://www.w3.org/2000/svg">
<g clip-path="url(#clip0_4131_6788)">
<path d="M4.52628 5.18103C2.88649 5.55204 2.0666 5.73755 1.87153 6.36483C1.67647 6.9921 2.23542 7.64572 3.35332 8.95296L3.64253 9.29116C3.9602 9.66263 4.11904 9.84837 4.19049 10.0782C4.26195 10.3079 4.23794 10.5557 4.18991 11.0514L4.14618 11.5026C3.97717 13.2467 3.89267 14.1188 4.40335 14.5065C4.91404 14.8942 5.6817 14.5407 7.21703 13.8338L7.61424 13.6509C8.05054 13.45 8.26868 13.3496 8.49992 13.3496C8.73115 13.3496 8.9493 13.45 9.3856 13.6509L9.7828 13.8338C11.3181 14.5407 12.0858 14.8942 12.5965 14.5065C13.1072 14.1188 13.0227 13.2467 12.8537 11.5026M13.6465 8.95296C14.7644 7.64572 15.3234 6.9921 15.1283 6.36483C14.9332 5.73755 14.1133 5.55204 12.4736 5.18103L12.0493 5.08504C11.5834 4.97961 11.3504 4.92689 11.1633 4.78488C10.9762 4.64287 10.8562 4.42763 10.6163 3.99716L10.3978 3.60526C9.55338 2.09042 9.13116 1.33301 8.49992 1.33301C7.86868 1.33301 7.44646 2.09042 6.60203 3.60526" stroke="#6B7280" stroke-linecap="round"/>
</g>
<defs>
<clipPath id="clip0_4131_6788">
<rect x="0.5" width="16" height="16" rx="3.33333" fill="white"/>
</clipPath>
</defs>
</svg>
